<svg  viewBox="0 0 24 24" fill="none" xmlns="http://www.w3.org/2000/svg" id="__THIS_ID_NEEDS_FOR_UI_ICON_COMPONENT__">
<path fill-rule="evenodd" clip-rule="evenodd" d="M18.7684 6.64031L14.2924 12.0113L18.6074 17.3733C18.9534 17.8033 18.8854 18.4323 18.4554 18.7793C18.2704 18.9283 18.0484 19.0003 17.8284 19.0003C17.5364 19.0003 17.2464 18.8723 17.0484 18.6273L12.2204 12.6273C11.9224 12.2563 11.9264 11.7253 12.2314 11.3603L17.2314 5.36031C17.5854 4.93531 18.2154 4.87931 18.6404 5.23231C19.0644 5.58531 19.1214 6.21631 18.7684 6.64031ZM10.232 5.36001C10.585 4.93601 11.215 4.87901 11.64 5.23201C12.064 5.58601 12.121 6.21601 11.768 6.64001L7.29204 12.011L11.607 17.373C11.953 17.803 11.885 18.433 11.455 18.779C11.27 18.928 11.049 19 10.828 19C10.536 19 10.246 18.873 10.049 18.627L5.22104 12.627C4.92204 12.256 4.92704 11.726 5.23204 11.36L10.232 5.36001Z" fill="#202020" style="fill: var(--ui-icon-primary-color);"/>
</svg>
