<svg width="288" height="186" viewBox="0 0 288 186" fill="none" xmlns="http://www.w3.org/2000/svg">
<path d="M288 183.898H0V186H288V183.898Z" fill="#85848B"/>
<path d="M228.171 146.777C228.171 148.394 218.734 153.108 207.525 153.108C196.316 153.108 187.582 148.394 187.582 146.777C187.582 145.159 196.667 145.68 207.887 145.68C219.108 145.68 228.171 145.157 228.171 146.777Z" fill="#504F60"/>
<path opacity="0.2" d="M228.171 146.777C228.171 148.394 218.734 153.108 207.525 153.108C196.316 153.108 187.582 148.394 187.582 146.777" fill="black"/>
<path d="M115.287 117.103C117.107 117.336 118.994 117.484 120.737 116.919C121.011 116.834 121.313 116.645 121.286 116.371C121.266 116.271 121.224 116.178 121.162 116.097C120.505 115.113 119.953 114.063 119.516 112.964C119.498 112.907 119.463 112.857 119.414 112.821C119.357 112.801 119.295 112.801 119.239 112.821C118.435 113.032 117.74 113.55 116.942 113.773C116.535 113.884 116.11 113.916 115.691 113.866C115.328 113.825 114.835 113.526 114.505 113.564C114.692 114.762 115.147 115.88 115.287 117.103Z" fill="#3C8AFF"/>
<path d="M149.694 114.069C150.893 113.246 152.136 112.383 152.844 111.114C152.894 111.038 152.924 110.95 152.929 110.859C152.917 110.769 152.882 110.684 152.827 110.612C152.153 109.541 151.285 108.605 150.267 107.852C149.736 108.227 149.257 108.669 148.84 109.168C148.539 109.486 147.704 109.99 147.696 110.475C147.696 110.749 148.014 111.067 148.163 111.297C148.363 111.593 148.552 111.895 148.733 112.202C148.838 112.353 149.79 114.008 149.694 114.069Z" fill="#3C8AFF"/>
<path d="M122.419 120.773C122.44 121.055 122.363 121.336 122.199 121.568C122.071 121.697 121.913 121.791 121.738 121.842C119.195 122.752 116.25 121.617 113.712 122.513C113.191 122.697 112.697 122.963 112.173 123.138C111.548 123.326 110.903 123.44 110.252 123.478C109.355 123.563 108.452 123.618 107.552 123.643C106.868 123.691 106.181 123.631 105.516 123.465C105.184 123.38 104.873 123.226 104.604 123.013C104.335 122.8 104.114 122.532 103.955 122.228C103.817 121.956 103.789 121.641 103.878 121.349C103.918 121.248 103.974 121.156 104.045 121.074C104.217 120.882 104.419 120.718 104.643 120.589L105.579 119.986C106.018 119.676 106.495 119.424 106.998 119.235C107.368 119.115 107.761 119.063 108.137 118.961C109.451 118.577 110.455 117.536 111.388 116.535L112.661 115.179C112.78 115.029 112.931 114.908 113.103 114.825C113.28 114.766 113.467 114.748 113.652 114.773C114.889 114.861 116.083 115.261 117.123 115.935C117.389 116.134 117.676 116.303 117.979 116.439C118.725 116.73 119.683 116.511 120.372 116.143C120.698 115.968 120.627 115.869 120.764 115.557C120.901 115.244 121.236 115.044 121.527 115.329C121.615 115.428 121.677 115.547 121.708 115.675C121.983 116.579 121.878 117.552 121.878 118.501C121.87 118.649 121.889 118.797 121.933 118.939C122.003 119.082 122.087 119.218 122.183 119.345C122.202 119.378 122.22 119.413 122.235 119.449C122.403 119.869 122.466 120.323 122.419 120.773Z" fill="#514E7F"/>
<path d="M122.419 120.773C122.44 121.055 122.363 121.336 122.199 121.568C122.071 121.697 121.913 121.791 121.738 121.842C119.195 122.752 116.25 121.617 113.712 122.513C113.191 122.697 112.697 122.963 112.173 123.138C111.548 123.326 110.903 123.44 110.252 123.478C109.355 123.563 108.452 123.618 107.552 123.643C106.868 123.691 106.181 123.631 105.516 123.465C105.184 123.38 104.873 123.226 104.604 123.013C104.335 122.8 104.114 122.532 103.955 122.228C103.817 121.956 103.789 121.641 103.878 121.349C103.918 121.248 103.974 121.156 104.045 121.074C104.193 121.384 104.3 121.795 104.394 121.943C104.52 122.163 104.691 122.353 104.897 122.501C105.102 122.649 105.337 122.751 105.585 122.801C105.956 122.824 106.328 122.777 106.682 122.661C108.987 122.091 111.438 122.083 113.652 121.22C114.412 120.921 115.136 120.524 115.935 120.343C116.733 120.162 117.581 120.211 118.404 120.143C119.705 120.038 120.965 119.646 122.246 119.441C122.411 119.864 122.471 120.321 122.419 120.773Z" fill="#464353"/>
<path d="M155.519 113.901C155.398 114.866 154.786 115.697 154.114 116.401C153.442 117.106 152.682 117.739 152.147 118.55C151.488 119.556 151.192 120.803 150.336 121.653C150.007 121.962 149.638 122.225 149.238 122.434C148.79 122.698 148.317 122.916 147.825 123.084C146.546 123.492 145.169 123.399 143.833 123.3C143.399 123.296 142.969 123.213 142.565 123.056C142.381 122.963 142.205 122.855 142.038 122.733C141.703 122.527 141.421 122.245 141.215 121.91C141.114 121.729 141.085 121.515 141.135 121.313C141.212 121.09 141.343 120.891 141.517 120.732C141.817 120.419 142.14 120.129 142.483 119.863C142.952 119.56 143.376 119.191 143.739 118.767C143.962 118.431 144.127 118.061 144.225 117.67C144.419 116.986 144.538 116.283 144.579 115.573C144.577 115.102 144.626 114.631 144.724 114.17C144.927 113.446 145.465 112.799 145.405 112.051C145.38 111.944 145.39 111.832 145.432 111.73C145.496 111.651 145.585 111.596 145.685 111.574C146.104 111.407 146.546 111.305 146.996 111.27C147.222 111.254 147.449 111.289 147.659 111.372C147.87 111.454 148.06 111.582 148.215 111.747C148.401 111.972 148.525 112.295 148.799 112.383C148.935 112.42 149.078 112.426 149.216 112.399C149.891 112.331 150.605 112.246 151.137 111.81C151.383 111.59 151.581 111.321 151.718 111.02C151.855 110.72 151.928 110.394 151.933 110.064C151.933 109.815 151.82 109.554 152.207 109.516C152.498 109.477 152.728 109.79 152.877 109.982C153.412 110.697 153.961 111.445 154.161 112.317C154.239 112.287 154.321 112.271 154.405 112.27C154.576 112.269 154.745 112.309 154.898 112.387C155.05 112.464 155.181 112.578 155.28 112.717C155.499 113.071 155.584 113.491 155.519 113.901Z" fill="#514E7F"/>
<path d="M155.519 113.901C155.398 114.866 154.786 115.697 154.114 116.401C153.442 117.106 152.682 117.739 152.147 118.55C151.488 119.556 151.192 120.803 150.336 121.653C150.007 121.962 149.638 122.225 149.238 122.434C148.79 122.698 148.317 122.916 147.825 123.084C146.546 123.492 145.169 123.399 143.833 123.3C143.399 123.296 142.969 123.213 142.565 123.056C142.381 122.963 142.205 122.855 142.038 122.733C141.703 122.527 141.421 122.245 141.215 121.91C141.472 121.787 141.753 121.72 142.038 121.713C142.631 121.746 143.064 122.305 143.632 122.478C144.442 122.722 145.248 122.152 146.069 121.957C146.604 121.831 147.166 121.864 147.696 121.683C148.137 121.513 148.545 121.266 148.901 120.954C149.388 120.606 149.821 120.188 150.188 119.715C150.492 119.241 150.745 118.737 150.942 118.21C151.375 117.201 151.885 116.226 152.468 115.294C152.554 115.146 152.658 115.01 152.778 114.888C152.907 114.77 153.052 114.688 153.198 114.584C153.746 114.17 153.974 113.487 154.166 112.819C154.218 112.615 154.291 112.418 154.383 112.229C154.554 112.228 154.723 112.268 154.876 112.345C155.028 112.423 155.159 112.537 155.258 112.676C155.494 113.038 155.587 113.475 155.519 113.901Z" fill="#464353"/>
<path d="M97.9812 28.4431C98.6642 28.9544 99.2262 29.6094 99.6275 30.3618C100.012 31.1128 102.226 36.9401 102.097 37.7871C102.819 37.0608 105.664 36.9429 106.394 36.2165C106.699 35.9123 108.342 34.3938 108.589 34.0402C108.836 33.6866 110.669 32.9438 110.87 32.571C111.619 31.2307 105.557 26.1517 106.334 24.8278C106.377 24.7669 106.399 24.6939 106.397 24.6195C106.379 24.557 106.344 24.5009 106.295 24.4577C105.799 23.9507 105.14 23.6354 104.542 23.2599C103.944 22.8844 103.368 22.3609 103.206 21.6702C102.635 21.9325 102.112 22.2861 101.655 22.7172C100.543 23.6693 99.4501 24.6405 98.3763 25.6309C97.9565 26.0201 97.1443 26.5381 96.9494 27.0946C96.7189 27.6921 97.5806 28.1169 97.9812 28.4431Z" fill="#A1616A"/>
<path d="M107.793 26.2859C106.864 26.9102 105.994 27.6205 105.198 28.4075C104.446 29.1503 103.732 30.0109 103.551 31.0498C103.475 31.4582 103.485 31.8721 103.422 32.2859C103.148 34.0813 101.595 35.397 100.909 37.0772C100.71 37.5958 100.564 38.1329 100.473 38.6807C100.28 39.7189 100.174 40.7715 100.157 41.8273C100.141 42.8497 101.145 43.5541 101.513 44.508C101.88 45.4618 101.979 46.4431 102.166 47.4216C102.517 49.269 103.162 51.0507 103.812 52.8214C105.165 56.5546 109.55 66.8743 110.902 70.6103C115.049 69.5715 126.085 67.1841 129.756 64.994C130.98 64.2649 121.264 56.0393 122.572 55.4719C122.647 55.4602 122.718 55.4314 122.78 55.3876C122.842 55.3438 122.893 55.2863 122.928 55.2196C122.964 55.1528 122.983 55.0787 122.986 55.0031C122.988 54.9275 122.972 54.8525 122.94 54.7839C121.631 49.0662 117.537 44.3682 115.68 38.8013C115.035 36.8689 113.877 35.2188 112.999 33.3823C112.203 31.7186 111.778 29.8794 110.826 28.2978C110.646 27.972 110.411 27.6798 110.131 27.4344C109.894 27.2525 109.637 27.0972 109.366 26.9712C108.822 26.7081 108.318 26.5518 107.793 26.2859Z" fill="#514E7F"/>
<path d="M98.2007 27.7935C101.785 27.7935 104.69 24.8912 104.69 21.3111C104.69 17.731 101.785 14.8287 98.2007 14.8287C94.6167 14.8287 91.7112 17.731 91.7112 21.3111C91.7112 24.8912 94.6167 27.7935 98.2007 27.7935Z" fill="#A1616A"/>
<path d="M104.803 24.3563C105.126 24.0584 105.532 23.8653 105.968 23.8027C106.403 23.74 106.848 23.8108 107.242 24.0055C107.681 24.233 108.065 24.6935 107.966 25.1759L111.185 25.2252C111.697 25.2112 112.209 25.2582 112.711 25.365C113.215 25.4747 113.665 25.7568 113.984 26.1626C114.022 26.2147 114.066 26.2778 114.132 26.286C114.186 26.2868 114.238 26.2694 114.28 26.2366C114.775 25.9886 115.333 25.8932 115.883 25.9625C117.622 26.0749 119.23 26.9438 120.594 28.0292C120.84 28.1981 121.031 28.4354 121.143 28.7117C121.255 29.0763 121.121 29.534 121.417 29.7944C121.417 32.8095 122.454 35.6272 123.146 38.5656C123.269 39.0891 123.772 39.5523 124.12 39.9635C124.551 40.4193 124.902 40.9436 125.16 41.5149C125.747 43.0388 124.938 44.8314 125.508 46.3609C125.75 47.0078 126.216 47.5395 126.606 48.1014C127.12 48.7502 127.444 49.5279 127.545 50.349C127.569 50.7163 127.523 51.0863 127.545 51.4454C127.581 51.9393 127.673 52.4275 127.819 52.9009C128.053 53.7853 128.298 54.6688 128.554 55.5514C128.971 56.9767 129.515 58.5144 130.793 59.2736C127.706 59.7972 124.452 60.3097 121.511 59.238C121.1 59.0982 120.711 58.9037 120.353 58.6597C119.291 57.9031 118.778 56.6094 118.319 55.3869C117.809 54.0164 117.29 52.6213 117.186 51.1631C117.187 50.6993 117.121 50.2378 116.991 49.7926C116.692 48.9977 115.894 48.518 115.169 48.0767C114.351 47.629 113.61 47.0534 112.974 46.3719C112.658 46.0286 112.417 45.6243 112.264 45.1839C112.111 44.7436 112.05 44.2766 112.085 43.8118C112.14 43.3595 112.318 42.9237 112.335 42.4687C112.351 42.0137 112.148 41.4929 111.712 41.3723C109.465 40.6926 108.392 38.0338 107.892 35.7424C107.677 34.558 107.58 33.3552 107.604 32.1517L107.574 29.8136C107.264 29.5318 107.014 29.1898 106.841 28.8086C106.667 28.4274 106.573 28.0149 106.564 27.5962C106.594 27.3519 106.589 27.1046 106.551 26.8616C106.442 26.5645 106.265 26.297 106.035 26.0804C105.538 25.5717 105.123 24.9903 104.803 24.3563Z" fill="#464353"/>
<path d="M97.8906 31.7679C97.8165 32.4915 97.9811 33.2343 97.8192 33.9443C97.7561 34.2184 97.6464 34.4925 97.5668 34.7474C97.3235 35.7692 97.4288 36.8428 97.8659 37.7981C98.3024 38.7439 98.825 39.6477 99.4272 40.4979C99.6309 40.7882 99.7986 41.102 99.9266 41.4326C100.03 41.7797 100.095 42.1374 100.119 42.4988C100.278 43.9503 100.532 45.3898 100.881 46.8077C101.189 48.0356 104.679 58.5336 105.491 59.5066C105.639 59.722 105.862 59.8738 106.117 59.9315C106.301 59.9384 106.483 59.9008 106.649 59.8218L108.296 59.1914C108.436 59.1486 108.565 59.0777 108.677 58.9831C108.831 58.803 108.915 58.5732 108.913 58.3362C109.031 56.9986 105.533 46.4267 105.088 45.1631C103.743 41.3476 101.954 37.6692 101.079 33.7195C100.835 32.6231 100.706 30.9347 99.9019 30.0603C99.5699 29.6985 99.6824 29.852 99.2845 30.0411C99.0835 30.1283 98.889 30.2299 98.7028 30.3454C98.4699 30.5071 98.2761 30.7187 98.1356 30.9649C97.9951 31.211 97.9114 31.4853 97.8906 31.7679Z" fill="#464353"/>
<path d="M102.887 39.0069C103.329 41.3394 103.785 43.6665 104.237 45.9991L110.68 44.3134C110.732 43.6391 110.373 43.0142 110.131 42.3947C109.544 40.9228 109.53 39.2837 109.056 37.7707C108.696 36.6195 108.071 35.5614 107.733 34.402C107.538 33.7277 107.44 33.0315 107.247 32.349C107.041 31.6788 106.788 31.0239 106.49 30.3892C106.128 29.4688 105.657 28.5954 105.085 27.788C104.262 28.095 103.384 28.4513 102.915 29.1941C102.674 29.6127 102.537 30.0825 102.514 30.5646C102.402 32.0091 102.926 33.4619 102.753 34.8981C102.575 36.2659 102.62 37.6536 102.887 39.0069Z" fill="#3C8AFF"/>
<path d="M110.787 70.0347C111.149 71.4052 110.625 72.847 110.197 74.2037C109.553 76.2474 109.113 78.35 108.886 80.4806C108.858 81.0228 108.749 81.5577 108.562 82.0676C108.359 82.5253 108.013 82.9118 107.777 83.3476C107.13 84.4934 107.146 85.8913 107.286 87.2015C107.379 88.0649 107.519 88.9255 107.692 89.7752C107.903 90.8141 108.164 91.8995 107.859 92.9136C108.37 92.8013 108.716 93.4618 108.683 93.9799C108.65 94.4979 108.482 95.0763 108.732 95.5231C109.363 95.7533 109.369 96.6194 109.349 97.291C109.36 98.4554 109.507 99.6146 109.788 100.745C110.743 105.331 111.757 109.905 112.829 114.466C115.147 115.184 117.856 115.932 120.067 114.937C120.479 114.754 120.89 114.46 120.984 114.016C121.008 113.777 120.978 113.535 120.896 113.309L119.848 109.499C119.593 108.578 119.337 107.627 119.472 106.682C119.573 105.977 119.881 105.218 119.535 104.596C119.417 104.382 119.23 104.215 119.093 104.012C118.544 103.209 118.832 102.134 118.876 101.161C118.894 100.943 118.879 100.723 118.832 100.509C118.757 100.259 118.652 100.019 118.52 99.7935C117.653 98.1136 117.237 96.2382 117.312 94.3499C117.345 94.109 117.312 93.8636 117.216 93.64C117.15 93.5477 117.09 93.4506 117.038 93.3495C116.997 93.1735 117.017 92.9888 117.096 92.8259C116.781 92.5876 116.497 92.3114 116.25 92.0037C116.403 91.9091 116.531 91.7813 116.627 91.6298C116.722 91.4784 116.782 91.3072 116.802 91.1293C116.821 90.9513 116.8 90.7713 116.74 90.6027C116.679 90.4341 116.582 90.2815 116.453 90.1562C116.565 90.1337 116.669 90.0807 116.752 90.0029C116.836 89.9252 116.896 89.8259 116.927 89.716C116.957 89.6061 116.956 89.4899 116.925 89.3804C116.893 89.2708 116.832 89.1722 116.747 89.0955C116.613 89.0023 116.434 88.9612 116.338 88.8214C116.19 88.6185 116.311 88.3362 116.432 88.1197L117.071 86.9657C117.548 86.1078 117.655 85.047 118.168 84.2248C118.904 83.0269 119.384 81.6921 119.859 80.3709L121.705 75.2809L122.948 76.3581C123.362 76.6741 123.709 77.0692 123.969 77.5203C124.146 77.9662 124.258 78.4351 124.301 78.9127C124.757 81.6756 126.496 84.0713 127.141 86.793C127.284 87.3988 127.38 88.0347 127.728 88.5527C127.853 88.7118 127.965 88.8804 128.063 89.0571C128.154 89.3266 128.201 89.6088 128.203 89.8931C128.261 90.4498 128.437 90.9876 128.722 91.4701C129.006 91.9525 129.39 92.3682 129.849 92.6889C130.461 93.1083 131.221 93.3961 131.553 94.0594C131.62 94.2648 131.712 94.461 131.828 94.6432C132.124 94.9995 132.764 95.0406 132.89 95.4874C132.961 95.7369 132.829 96.0356 132.969 96.2549C133.049 96.3564 133.154 96.4349 133.274 96.4824L135.06 97.3732C137.058 98.3709 138.079 100.662 139.552 102.332C140.061 102.875 140.512 103.471 140.897 104.108C141.533 105.245 141.827 106.673 142.902 107.397C143.192 107.547 143.455 107.742 143.682 107.975C144.019 108.419 143.896 109.042 143.926 109.601C143.956 110.16 144.384 110.826 144.917 110.656C144.73 111.333 144.73 112.048 144.917 112.725C147.254 112.606 149.482 111.704 151.244 110.165C151.765 109.71 152.268 109.129 152.273 108.439C152.281 108.319 152.254 108.2 152.196 108.096C152.091 107.961 151.952 107.856 151.793 107.792C150.122 106.887 149.62 104.79 148.775 103.088C148.036 101.586 146.944 100.292 146.031 98.8972C144.044 95.8958 142.688 92.264 139.684 90.2823C139.023 89.8465 138.254 89.46 137.922 88.7391C137.738 88.3362 137.716 87.8757 137.571 87.4591C137.426 87.0425 137.077 86.6368 136.633 86.6368C136.879 86.0338 136.83 85.2992 136.847 84.6469C136.863 84.3573 136.83 84.0671 136.748 83.7889C136.634 83.4897 136.485 83.2046 136.306 82.9392C135.522 81.6134 135.13 80.0928 135.175 78.5537C135.197 77.7615 135.337 76.9447 135.099 76.1882C134.978 75.8072 134.767 75.4591 134.621 75.0918C134.402 74.4263 134.286 73.7311 134.278 73.0306L134.114 70.3965C134.089 69.5193 133.975 68.6468 133.773 67.7926C133.225 65.7478 132.676 57.1823 130.796 56.2174C128.917 55.2526 125.687 61.8447 123.571 61.9735C122.635 62.0124 121.711 62.1907 120.827 62.5025C119.42 63.0288 118.24 64.01 117.09 64.9694L113.199 68.2339C112.376 68.9109 111.695 69.5578 110.787 70.0347Z" fill="#464353"/>
<path d="M92.1118 14.1133C92.9679 12.9456 94.4387 12.3262 95.8875 12.2741C97.3363 12.222 98.7632 12.677 100.061 13.3212C100.444 13.5388 100.854 13.7064 101.279 13.82C101.965 13.9598 102.728 13.7734 103.348 14.0941C104.171 14.5299 104.331 15.64 104.259 16.561C104.188 17.482 104.015 18.5043 104.506 19.302C104.68 19.5294 104.839 19.7685 104.981 20.0174C105.192 20.4916 105.069 21.0398 104.943 21.5414C104.621 21.2673 104.44 20.8534 104.155 20.5354C103.87 20.2175 103.373 20.0037 103.019 20.2421C102.665 20.4806 102.671 20.9137 102.651 21.3029C102.632 21.6921 102.533 22.1581 102.166 22.2842C102.012 22.3191 101.852 22.3072 101.705 22.25C101.558 22.1928 101.432 22.093 101.342 21.9635C100.714 21.196 100.967 19.9708 100.344 19.1978C99.9897 18.7593 99.3997 18.5455 99.0732 18.085C98.8153 17.7232 98.7494 17.2627 98.5244 16.8735C98.2994 16.4842 97.7753 16.1992 97.4268 16.4678C97.3079 16.5813 97.2087 16.7138 97.1332 16.8598C96.9159 17.1707 96.6 17.3993 96.2365 17.5087C95.8731 17.6182 95.4833 17.602 95.1302 17.4628C94.8603 17.2973 94.5684 17.1709 94.2631 17.0873C94.0632 17.0773 93.8645 17.1233 93.6895 17.2202C93.5144 17.3171 93.37 17.4609 93.2725 17.6355C93.0756 17.9842 92.9805 18.3812 92.9981 18.7812C92.9981 19.3294 93.0969 19.9132 92.7841 20.3518C92.6651 20.5169 92.5162 20.6582 92.345 20.7684C91.8868 21.0617 91.2475 21.259 90.8249 20.9246C90.6817 20.7914 90.5751 20.6236 90.5155 20.4373C90.456 20.2511 90.4453 20.0527 90.4846 19.8611C90.5669 19.4796 90.6751 19.1042 90.8084 18.7373C91.0499 17.8876 90.7343 16.931 90.9978 16.1307C91.2737 15.4099 91.6486 14.7309 92.1118 14.1133Z" fill="#464353"/>
<path d="M95.5884 33.4509C95.5472 33.6506 95.5683 33.8582 95.6488 34.0457C95.7303 34.1733 95.8414 34.2795 95.9726 34.3554C96.8953 34.9296 97.9448 35.2693 99.0293 35.3449C99.1769 35.3474 99.3218 35.385 99.4519 35.4545C99.7098 35.6245 99.7263 36.0027 99.6303 36.3042C99.5022 36.5886 99.4358 36.8969 99.4355 37.2087C99.515 37.7816 100.196 38.031 100.769 38.116C101.573 38.2174 102.454 38.1653 103.09 37.6638C103.522 37.2709 103.85 36.7788 104.048 36.2302C105.623 32.6149 106.175 28.6185 107.769 25.0141C107.89 24.7788 107.97 24.525 108.008 24.2631C108.024 24.132 108.006 23.9988 107.954 23.8774C107.902 23.7559 107.818 23.6506 107.711 23.5724C107.415 23.3887 106.954 23.4929 106.754 23.2051C106.655 23.0598 106.666 22.8625 106.578 22.709C106.394 22.3828 105.911 22.4349 105.582 22.2457C105.324 22.1087 105.146 21.8264 104.858 21.7716C104.716 21.7636 104.575 21.7887 104.445 21.8448C104.315 21.9009 104.199 21.9866 104.108 22.095C103.173 22.9666 102.682 24.2028 102.16 25.3705C101.364 27.1603 100.432 28.8867 99.3723 30.5345C99.4958 30.3426 98.7796 28.8899 98.4998 28.8268C98.0086 28.7282 97.3802 29.5888 97.1141 29.9095C96.2788 30.9211 95.7496 32.1495 95.5884 33.4509Z" fill="#3C8AFF"/>
<path opacity="0.1" d="M105.557 22.5007C105.36 22.504 105.166 22.5515 104.99 22.6397C104.814 22.728 104.66 22.8547 104.539 23.0105C104.246 23.3915 104.188 23.8958 104.114 24.381C103.864 25.918 103.315 27.3912 102.498 28.7172" fill="black"/>
<path opacity="0.1" d="M106.957 23.5943C106.685 23.6004 106.419 23.6771 106.185 23.817C105.952 23.9568 105.759 24.155 105.626 24.392C105.444 24.8231 105.331 25.28 105.291 25.746C105.056 26.7792 104.602 27.7502 103.96 28.5939" fill="black"/>
<path d="M172.169 77.1805V73.7762C172.169 71.2701 171.172 68.8669 169.397 67.0951C167.623 65.3233 165.217 64.328 162.708 64.328H28.12C25.6112 64.328 23.2052 65.3233 21.431 67.0951C19.6567 68.8669 18.6596 71.2701 18.6589 73.7762V80.053L172.169 77.1805Z" fill="#33323D"/>
<path d="M65.5613 60.3371C65.5613 60.3371 65.1772 84.1453 69.4029 91.979C73.6286 99.8127 75.4396 133.891 75.4396 133.891C75.4396 133.891 119.738 138.469 150.607 128.409C181.477 118.35 247.162 114.236 247.162 114.236L236.093 39.7113C236.093 39.7113 181.408 36.2083 150.3 51.0288C119.192 65.8492 65.5613 60.3371 65.5613 60.3371Z" fill="#8DD070"/>
<path opacity="0.1" d="M65.5613 60.3371C65.5613 60.3371 65.1772 84.1453 69.4029 91.979C73.6286 99.8127 75.4396 133.891 75.4396 133.891C75.4396 133.891 119.738 138.469 150.607 128.409C181.477 118.35 247.162 114.236 247.162 114.236L236.093 39.7113C236.093 39.7113 181.408 36.2083 150.3 51.0288C119.192 65.8492 65.5613 60.3371 65.5613 60.3371Z" fill="black"/>
<path d="M75.3655 69.0343C75.3655 69.0343 73.9798 88.6789 77.4564 94.9557C80.933 101.233 81.0949 129.254 81.0949 129.254C81.0949 129.254 120.962 131.101 149.321 121.458C177.679 111.815 237.273 105.561 237.273 105.561L230.5 44.6149C230.5 44.6149 181.192 44.1078 152.413 57.6811C123.634 71.2545 75.3655 69.0343 75.3655 69.0343Z" fill="#8DD070"/>
<path opacity="0.1" d="M151.975 110.3C157.648 109.594 161.017 99.1699 159.502 87.0172C157.987 74.8645 152.16 65.5849 146.488 66.2906C140.815 66.9964 137.445 77.4203 138.96 89.573C140.476 101.726 146.303 111.005 151.975 110.3Z" fill="black"/>
<path opacity="0.2" d="M206.112 3.40704C206.112 3.40704 152.986 16.8378 127.934 40.4788C102.882 64.1197 50.1431 75.3139 50.1431 75.3139C50.1431 75.3139 57.0908 98.0886 63.5171 104.25C69.9434 110.412 82.1321 142.295 82.1321 142.295C82.1321 142.295 125.698 133.069 151.985 114.025C178.272 94.9804 239.536 70.9283 239.536 70.9283L206.112 3.40704Z" fill="black"/>
<path d="M49.3445 71.9041C49.3445 71.9041 56.2895 94.6816 62.7103 100.843C69.1312 107.005 81.3253 138.885 81.3253 138.885C81.3253 138.885 124.897 129.662 151.186 110.618C177.476 91.5733 238.735 67.5295 238.735 67.5295L205.311 0C205.311 0 152.188 13.4308 127.136 37.0717C102.083 60.7127 49.3445 71.9041 49.3445 71.9041Z" fill="#8DD070"/>
<path opacity="0.1" d="M49.3445 71.9041C49.3445 71.9041 56.2895 94.6816 62.7103 100.843C69.1312 107.005 81.3253 138.885 81.3253 138.885C81.3253 138.885 124.897 129.662 151.186 110.618C177.476 91.5733 238.735 67.5295 238.735 67.5295L205.311 0C205.311 0 152.188 13.4308 127.136 37.0717C102.083 60.7127 49.3445 71.9041 49.3445 71.9041Z" fill="black"/>
<path d="M61.3384 77.1777C61.3384 77.1777 66.0552 96.3015 71.2934 101.208C76.5317 106.114 85.2876 132.729 85.2876 132.729C85.2876 132.729 123.796 122.264 147.825 104.393C171.854 86.5217 226.656 62.3271 226.656 62.3271L201.491 6.37823C201.491 6.37823 154.408 21.0068 131.186 42.7483C107.964 64.4897 61.3384 77.1777 61.3384 77.1777Z" fill="#8DD070"/>
<path opacity="0.1" d="M146.937 92.968C152.119 90.5576 152.124 79.6036 146.949 68.5017C141.773 57.3997 133.377 50.3539 128.195 52.7644C123.013 55.1748 123.008 66.1288 128.183 77.2307C133.358 88.3327 141.755 95.3785 146.937 92.968Z" fill="black"/>
<path opacity="0.1" d="M175.802 80.5217V175.085C175.802 176.159 175.591 177.223 175.179 178.215C174.768 179.207 174.164 180.109 173.404 180.868C172.644 181.627 171.741 182.229 170.748 182.64C169.754 183.051 168.69 183.262 167.614 183.262H26.8496C24.6792 183.261 22.598 182.399 21.0635 180.866C19.5291 179.333 18.6671 177.253 18.6671 175.085V70.9886C22.7007 72.4852 22.7007 72.4852 26.8496 72.3591H167.614C169.783 72.3591 171.863 73.2185 173.398 74.7489C174.933 76.2792 175.798 78.3553 175.802 80.5217Z" fill="black"/>
<path d="M175.802 81.725V176.289C175.802 178.457 174.939 180.537 173.403 182.07C171.868 183.604 169.786 184.465 167.614 184.465H26.8496C24.6792 184.464 22.598 183.603 21.0635 182.069C19.5291 180.536 18.6671 178.457 18.6671 176.289V72.1891C22.7007 73.6829 22.7007 73.6829 26.8496 73.5596H167.614C169.784 73.5596 171.864 74.4194 173.399 75.9503C174.935 77.4813 175.799 79.5581 175.802 81.725Z" fill="#504F60"/>
<path opacity="0.1" d="M175.402 116.686V146.927H146.042C142.062 146.874 138.264 145.257 135.469 142.427C132.674 139.598 131.107 135.782 131.107 131.807C131.107 127.831 132.674 124.016 135.469 121.186C138.264 118.356 142.062 116.74 146.042 116.686H175.402Z" fill="black"/>
<path d="M175.803 115.88V146.127H146.442C142.463 146.074 138.665 144.457 135.87 141.627C133.075 138.797 131.508 134.982 131.508 131.006C131.508 127.031 133.075 123.216 135.87 120.386C138.665 117.556 142.463 115.939 146.442 115.886L175.803 115.88Z" fill="#33323D"/>
<path opacity="0.1" d="M147.85 137.704C151.109 137.704 153.752 135.064 153.752 131.808C153.752 128.552 151.109 125.912 147.85 125.912C144.59 125.912 141.948 128.552 141.948 131.808C141.948 135.064 144.59 137.704 147.85 137.704Z" fill="black"/>
<path d="M148.25 136.904C151.51 136.904 154.153 134.264 154.153 131.008C154.153 127.752 151.51 125.112 148.25 125.112C144.991 125.112 142.348 127.752 142.348 131.008C142.348 134.264 144.991 136.904 148.25 136.904Z" fill="#3C8AFF"/>
<path d="M226.766 115.62C226.999 118.144 225.087 120.595 225.644 123.067C225.764 123.596 225.992 124.095 226.074 124.63C226.305 126.099 225.43 127.488 224.593 128.716L217.404 139.253C217.116 139.716 216.771 140.141 216.377 140.519C215.005 141.741 212.942 141.615 211.136 141.98C209.867 142.237 208.669 142.767 207.624 143.531C207.58 143.569 207.553 143.621 207.547 143.678C207.54 143.735 207.556 143.793 207.591 143.838C207.89 144.244 208.285 144.569 208.741 144.783C209.197 144.997 209.7 145.093 210.203 145.063C210.393 145.313 210.203 145.677 209.929 145.856C209.542 146.13 209.013 146.196 208.936 146.848C208.908 147.076 208.955 147.306 209.067 147.506C209.357 147.949 209.808 148.262 210.324 148.38C212.813 149.139 215.502 147.804 217.365 145.987C219.228 144.17 220.565 141.876 222.392 140.026C223.405 139.003 224.554 138.126 225.597 137.134C227.677 135.155 229.293 132.748 230.854 130.339C231.324 129.613 231.796 128.867 231.993 128.026C232.191 127.184 232.097 126.334 232.32 125.52C232.611 124.451 233.393 123.602 234.043 122.705C235.319 120.951 236.169 118.805 236.002 116.645C235.835 114.485 234.493 112.35 232.451 111.615C231.819 111.362 231.121 111.319 230.462 111.495C229.625 111.752 229.008 112.443 228.437 113.104L227.065 114.68C226.723 115.026 226.453 115.435 226.269 115.886C226.181 116.112 226.161 116.359 226.209 116.596C226.258 116.834 226.374 117.053 226.544 117.226" fill="#FBBEBE"/>
<path opacity="0.05" d="M226.766 115.62C226.999 118.144 225.087 120.595 225.644 123.067C225.764 123.596 225.992 124.095 226.074 124.63C226.305 126.099 225.43 127.488 224.593 128.716L217.404 139.253C217.116 139.716 216.771 140.141 216.377 140.519C215.005 141.741 212.942 141.615 211.136 141.98C209.867 142.237 208.669 142.767 207.624 143.531C207.58 143.569 207.553 143.621 207.547 143.678C207.54 143.735 207.556 143.793 207.591 143.838C207.89 144.244 208.285 144.569 208.741 144.783C209.197 144.997 209.7 145.093 210.203 145.063C210.393 145.313 210.203 145.677 209.929 145.856C209.542 146.13 209.013 146.196 208.936 146.848C208.908 147.076 208.955 147.306 209.067 147.506C209.357 147.949 209.808 148.262 210.324 148.38C212.813 149.139 215.502 147.804 217.365 145.987C219.228 144.17 220.565 141.876 222.392 140.026C223.405 139.003 224.554 138.126 225.597 137.134C227.677 135.155 229.293 132.748 230.854 130.339C231.324 129.613 231.796 128.867 231.993 128.026C232.191 127.184 232.097 126.334 232.32 125.52C232.611 124.451 233.393 123.602 234.043 122.705C235.319 120.951 236.169 118.805 236.002 116.645C235.835 114.485 234.493 112.35 232.451 111.615C231.819 111.362 231.121 111.319 230.462 111.495C229.625 111.752 229.008 112.443 228.437 113.104L227.065 114.68C226.723 115.026 226.453 115.435 226.269 115.886C226.181 116.112 226.161 116.359 226.209 116.596C226.258 116.834 226.374 117.053 226.544 117.226" fill="black"/>
<path d="M232.207 180.609C230.638 181.565 228.681 181.623 226.856 181.401C226.563 181.365 226.214 181.343 226.033 181.571C225.759 181.899 226.083 182.393 226.417 182.648C227.494 183.455 228.758 183.975 230.092 184.158C231.282 184.327 232.484 184.406 233.686 184.397C236.979 184.454 240.272 184.509 243.512 184.037C243.704 184.023 243.891 183.969 244.061 183.878C244.27 183.732 244.415 183.511 244.467 183.262C244.689 182.418 244.261 181.513 243.614 180.926C242.966 180.34 242.135 180.014 241.323 179.699L238.469 178.588C237.799 178.328 236.726 177.637 235.999 177.692C234.633 177.791 233.34 179.945 232.207 180.609Z" fill="#3F3D56"/>
<path opacity="0.05" d="M232.207 180.609C230.638 181.565 228.681 181.623 226.856 181.401C226.563 181.365 226.214 181.343 226.033 181.571C225.759 181.899 226.083 182.393 226.417 182.648C227.494 183.455 228.758 183.975 230.092 184.158C231.282 184.327 232.484 184.406 233.686 184.397C236.979 184.454 240.272 184.509 243.512 184.037C243.704 184.023 243.891 183.969 244.061 183.878C244.27 183.732 244.415 183.511 244.467 183.262C244.689 182.418 244.261 181.513 243.614 180.926C242.966 180.34 242.135 180.014 241.323 179.699L238.469 178.588C237.799 178.328 236.726 177.637 235.999 177.692C234.633 177.791 233.34 179.945 232.207 180.609Z" fill="black"/>
<path d="M234.208 142.767C233.019 144.345 231.79 146.168 232.084 148.122C232.243 149.175 232.833 150.104 233.266 151.077C233.854 152.398 234.161 153.818 234.463 155.233C234.907 157.299 235.354 159.371 235.626 161.471C235.936 163.842 234.479 170.703 234.345 173.09C234.312 173.666 234.243 174.288 233.843 174.702C233.686 174.866 233.478 174.998 233.406 175.212C233.364 175.418 233.399 175.632 233.502 175.815C234.172 177.322 235.541 178.446 237.069 179.087C238.598 179.729 242.283 180.836 243.949 180.894C244.168 180.918 244.39 180.889 244.596 180.809C244.818 180.674 244.992 180.474 245.096 180.236C246.289 177.955 245.142 169.847 245.159 167.274C245.175 165.127 245.683 162.995 245.589 160.852C245.513 159.13 245.041 157.447 244.884 155.731C244.61 152.919 245.126 150.093 245.644 147.314C246.039 145.181 246.437 143.049 246.945 140.944C247.255 139.658 247.614 138.362 248.317 137.246C248.866 136.361 249.637 135.621 250.276 134.779C252.051 132.455 252.839 129.527 252.471 126.628C252.433 126.354 248.355 127.661 247.996 127.817C246.529 128.438 245.18 129.304 244.006 130.38C243.062 131.279 242.319 132.48 241.493 133.486C240.324 134.909 239.17 136.343 238.03 137.786C236.729 139.436 235.455 141.096 234.208 142.767Z" fill="#464353"/>
<path opacity="0.05" d="M234.208 142.671C233.019 144.249 231.79 146.075 232.084 148.027C232.243 149.082 232.833 150.011 233.266 150.984C233.854 152.302 234.161 153.725 234.463 155.137C234.907 157.206 235.354 159.278 235.626 161.375C235.936 163.749 234.479 170.607 234.345 172.994C234.312 173.57 234.243 174.195 233.843 174.609C233.686 174.77 233.478 174.902 233.406 175.116C233.364 175.322 233.398 175.536 233.502 175.719C234.172 177.229 235.541 178.35 237.069 179.008C238.598 179.666 242.283 180.238 243.949 180.293C244.168 180.317 244.39 180.288 244.596 180.208C244.818 180.075 244.993 179.876 245.096 179.638C246.289 177.358 245.142 169.771 245.159 167.194C245.175 165.045 245.683 162.916 245.589 160.769C245.513 159.048 245.041 157.365 244.884 155.652C244.61 152.837 245.126 150.011 245.644 147.232C246.039 145.102 246.437 142.969 246.945 140.862C247.255 139.576 247.614 138.28 248.317 137.164C248.866 136.279 249.637 135.539 250.276 134.697C252.051 132.373 252.84 129.445 252.471 126.545C252.433 126.271 248.355 127.579 247.996 127.735C246.53 128.357 245.18 129.225 244.006 130.301C243.062 131.197 242.319 132.397 241.493 133.403C240.324 134.827 239.17 136.261 238.03 137.707C236.729 139.344 235.455 140.999 234.208 142.671Z" fill="black"/>
<path d="M220.987 107.995C224.665 107.995 227.647 105.016 227.647 101.342C227.647 97.6682 224.665 94.6898 220.987 94.6898C217.309 94.6898 214.328 97.6682 214.328 101.342C214.328 105.016 217.309 107.995 220.987 107.995Z" fill="#FBBEBE"/>
<path d="M226.985 101.063C227.601 102.043 228.407 102.889 229.357 103.552C230.307 104.214 231.381 104.678 232.514 104.916L232.012 106.739C231.145 109.869 230.171 113.18 227.751 115.351C228.025 114.291 227.674 113.159 227.076 112.238C226.478 111.317 225.638 110.593 224.815 109.878L220.982 106.561C220.871 106.471 220.778 106.361 220.707 106.238C220.613 106.004 220.613 105.742 220.707 105.508C221.196 103.99 222.59 103.042 223.726 102.016C224.296 101.486 224.805 100.894 225.243 100.251C226.009 99.1603 226.483 100.257 226.985 101.063Z" fill="#FBBEBE"/>
<path d="M212.215 94.6542L212.064 93.4043C213.115 93.6784 214.114 92.7848 214.786 91.8611C215.458 90.9374 216.081 89.8493 217.104 89.4628C218.347 88.9968 219.665 89.7369 220.853 90.3618C222.183 91.0991 223.643 91.5737 225.152 91.7597C225.393 91.7677 225.632 91.8064 225.863 91.8748C226.637 92.1489 227.005 93.1192 227.117 93.9991C227.23 94.8789 227.199 95.8136 227.581 96.5975C227.855 97.1923 228.366 97.6336 228.678 98.2202C229.502 99.7935 228.706 101.945 229.565 103.488L227.43 101.534C227.235 101.356 226.961 101.169 226.744 101.32C226.574 101.441 226.56 101.701 226.492 101.91C226.286 102.518 225.523 102.699 224.971 102.458C224.42 102.217 224.016 101.693 223.599 101.216C222.655 100.103 221.53 99.1247 220.213 98.6505C219.636 98.4349 219.019 98.3444 218.404 98.3851C217.789 98.4257 217.19 98.5966 216.646 98.8863C215.65 99.4482 214.92 100.758 213.699 100.805C212.025 100.868 211.328 97.7542 210.555 96.5235C210.838 96.3107 211.037 96.0051 211.117 95.6603C211.198 95.3156 211.154 94.9535 210.994 94.6377C211.106 94.5911 212.19 94.4623 212.215 94.6542Z" fill="#464353"/>
<path d="M129.844 55.7625C129.309 56.2379 128.814 56.7568 128.365 57.3139C127.913 57.8787 127.672 58.5834 127.684 59.3065C127.687 59.5163 127.754 59.7201 127.876 59.8904C127.939 59.9719 128.026 60.0318 128.124 60.0617C128.222 60.0917 128.328 60.0903 128.425 60.0576C128.536 60.0014 128.63 59.9185 128.7 59.8164C128.99 59.4682 129.297 59.1352 129.622 58.8187C129.74 58.7008 129.896 58.5774 130.055 58.6213C130.127 58.6466 130.191 58.6889 130.242 58.7446C130.426 58.9041 130.561 59.1135 130.629 59.3477C130.725 59.767 130.481 60.1864 130.203 60.5153C129.926 60.8442 129.6 61.1594 129.487 61.5733C129.445 61.6826 129.445 61.8039 129.487 61.9132C129.54 61.9923 129.614 62.055 129.701 62.0941C130.094 62.3102 130.53 62.4375 130.977 62.4668C131.425 62.4962 131.874 62.427 132.292 62.2641C132.84 62.042 133.329 61.661 133.894 61.4637C134.139 61.3968 134.376 61.3049 134.602 61.1896C134.764 61.0821 134.902 60.9437 135.01 60.7823C135.118 60.6209 135.193 60.4398 135.23 60.2494C135.302 59.869 135.316 59.48 135.271 59.0955C135.203 57.6065 134.884 56.1396 134.328 54.7565C134.295 54.6673 134.24 54.588 134.168 54.5263C134.086 54.476 133.991 54.4503 133.894 54.4523C133.192 54.3783 132.039 54.0192 131.361 54.2796C131.124 54.4094 130.92 54.5912 130.763 54.8113C130.637 54.9511 129.844 55.5788 129.844 55.7625Z" fill="#A1616A"/>
<path d="M129.622 55.143C129.622 54.4742 128.799 52.8597 130.107 52.7528C130.107 52.0374 129.095 51.5934 129.284 50.8341C129.345 50.582 129.559 50.3764 129.583 50.1187C129.666 49.3869 128.343 48.9895 128.563 48.2878C128.645 48.0137 128.936 47.8547 128.999 47.5833C129.147 46.9502 128.014 46.6679 127.992 46.0182C127.992 45.799 128.115 45.5934 128.104 45.3741C128.104 45.1 127.866 44.8917 127.734 44.6532C127.391 44.042 127.558 43.0964 126.933 42.7812C127.347 42.8168 127.481 42.2028 127.311 41.8273C127.141 41.4518 126.793 41.1256 126.79 40.709C126.811 40.558 126.811 40.4049 126.79 40.254C126.675 39.8538 126.019 39.8209 125.909 39.4317C125.895 39.2823 125.89 39.1321 125.895 38.9822C125.852 38.6724 125.533 38.4751 125.234 38.3874C124.923 38.3347 124.624 38.228 124.351 38.0722C124.158 37.9269 123.936 37.6857 123.73 37.7981C123.654 37.8447 123.615 37.9324 123.558 37.9981C123.311 38.2859 122.839 38.1599 122.529 37.9488C121.612 37.3266 121.157 36.211 120.962 35.1229C120.767 34.0347 120.772 32.9109 120.528 31.8337C120.454 31.498 120.355 31.1682 120.232 30.8469C120.128 30.5728 119.793 30.1425 119.771 29.8657C119.722 29.2352 121.028 29.6656 121.524 29.7286C122.006 29.7757 122.483 29.8674 122.948 30.0027C123.445 30.1901 123.931 30.4033 124.405 30.6414C126.387 31.5157 128.779 31.6226 130.371 33.0918C130.895 33.5742 131.337 34.2074 132.017 34.4267C132.329 34.4864 132.637 34.5661 132.939 34.6651C133.694 35.0187 133.812 36.0192 134.223 36.7428C134.353 36.9339 134.466 37.1356 134.561 37.3458C134.64 37.5937 134.677 37.8531 134.671 38.1133L134.728 40.0128C134.822 43.195 134.915 46.3855 134.575 49.5486C134.465 50.5929 134.3 51.6674 134.61 52.6706C134.693 52.9447 134.808 53.2023 134.885 53.4792C134.952 53.8038 134.987 54.1344 134.989 54.4659L135.033 55.6966C135.048 55.7923 135.026 55.8903 134.972 55.9707C134.927 56.0079 134.873 56.0344 134.815 56.0481C134.758 56.0619 134.698 56.0626 134.64 56.0502C132.925 55.8967 131.191 54.9319 129.572 55.5157" fill="#464353"/>
<path d="M207.885 149.707C219.093 149.707 228.179 148.395 228.179 146.777C228.179 145.158 219.093 143.846 207.885 143.846C196.677 143.846 187.59 145.158 187.59 146.777C187.59 148.395 196.677 149.707 207.885 149.707Z" fill="#504F60"/>
<path d="M225.345 146.919C224.988 145.392 224.766 144.052 224.766 144.052C224.766 144.052 224.848 142.391 224.101 141.144V140.727V137.657C224.314 137.1 224.574 136.562 224.878 136.048C225.427 135.084 224.878 131.548 224.878 131.548C224.878 131.548 222.828 126.562 223.325 123.399C223.822 120.236 219.116 109.354 219.116 109.354C219.145 108.305 219.293 107.262 219.557 106.246C219.608 106.032 219.628 105.813 219.618 105.593C219.618 105.566 219.618 105.541 219.618 105.514C219.618 105.487 219.618 105.53 219.618 105.539C219.547 103.453 217.895 99.5441 217.895 99.5441L218.117 92.0941C218.117 92.0941 219.171 87.7085 217.453 81.8017C216.852 79.7433 216.468 78.0959 216.224 76.8241C216.196 76.6816 216.169 76.55 216.147 76.4102C219.684 75.862 222.387 75.4235 222.387 75.4235C222.387 75.4235 220.334 66.847 218.948 65.3449C217.563 63.8429 216.454 59.1256 216.454 59.1256C216.454 59.1256 215.732 53.0708 216.899 51.3001C218.065 49.5295 218.229 46.476 218.229 46.476C218.229 46.476 220.888 44.5573 221.223 43.6884C221.558 42.8196 222.109 40.9009 222.109 39.884C222.109 38.8671 221.777 37.9653 221.887 37.4171C221.997 36.8689 221.111 34.8433 221.555 33.8785C221.67 33.5821 221.73 33.2672 221.731 32.9493C221.732 32.9402 221.732 32.931 221.731 32.9219C221.735 32.0776 221.657 31.2349 221.497 30.4057C220.728 29.7569 219.831 29.2777 218.863 28.9995L218.806 28.7693L218.655 28.1663C218.571 28.1107 218.484 28.0594 218.394 28.0128V27.7935L218.369 26.9219L218.786 24.9648C219.61 21.5605 215.057 21.0534 215.057 21.0534C214.781 20.5313 214.322 20.1292 213.768 19.9242C212.854 19.6035 213.617 25.0443 214.042 25.4061C214.363 25.6802 215.357 27.3741 215.837 28.2129L215.914 28.3499C215.838 28.4174 215.769 28.4908 215.705 28.5692L215.878 29.7506L215.905 29.9315C215.604 30.3057 215.359 30.7222 215.178 31.1677C215.178 31.1677 216.001 32.0777 215.845 33.0863C215.689 34.095 216.1 35.3751 216.119 35.4436C216.07 35.386 215.485 34.7556 214.901 34.9091C214.317 35.0626 212.684 35.5532 212.684 35.5532C212.684 35.5532 211.466 35.767 211.586 36.0356C211.707 36.3042 210.763 37.4829 210.763 37.4829L207.487 34.3801C207.454 34.2869 207.418 34.1937 207.391 34.106C207.257 33.6586 207.165 33.1998 207.116 32.7355C207.473 32.6507 207.824 32.5399 208.165 32.4038C208.509 32.2858 208.82 32.0864 209.07 31.8228C209.402 31.4308 209.465 30.899 209.6 30.4111C209.858 29.4573 210.423 28.6103 210.815 27.7031C211.48 26.17 211.694 24.4797 211.433 22.8296C211.382 22.3211 211.21 21.8322 210.931 21.4043C210.395 20.6697 209.424 20.3709 208.719 19.7844C208.014 19.1978 207.558 18.3015 206.735 17.8657C205.991 17.4683 205.089 17.5148 204.249 17.6519C202.609 17.922 201.034 18.4946 199.603 19.3403C199.126 19.6144 198.599 19.9516 198.05 19.8502C197.578 19.7652 197.227 19.3897 196.931 19.0279C196.934 19.0129 196.939 18.9982 196.945 18.984C196.931 18.9707 196.919 18.956 196.909 18.9402C196.562 19.7099 196.387 20.5464 196.399 21.3906C196.399 21.5222 196.399 21.6647 196.415 21.7825V21.9196C196.415 21.958 196.415 21.9963 196.415 22.032C196.415 22.0904 196.407 22.1485 196.39 22.2047C196.321 22.3723 196.216 22.5229 196.083 22.646C195.982 22.7602 195.891 22.8821 195.809 23.0105C195.809 22.9667 195.836 22.9228 195.852 22.8762C195.643 23.1814 195.525 23.5398 195.512 23.9096C195.497 24.1787 195.585 24.4435 195.759 24.6496C195.923 24.809 196.103 24.9522 196.294 25.0772C196.229 25.439 196.196 25.8059 196.195 26.1736C196.202 27.2635 196.489 28.3335 197.031 29.2799C197.572 30.2263 198.348 31.0172 199.285 31.5761C199.324 31.6665 199.359 31.7597 199.395 31.8502C199.815 32.9466 200.13 34.2348 199.99 35.4134C199.99 35.4984 199.966 35.5861 199.952 35.6711C199.938 35.7561 199.87 35.7615 199.834 35.8081C199.834 35.8081 194.42 35.863 193.147 34.7117C191.874 33.5605 189.931 37.5267 189.931 37.5267C189.931 37.5267 187.991 37.9022 187.601 37.5267C187.212 37.1512 184.943 37.4746 184.943 37.4746C184.013 36.6487 182.803 36.2077 181.559 36.2412C180.806 35.6691 179.974 35.2076 179.09 34.8707L179.029 34.8488C178.639 34.7067 178.222 34.6542 177.808 34.6953C177.808 34.6953 175.147 32.5025 174.37 31.3184C173.594 30.1343 169.897 25.7624 169.881 25.7433V25.5322L169.84 24.8963C169.73 24.9135 169.619 24.9227 169.508 24.9237C169.489 24.8607 169.461 24.7867 169.434 24.7017C169.221 24.0814 168.958 23.4792 168.649 22.9009C168.649 22.9009 168.649 22.0978 168.882 21.8949C169.115 21.6921 168.786 18.7455 168.786 18.7455C168.786 18.7455 166.388 13.1457 164.239 17.3257C164.239 17.3257 160.178 20.0311 163.586 23.1832C163.586 23.1832 164.958 23.841 165.139 24.3618C165.266 24.699 165.727 25.6446 166.037 26.2805L166.177 26.5546L166.138 26.5875L166.188 27.1138L166.21 27.3166C165.567 27.6811 165.131 28.0429 165.238 28.3143C165.427 28.7787 165.557 29.2649 165.625 29.7615C165.625 29.7615 170.339 35.6601 170.948 38.1791C170.948 38.1791 183.59 45.6839 187.747 46.2184L187.011 49.9598C186.904 50.975 186.849 51.9951 186.847 53.016C186.902 53.8191 186.347 57.4646 186.347 57.4646C186.347 57.4646 185.626 62.826 185.017 63.577C184.407 64.328 184.517 67.5432 184.517 67.5432C184.373 69.0823 184.098 70.6064 183.694 72.0987C183.085 74.1352 183.527 76.6569 183.527 76.6569C183.527 76.6569 181.422 81.481 186.465 78.2111C186.465 78.2111 188.935 78.0576 191.794 77.9589C191.794 78.0521 191.794 78.148 191.794 78.233C191.794 78.6003 191.794 78.9977 191.775 79.4143C191.737 82.1773 191.72 85.9927 191.846 88.8652C192.069 93.958 193.622 104.037 193.622 104.037V109.11C193.521 109.586 193.472 110.071 193.473 110.557C193.441 112.342 193.916 114.1 194.845 115.625L195.235 119.002C195.235 119.002 196.146 121.228 196.163 122.566C196.159 122.673 196.146 122.781 196.124 122.886C196.089 123.057 196.074 123.23 196.08 123.404C196.028 124.939 196.953 128.612 196.953 128.612C196.953 128.612 197.008 132.31 197.562 132.526C198.037 132.71 196.928 134.656 196.599 135.215C196.59 135.181 196.584 135.146 196.58 135.111L196.511 135.221C196.397 135.52 196.338 135.838 196.338 136.158C196.307 136.411 196.348 136.667 196.457 136.897C196.566 137.127 196.738 137.321 196.953 137.457C198.006 138.101 198.572 138.636 197.677 138.85C197.348 138.901 197.022 138.969 196.7 139.055C196.7 139.014 196.667 138.97 196.654 138.932C196.528 138.981 196.422 139.072 196.356 139.19C196.289 139.308 196.266 139.445 196.289 139.579C196.297 140.014 196.409 140.44 196.615 140.823C197.502 142.808 198.116 143.564 198.116 143.564L198.542 143.518C198.479 143.68 198.396 143.834 198.295 143.975C198.133 144.205 197.918 144.393 197.669 144.524C197.437 144.662 197.178 144.751 196.909 144.784C196.608 144.794 196.313 144.867 196.043 144.998C195.772 145.129 195.533 145.316 195.339 145.546C194.791 146.261 194.439 147.234 195.531 148.09L199.496 149.46C199.496 149.46 206.318 150.345 205.956 148.816C205.594 147.286 205.374 145.949 205.374 145.949C205.403 145.015 205.215 144.087 204.825 143.238C204.754 143.099 204.673 142.966 204.584 142.838L204.825 142.813C204.825 142.813 205.325 139.434 205.989 138.792C206.142 138.644 206.178 138.518 206.142 138.441C206.211 138.258 206.035 138.151 205.813 138.088L205.764 138.222C205.546 138.175 205.325 138.15 205.102 138.148C205.102 138.148 204.88 136.38 205.602 135.736C205.66 135.663 205.702 135.578 205.727 135.487C205.751 135.397 205.756 135.302 205.742 135.21C205.747 134.967 205.721 134.725 205.665 134.489C205.658 134.504 205.649 134.519 205.64 134.533C205.278 132.926 204.049 130.375 204.049 130.375C204.049 130.375 203.994 128.768 204.438 128.124C204.883 127.48 204.381 119.386 204.381 119.386C204.381 119.386 204.548 115.475 204.049 113.652C203.549 111.829 204.658 109.683 204.658 109.683C204.658 109.683 204.658 109.642 204.658 109.568V109.54L204.595 108.924C204.593 108.936 204.593 108.949 204.595 108.962C204.482 107.926 204.271 106.048 204.115 105.182C203.892 103.949 204.172 98.0557 204.172 98.0557L205.168 95.534L206.944 99.8785L208.829 105.667C208.829 105.667 209.762 106.89 209.784 108.134C209.784 108.195 209.784 108.255 209.784 108.315C209.768 108.443 209.761 108.573 209.762 108.702C209.728 109.433 209.929 110.156 210.335 110.766C210.335 110.766 210.834 113.507 211.611 114.195C212.388 114.883 212.388 116.231 212.388 116.231C212.388 116.231 213.329 120.2 213.76 120.891C214.133 121.477 214.152 123.084 214.149 123.585C214.149 123.676 214.149 123.728 214.149 123.728C214.149 123.728 214.281 125.148 214.275 126.337C214.275 126.485 214.275 126.628 214.275 126.762C214.277 126.752 214.277 126.742 214.275 126.732C214.275 127.057 214.236 127.381 214.16 127.697L214.144 127.751C214.144 127.683 214.144 127.617 214.163 127.551C213.97 128.359 213.878 129.188 213.889 130.018C213.864 131.444 214.081 133.132 214.945 134.13C216.443 135.846 217.384 135.632 217.384 135.632C217.384 135.632 216.665 137.775 215.776 138.206C215.743 138.221 215.711 138.242 215.683 138.266C215.683 138.222 215.667 138.181 215.661 138.14C215.562 138.247 215.486 138.373 215.439 138.511C215.392 138.649 215.374 138.795 215.387 138.94C215.324 139.883 215.919 141.407 216.484 142.117C216.694 142.322 216.951 142.473 217.233 142.556C217.189 142.587 217.142 142.615 217.093 142.64C216.995 142.695 216.893 142.743 216.789 142.786C216.645 142.847 216.492 142.887 216.336 142.904C216.035 142.912 215.74 142.984 215.469 143.115C215.198 143.247 214.959 143.434 214.767 143.666C214.218 144.378 213.867 145.351 214.959 146.206L218.924 147.577C218.924 147.577 225.701 148.446 225.345 146.919Z" fill="url(#paint0_linear)"/>
<path d="M199.302 149.452L195.46 148.081C194.401 147.226 194.738 146.253 195.274 145.538C195.458 145.31 195.689 145.123 195.951 144.992C196.213 144.861 196.501 144.787 196.794 144.776C197.054 144.743 197.304 144.654 197.526 144.515C197.77 144.383 197.979 144.195 198.136 143.967C198.416 143.523 198.567 143.009 198.572 142.484C198.572 142.484 202.787 141.251 203.939 142.484C204.145 142.708 204.317 142.96 204.449 143.233C204.832 144.084 205.02 145.01 204.998 145.943C204.998 145.943 205.212 147.281 205.561 148.81C205.909 150.34 199.302 149.452 199.302 149.452Z" fill="#2D293D"/>
<path d="M218.081 147.56L214.24 146.19C213.181 145.335 213.518 144.362 214.053 143.649C214.236 143.42 214.466 143.233 214.728 143.102C214.99 142.97 215.278 142.897 215.571 142.887C215.722 142.872 215.871 142.832 216.01 142.769C216.111 142.726 216.21 142.678 216.306 142.624C217.379 142.035 217.351 140.587 217.351 140.587C217.351 140.587 221.563 139.354 222.719 140.587C222.873 140.755 223.008 140.938 223.122 141.136C223.844 142.383 223.764 144.047 223.764 144.047C223.764 144.047 223.978 145.387 224.313 146.914C224.648 148.44 218.081 147.56 218.081 147.56Z" fill="#2D293D"/>
<path opacity="0.1" d="M203.942 142.481C204.147 142.705 204.319 142.957 204.452 143.23L198.141 143.962C198.421 143.517 198.572 143.004 198.577 142.479C198.577 142.479 202.789 141.248 203.942 142.481Z" fill="black"/>
<path opacity="0.1" d="M223.127 141.141V142.322C222.145 143.937 217.395 143.583 216.015 142.775C216.117 142.732 216.216 142.683 216.311 142.629C217.384 142.04 217.357 140.593 217.357 140.593C217.357 140.593 221.569 139.359 222.724 140.593C222.879 140.76 223.014 140.944 223.127 141.141Z" fill="black"/>
<path d="M223.877 136.048C223.583 136.563 223.332 137.101 223.127 137.657V141.892C222.052 143.66 216.473 143.071 215.719 142.106C214.964 141.141 214.177 138.63 215.025 138.195C215.872 137.759 216.58 135.621 216.58 135.621C216.58 135.621 215.667 135.835 214.218 134.119C212.769 132.403 213.2 128.598 213.469 127.688C213.738 126.778 213.469 123.722 213.469 123.722C213.469 123.722 213.524 121.576 213.096 120.88C212.667 120.184 211.754 116.22 211.754 116.22C211.754 116.22 211.754 114.88 211.002 114.184C210.25 113.487 209.767 110.752 209.767 110.752C209.328 110.068 209.138 109.254 209.232 108.447C209.391 107.106 208.318 105.659 208.318 105.659L206.494 99.8675L204.776 95.5258L203.81 98.0448C203.81 98.0448 203.536 103.941 203.758 105.171C203.98 106.402 204.307 109.675 204.307 109.675C204.307 109.675 203.234 111.818 203.717 113.641C204.2 115.464 204.024 119.381 204.024 119.381C204.024 119.381 204.507 127.472 204.076 128.116C203.645 128.76 203.7 130.369 203.7 130.369C203.7 130.369 205.895 135.084 205.204 135.728C204.512 136.372 204.721 138.14 204.721 138.14C204.721 138.14 206.222 138.14 205.58 138.784C204.938 139.428 204.452 142.805 204.452 142.805L197.963 143.564C197.963 143.564 197.37 142.816 196.511 140.823C195.652 138.831 196.67 139.055 197.535 138.839C198.399 138.622 197.853 138.09 196.832 137.446C195.811 136.802 196.404 135.355 196.404 135.355C196.404 135.355 197.96 132.729 197.422 132.515C196.884 132.302 196.832 128.601 196.832 128.601C196.832 128.601 195.759 124.216 196.028 123.026C196.297 121.836 195.169 119.008 195.169 119.008L194.793 115.631C193.645 113.715 193.226 111.449 193.613 109.25V104.042C193.613 104.042 192.11 93.9662 191.896 88.8735C191.759 85.6117 191.797 81.1604 191.841 78.3838C191.868 76.8269 191.896 75.7935 191.896 75.7935L215.077 73.3815C215.077 73.3815 215.055 74.4504 215.496 76.8214C215.735 78.0932 216.106 79.7405 216.687 81.799C218.35 87.6948 217.332 92.0886 217.332 92.0886L217.115 99.5414C217.115 99.5414 219.154 104.524 218.726 106.24C218.467 107.259 218.322 108.303 218.293 109.354C218.293 109.354 222.853 120.236 222.37 123.399C221.887 126.562 223.871 131.548 223.871 131.548C223.871 131.548 224.414 135.084 223.877 136.048Z" fill="#464353"/>
<path opacity="0.05" d="M210.623 108.123L217.681 107.183C217.681 107.183 213.683 111.259 210.623 108.123Z" fill="black"/>
<path opacity="0.1" d="M216.66 100.295C216.66 100.295 216.901 102.789 215.373 103.727C215.373 103.727 218.109 103.299 216.66 100.295Z" fill="black"/>
<path opacity="0.1" d="M216.226 92.3627C216.226 92.3627 210.327 97.2143 208.181 96.8114C206.035 96.4084 216.226 92.3627 216.226 92.3627Z" fill="black"/>
<path opacity="0.1" d="M201.875 110.398C201.875 110.398 197.395 111.415 197.26 113.213C197.126 115.011 201.875 110.398 201.875 110.398Z" fill="black"/>
<path opacity="0.05" d="M202.861 132.754C202.861 132.754 196.53 133.932 198.328 134.735C200.125 135.539 203.077 136.183 203.077 136.183C203.077 136.183 205.122 136.29 202.861 132.754Z" fill="black"/>
<g opacity="0.05">
<path opacity="0.05" d="M197.049 136.013C196.89 135.913 196.755 135.78 196.655 135.621C196.555 135.463 196.491 135.284 196.47 135.097L196.404 135.21C196.404 135.21 195.814 136.657 196.835 137.298C196.95 137.372 197.063 137.446 197.164 137.518C197.353 137.482 197.557 137.454 197.751 137.405C198.616 137.191 198.07 136.657 197.049 136.013Z" fill="black"/>
<path opacity="0.05" d="M205.204 135.582C205.379 135.423 205.374 135.012 205.267 134.486C204.993 134.9 204.913 135.547 204.908 136.037C204.974 135.867 205.075 135.712 205.204 135.582Z" fill="black"/>
<path opacity="0.05" d="M204.23 108.915C203.997 109.549 203.853 110.213 203.802 110.886C203.924 110.421 204.089 109.968 204.293 109.532L204.23 108.915Z" fill="black"/>
<path opacity="0.05" d="M218.729 106.103C218.771 105.911 218.79 105.714 218.786 105.517C218.707 105.917 218.652 106.287 218.611 106.613C218.647 106.446 218.685 106.287 218.729 106.103Z" fill="black"/>
<path opacity="0.05" d="M204.079 127.973C204.167 127.842 204.216 127.398 204.238 126.781C204.039 127.258 203.934 127.769 203.928 128.286C203.965 128.176 204.016 128.071 204.079 127.973Z" fill="black"/>
<path opacity="0.05" d="M205.396 138.082C205.063 139.157 204.816 140.257 204.658 141.371L198.168 142.12C198.168 142.12 197.576 141.371 196.717 139.379C196.648 139.225 196.586 139.067 196.533 138.907C196.143 139.085 195.984 139.488 196.5 140.664C197.359 142.649 197.954 143.405 197.954 143.405L204.444 142.654C204.444 142.654 204.927 139.277 205.569 138.633C205.898 138.323 205.695 138.162 205.396 138.082Z" fill="black"/>
<path opacity="0.05" d="M196.835 128.456C196.835 128.456 196.887 132.153 197.425 132.367C197.699 131.756 197.878 131.175 197.636 131.079C197.087 130.865 197.046 127.165 197.046 127.165C197.046 127.165 195.973 122.779 196.242 121.59C196.511 120.4 195.383 117.571 195.383 117.571L195.007 114.195C193.859 112.278 193.44 110.013 193.827 107.814V102.606C193.827 102.606 192.324 92.5299 192.11 87.4372C191.973 84.1754 192.011 79.724 192.055 76.9474C192.055 76.4458 192.071 76.0018 192.08 75.6263L191.896 75.6455C191.896 75.6455 191.866 76.6761 191.841 78.2357C191.797 81.0123 191.756 85.4636 191.896 88.7227C192.11 93.8154 193.611 103.894 193.611 103.894V109.102C193.226 111.301 193.645 113.565 194.793 115.48L195.167 118.857C195.167 118.857 196.294 121.697 196.025 122.878C195.756 124.059 196.835 128.456 196.835 128.456Z" fill="black"/>
<path opacity="0.05" d="M215.938 140.675C215.411 139.913 215.06 139.043 214.909 138.129C214.248 138.726 215.008 141.045 215.732 141.966C216.482 142.931 222.063 143.52 223.141 141.75V140.73C221.679 142.163 216.646 141.588 215.938 140.675Z" fill="black"/>
<path opacity="0.05" d="M224.093 134.618C223.799 135.132 223.548 135.671 223.341 136.227V136.986C223.465 136.712 223.638 136.344 223.89 135.911C224.06 135.489 224.14 135.037 224.126 134.582C224.126 134.582 224.102 134.607 224.093 134.618Z" fill="black"/>
<path opacity="0.05" d="M216.268 135.465C216.472 135.052 216.649 134.626 216.797 134.19C216.797 134.19 215.883 134.404 214.435 132.688C213.381 131.441 213.321 129.084 213.471 127.543C213.197 128.456 212.772 132.26 214.221 133.976C215.167 135.097 215.883 135.393 216.268 135.465Z" fill="black"/>
<path opacity="0.05" d="M213.469 123.577C213.563 124.633 213.599 125.694 213.576 126.754C213.603 126.586 213.639 126.421 213.685 126.258C213.96 125.345 213.685 122.291 213.685 122.291C213.685 122.291 213.74 120.145 213.31 119.449C212.879 118.753 211.981 114.784 211.981 114.784C211.981 114.784 211.981 113.444 211.23 112.747C210.478 112.051 209.995 109.316 209.995 109.316C209.551 108.633 209.357 107.819 209.446 107.01C209.608 105.67 208.535 104.223 208.535 104.223L206.71 98.434L204.993 94.0923L204.024 96.614C204.024 96.614 204.024 96.9319 203.991 97.4362L204.776 95.3887L206.494 99.7222L208.318 105.511C208.318 105.511 209.391 106.958 209.229 108.299C209.141 109.107 209.335 109.922 209.778 110.604C209.778 110.604 210.261 113.345 211.013 114.036C211.765 114.726 211.762 116.072 211.762 116.072C211.762 116.072 212.676 120.038 213.104 120.732C213.532 121.425 213.469 123.577 213.469 123.577Z" fill="black"/>
</g>
<path d="M217.974 24.9566L217.571 26.9137L217.596 27.7853L217.612 28.4267L215.373 28.6569L215.123 28.1937C214.66 27.355 213.696 25.6501 213.386 25.387C212.972 25.0416 212.234 19.598 213.112 19.9214C213.653 20.13 214.096 20.5314 214.358 21.048C214.358 21.048 218.767 21.5523 217.974 24.9566Z" fill="#FFCDD3"/>
<path opacity="0.1" d="M217.612 28.4267L215.373 28.6569L215.123 28.1937C215.424 27.8512 215.835 27.6236 216.285 27.5496C216.736 27.4757 217.198 27.5599 217.593 27.788L217.612 28.4267Z" fill="black"/>
<path d="M218.177 29.4874L215.225 30.1699L215.162 29.7314L214.994 28.55C214.994 28.55 216.163 26.9931 217.854 28.1608L218.002 28.7611L218.177 29.4874Z" fill="#3C8AFF"/>
<path d="M170.35 25.1704L167.197 26.8588L166.923 26.2668C166.624 25.6391 166.177 24.6935 166.053 24.3481C165.867 23.8273 164.552 23.1695 164.552 23.1695C161.259 20.0201 165.183 17.312 165.183 17.312C167.263 13.132 169.574 18.7318 169.574 18.7318C169.574 18.7318 169.897 21.6839 169.67 21.8812C169.442 22.0786 169.442 22.8872 169.442 22.8872C169.742 23.4665 169.997 24.0686 170.202 24.688C170.298 24.9868 170.35 25.1704 170.35 25.1704Z" fill="#FFCDD3"/>
<path opacity="0.1" d="M170.35 25.1704L167.197 26.8588L166.923 26.2668C167.367 25.894 168.945 24.6222 169.464 24.6743C169.711 24.7051 169.961 24.7115 170.21 24.6934C170.298 24.9867 170.35 25.1704 170.35 25.1704Z" fill="black"/>
<path d="M170.671 26.1215L167.129 27.8648L167.057 27.1055L167.008 26.5793C167.008 26.5793 169.061 24.8223 169.667 24.8908C169.974 24.9352 170.285 24.9352 170.592 24.8908L170.633 25.5267L170.671 26.1215Z" fill="#3C8AFF"/>
<path d="M209.388 37.9571C209.388 37.9571 193.945 39.6976 196.832 38.7602C198.841 38.1051 199.639 36.8415 199.807 35.4162C199.944 34.2293 199.636 32.9493 199.233 31.8529C198.87 30.8803 198.41 29.9464 197.861 29.0653C197.861 29.0653 209.66 22.5802 207.303 28.476C206.94 29.3678 206.714 30.3096 206.634 31.2691C206.563 32.2226 206.666 33.1811 206.938 34.0978C207.383 35.5852 208.231 36.9208 209.388 37.9571Z" fill="#FFCDD3"/>
<path opacity="0.1" d="M207.295 28.4678C206.931 29.3595 206.706 30.3013 206.625 31.2608C205.514 32.1955 204.296 32.1325 202.729 32.1325C201.527 32.1325 200.193 32.423 199.233 31.8447C198.87 30.872 198.41 29.9382 197.861 29.0571C197.861 29.0571 209.657 22.5719 207.295 28.4678Z" fill="black"/>
<path d="M202.52 32.5436C206.047 32.5436 208.906 29.688 208.906 26.1654C208.906 22.6428 206.047 19.7871 202.52 19.7871C198.994 19.7871 196.135 22.6428 196.135 26.1654C196.135 29.688 198.994 32.5436 202.52 32.5436Z" fill="#FFCDD3"/>
<path opacity="0.1" d="M209.388 37.9571C209.388 37.9571 193.945 39.6976 196.832 38.7602C198.841 38.1051 199.639 36.8415 199.807 35.4162C200.575 34.5939 202.12 33.9826 203.099 33.6647C204.005 33.3605 204.983 33.3442 205.898 33.6181C206.258 33.7264 206.601 33.8851 206.916 34.0895C207.366 35.5824 208.222 36.9213 209.388 37.9571Z" fill="black"/>
<path opacity="0.1" d="M218.177 29.4874L215.225 30.1699L215.162 29.7314C215.478 29.2976 215.92 28.9717 216.428 28.7981C216.936 28.6244 217.486 28.6115 218.002 28.761L218.177 29.4874Z" fill="black"/>
<path opacity="0.1" d="M170.671 26.1215L167.129 27.8648L167.057 27.1055C168.205 26.4893 169.397 25.9606 170.625 25.524L170.671 26.1215Z" fill="black"/>
<path opacity="0.1" d="M215.496 76.8269C209.512 77.7807 201.006 78.9977 199.656 78.5866C198.533 78.2467 194.955 78.2823 191.841 78.3892C191.868 76.8323 191.896 75.799 191.896 75.799L215.077 73.3869C215.077 73.3869 215.055 74.4559 215.496 76.8269Z" fill="black"/>
<path d="M221.462 75.4235C221.462 75.4235 201.769 78.8003 199.656 78.1644C197.543 77.5285 186.69 78.2165 186.69 78.2165C181.806 81.4865 183.845 76.6624 183.845 76.6624C183.845 76.6624 183.417 74.1434 184.007 72.1069C184.403 70.6116 184.674 69.086 184.816 67.5459C184.816 67.5459 184.709 64.328 185.299 63.577C185.889 62.8259 186.589 57.4673 186.589 57.4673C186.589 57.4673 187.124 53.8218 187.072 53.0187C187.02 52.2156 187.231 49.9625 187.231 49.9625L187.931 46.2101C183.905 45.6756 171.67 38.1708 171.67 38.1708C171.08 35.6519 166.52 29.756 166.52 29.756C166.453 29.2602 166.327 28.7743 166.144 28.3088C165.823 27.4509 170.652 25.735 170.652 25.735C170.652 25.735 174.247 30.1206 174.998 31.3102C175.75 32.4998 178.324 34.687 178.324 34.687C178.724 34.646 179.128 34.6985 179.504 34.8405L179.567 34.8597C180.43 35.198 181.238 35.6596 181.968 36.2302C183.178 36.2016 184.352 36.6438 185.242 37.4637C185.242 37.4637 187.437 37.1402 187.818 37.5157C188.2 37.8913 190.071 37.5157 190.071 37.5157C190.071 37.5157 191.948 33.5495 193.183 34.7008C194.417 35.852 199.656 35.7971 199.656 35.7971C200.353 34.8707 202.051 34.2074 203.113 33.8785C204.019 33.5755 204.996 33.5592 205.912 33.8319C206.307 33.9496 206.678 34.1351 207.009 34.3801L210.195 37.4883C210.195 37.4883 211.106 36.307 210.999 36.0411C210.892 35.7752 212.072 35.5587 212.072 35.5587C212.072 35.5587 213.628 35.0763 214.218 34.9146C214.808 34.7528 215.348 35.3915 215.398 35.449C215.379 35.3805 214.975 34.0786 215.123 33.0918C215.272 32.1051 214.479 31.1731 214.479 31.1731C216.355 26.5628 220.595 30.4221 220.595 30.4221C220.595 30.4221 221.078 32.941 220.65 33.9059C220.222 34.8707 221.078 36.9072 220.971 37.4445C220.864 37.9817 221.187 38.8917 221.187 39.9114C221.187 40.931 220.639 42.8579 220.329 43.7158C220.019 44.5738 217.431 46.5034 217.431 46.5034C217.431 46.5034 217.269 49.5596 216.141 51.3275C215.014 53.0955 215.722 59.1421 215.722 59.1421C215.722 59.1421 216.794 63.8593 218.136 65.3613C219.478 66.8634 221.462 75.4235 221.462 75.4235Z" fill="#3F3D56"/>
<path opacity="0.1" d="M192.755 40.1525C192.755 40.1525 192.165 38.3846 191.627 38.2339C191.093 38.0377 190.573 37.8051 190.071 37.5376L190.417 36.8771C190.417 36.8771 192.431 37.4253 192.755 38.0201C193.078 38.6149 192.755 40.1525 192.755 40.1525Z" fill="black"/>
<path opacity="0.1" d="M181.968 36.2412C181.861 36.7894 177.084 37.2581 177.084 37.2581L179.499 34.8406L179.559 34.8625C180.425 35.2026 181.236 35.667 181.968 36.2412Z" fill="black"/>
<path d="M168.15 29.312C168.386 29.312 168.578 29.1206 168.578 28.8844C168.578 28.6483 168.386 28.4568 168.15 28.4568C167.913 28.4568 167.721 28.6483 167.721 28.8844C167.721 29.1206 167.913 29.312 168.15 29.312Z" fill="#575988"/>
<path d="M168.698 30.1699C168.935 30.1699 169.126 29.9785 169.126 29.7424C169.126 29.5062 168.935 29.3148 168.698 29.3148C168.462 29.3148 168.27 29.5062 168.27 29.7424C168.27 29.9785 168.462 30.1699 168.698 30.1699Z" fill="#575988"/>
<path d="M169.236 30.9621C169.473 30.9621 169.664 30.7707 169.664 30.5345C169.664 30.2984 169.473 30.1069 169.236 30.1069C169 30.1069 168.808 30.2984 168.808 30.5345C168.808 30.7707 169 30.9621 169.236 30.9621Z" fill="#575988"/>
<path d="M169.799 31.8173C170.035 31.8173 170.227 31.6258 170.227 31.3897C170.227 31.1535 170.035 30.9621 169.799 30.9621C169.562 30.9621 169.371 31.1535 169.371 31.3897C169.371 31.6258 169.562 31.8173 169.799 31.8173Z" fill="#575988"/>
<path d="M220.381 31.6912C220.573 31.6912 220.729 31.5353 220.729 31.3431C220.729 31.1508 220.573 30.995 220.381 30.995C220.188 30.995 220.032 31.1508 220.032 31.3431C220.032 31.5353 220.188 31.6912 220.381 31.6912Z" fill="#575988"/>
<path d="M220.436 32.4834C220.628 32.4834 220.784 32.3275 220.784 32.1352C220.784 31.943 220.628 31.7871 220.436 31.7871C220.243 31.7871 220.087 31.943 220.087 32.1352C220.087 32.3275 220.243 32.4834 220.436 32.4834Z" fill="#575988"/>
<path d="M220.482 33.2727C220.675 33.2727 220.831 33.1169 220.831 32.9246C220.831 32.7324 220.675 32.5765 220.482 32.5765C220.29 32.5765 220.134 32.7324 220.134 32.9246C220.134 33.1169 220.29 33.2727 220.482 33.2727Z" fill="#575988"/>
<path opacity="0.1" d="M192.774 54.6798C192.722 54.6167 204.82 69.8757 214.21 61.058C214.218 61.0607 199.381 63.0699 192.774 54.6798Z" fill="black"/>
<path opacity="0.1" d="M185.832 62.6122C185.832 62.6122 193.07 62.8095 193.827 64.8899V67.0553C193.621 67.1695 193.39 67.2295 193.154 67.2295C192.918 67.2295 192.686 67.1695 192.48 67.0553C191.75 66.6606 187.374 64.4404 185.832 65.5094V62.6122Z" fill="black"/>
<path d="M185.966 62.6122C185.966 62.6122 192.889 62.8013 193.613 64.7857V66.847C193.416 66.9564 193.194 67.0138 192.969 67.0138C192.743 67.0138 192.521 66.9564 192.324 66.847C191.627 66.4742 187.442 64.3554 185.966 65.3751V62.6122Z" fill="#3F3D56"/>
<path opacity="0.1" d="M189.783 46.9118C190.522 48.6218 191.465 50.2368 192.59 51.7222C193.814 53.3641 195.296 54.7962 196.98 55.9625C196.98 55.9625 189.904 47.9041 189.783 46.9118Z" fill="black"/>
<path opacity="0.1" d="M187.415 38.5107C187.415 38.5107 188.622 43.7186 191.734 45.4865L187.415 38.5107Z" fill="black"/>
<path opacity="0.1" d="M185.563 39.037C185.532 38.941 184.49 43.1485 189.574 45.4865C189.574 45.4865 187.415 44.7547 185.563 39.037Z" fill="black"/>
<path opacity="0.1" d="M217.17 35.545C217.091 35.545 219.678 37.1896 220.384 37.957C220.384 37.957 218.699 35.4353 217.17 35.545Z" fill="black"/>
<path d="M200.794 31.9461C200.795 32.0853 200.825 32.2227 200.882 32.3497C200.939 32.4768 201.021 32.5906 201.125 32.6842C201.228 32.7777 201.349 32.8488 201.481 32.893C201.613 32.9372 201.753 32.9536 201.892 32.9411C203.837 33.0617 205.865 33.1467 207.654 32.3929C207.99 32.2733 208.291 32.0738 208.532 31.8118C208.851 31.4198 208.914 30.8881 209.043 30.4002C209.295 29.4463 209.833 28.5994 210.22 27.6921C210.874 26.1593 211.094 24.476 210.854 22.8269C210.803 22.3214 210.636 21.8345 210.365 21.4043C209.849 20.667 208.908 20.3682 208.225 19.7817C207.542 19.1951 207.103 18.2988 206.304 17.863C205.585 17.4628 204.705 17.5121 203.895 17.6492C202.303 17.9193 200.777 18.4915 199.4 19.3349C198.937 19.609 198.429 19.9461 197.897 19.8447C197.43 19.757 197.09 19.365 196.799 18.9977C196.425 19.8749 196.268 20.8292 196.341 21.7798C196.361 21.9193 196.357 22.0613 196.327 22.1992C196.26 22.3659 196.158 22.5164 196.028 22.6405C195.548 23.1887 195.249 24.0795 195.724 24.6441C195.929 24.8881 196.248 25.0224 196.448 25.2718C196.807 25.7186 196.687 26.3682 196.678 26.9383C196.659 27.1374 196.709 27.3372 196.821 27.503C196.925 27.5997 197.052 27.6679 197.19 27.701C197.328 27.7341 197.472 27.7311 197.609 27.6921C197.88 27.6103 198.166 27.5833 198.448 27.6126C198.746 27.7093 199.003 27.9021 199.178 28.1608C200.064 29.3148 200.416 30.5701 200.794 31.9461Z" fill="#2D293D"/>
<g opacity="0.1">
<path opacity="0.1" d="M208.76 31.3267C208.519 31.5887 208.218 31.7881 207.882 31.9077C206.082 32.656 204.057 32.5711 202.12 32.4559C201.912 32.458 201.706 32.412 201.519 32.3216C201.222 32.1489 201.11 31.7871 201.019 31.4582C200.641 30.0877 200.292 28.8296 199.392 27.6866C199.219 27.423 198.962 27.2251 198.662 27.1247C198.38 27.0981 198.095 27.1251 197.823 27.2042C197.686 27.2435 197.542 27.247 197.404 27.2144C197.266 27.1817 197.139 27.114 197.035 27.0178C196.923 26.852 196.873 26.6523 196.892 26.4532C196.892 25.8776 197.021 25.2335 196.662 24.7867C196.462 24.5373 196.143 24.403 195.938 24.1563C195.803 23.9744 195.721 23.7596 195.699 23.5347C195.677 23.3097 195.717 23.0831 195.814 22.879C195.471 23.4272 195.326 24.1151 195.724 24.5866C195.929 24.8305 196.248 24.9649 196.448 25.2143C196.807 25.6638 196.687 26.3107 196.678 26.8808C196.657 27.0796 196.707 27.2794 196.818 27.4454C196.922 27.5426 197.05 27.611 197.189 27.6442C197.327 27.6773 197.472 27.674 197.609 27.6346C197.881 27.5528 198.166 27.5257 198.448 27.5551C198.746 27.6517 199.003 27.8446 199.178 28.1033C200.075 29.2463 200.427 30.5016 200.805 31.8776C200.85 32.2162 201.019 32.526 201.28 32.7465C201.468 32.837 201.675 32.8821 201.884 32.878C203.829 32.9987 205.857 33.0864 207.646 32.3299C207.982 32.211 208.284 32.0115 208.524 31.7488C208.645 31.5944 208.738 31.4199 208.799 31.2335C208.801 31.2691 208.782 31.2992 208.76 31.3267Z" fill="black"/>
<path opacity="0.1" d="M196.341 22.032C196.427 21.9385 196.493 21.8285 196.536 21.7086C196.56 21.5699 196.56 21.4279 196.536 21.2892C196.482 20.5077 196.584 19.7234 196.835 18.9813L196.799 18.9402C196.424 19.816 196.267 20.7697 196.341 21.7195C196.349 21.8235 196.349 21.928 196.341 22.032Z" fill="black"/>
</g>
<path opacity="0.1" d="M199.656 35.8109C199.656 35.8109 207.632 36.8689 208.348 35.6711L199.656 35.8109Z" fill="black"/>
<path opacity="0.1" d="M215.162 32.5135C215.162 32.5135 219.596 32.5135 220.57 34.18L215.162 32.5135Z" fill="black"/>
<path d="M239.97 180.567C238.655 181.742 236.946 182.38 235.182 182.355C234.732 182.355 234.109 182.439 234.106 182.889C234.117 183.021 234.162 183.148 234.238 183.256C234.795 184.183 235.674 184.873 236.707 185.194C237.668 185.485 238.694 185.435 239.695 185.383L242.618 185.233C243.167 185.202 243.715 185.175 244.264 185.106C244.813 185.038 245.411 184.926 245.985 184.832C247.394 184.632 248.819 184.566 250.24 184.635C250.619 184.649 251.064 184.635 251.289 184.361C251.514 184.087 251.398 183.563 251.313 183.152C251.138 182.305 251.313 181.417 251.151 180.567C250.877 179.076 249.585 177.933 248.169 177.393C246.852 176.894 244.519 176.322 243.274 177.155C241.959 178.029 241.155 179.49 239.97 180.567Z" fill="#3F3D56"/>
<path d="M242.873 130.61C243.131 131.836 244.319 132.773 244.352 134.023C244.382 135.026 243.666 135.868 243.15 136.725C242.664 137.614 242.254 138.542 241.924 139.499C240.952 141.992 239.747 144.387 238.323 146.653C237.637 147.75 236.869 148.92 237.026 150.195C237.135 150.791 237.346 151.364 237.648 151.889L239.706 155.973C240.157 156.788 240.51 157.654 240.757 158.552C240.936 159.328 240.952 160.131 241.056 160.92C241.38 163.425 242.557 165.947 241.86 168.376C241.8 168.584 241.586 168.836 241.419 168.691C242.099 169.96 242.645 171.237 242.593 172.676C242.566 173.43 242.335 174.217 242.612 174.918C242.73 175.212 242.936 175.486 242.933 175.801C242.933 176.009 242.837 176.204 242.815 176.407C242.758 176.985 243.29 177.467 243.842 177.651C244.393 177.835 244.994 177.821 245.551 177.988C246.621 178.309 247.387 179.23 248.295 179.868C249.227 180.51 250.325 180.867 251.456 180.896C251.617 180.913 251.78 180.881 251.922 180.803C252.003 180.733 252.068 180.646 252.112 180.549C252.157 180.451 252.18 180.345 252.18 180.238C252.23 179.727 252.153 179.21 251.956 178.735C251.759 178.26 251.448 177.841 251.05 177.514C250.876 177.405 250.731 177.254 250.63 177.075C250.579 176.917 250.566 176.749 250.592 176.585C250.757 174.338 250.717 172.081 250.471 169.842C250.36 169.132 250.324 168.413 250.364 167.696C250.422 167.098 250.603 166.506 250.537 165.911C250.471 165.317 250.166 164.774 249.988 164.201C249.67 163.181 249.757 162.085 249.714 161.019C249.659 159.166 249.233 157.346 248.811 155.537C248.643 154.827 248.46 154.084 247.957 153.558C247.529 153.111 246.838 152.683 247 152.089C247.089 151.869 247.223 151.671 247.392 151.505C247.591 151.256 247.737 150.969 247.821 150.661C247.905 150.354 247.925 150.033 247.881 149.718C248.061 149.764 248.252 149.746 248.421 149.667C248.589 149.588 248.725 149.453 248.805 149.285C252.147 147.709 254.842 144.556 256.044 141.062C256.115 140.802 256.224 140.555 256.368 140.327C256.678 139.894 257.216 139.708 257.693 139.469C259.191 138.715 260.226 137.304 261.175 135.922C261.724 135.122 262.273 134.294 262.52 133.351C262.649 132.741 262.711 132.119 262.703 131.496L262.789 128.275C262.807 128.063 262.787 127.849 262.728 127.645C262.647 127.453 262.528 127.28 262.38 127.135C261.467 126.171 260.268 125.525 258.961 125.293C258.083 125.137 257.185 125.167 256.296 125.093C254.573 124.95 252.872 124.416 251.149 124.545C248.44 124.745 246.028 126.619 244.753 129.015C244.305 129.859 243.833 130.594 242.873 130.61Z" fill="#464353"/>
<path d="M227.836 109.669C227.873 110.166 227.805 110.666 227.638 111.136C227.427 111.585 226.898 111.936 226.434 111.752C226.574 111.437 226.203 111.078 225.858 111.116C225.688 111.156 225.53 111.235 225.397 111.349C225.265 111.463 225.162 111.607 225.098 111.769C224.868 112.229 224.791 112.75 224.878 113.257C224.988 113.888 225.353 114.493 225.257 115.127C225.18 115.653 224.793 116.176 224.999 116.664C225.132 116.887 225.3 117.088 225.495 117.259C225.767 117.593 225.899 118.017 225.866 118.446C225.833 118.874 225.636 119.273 225.317 119.561L230.509 119.666C230.319 120.532 230.709 121.417 231.153 122.187C232.399 124.305 234.118 126.105 236.176 127.448C238.235 128.79 240.577 129.638 243.018 129.925C242.886 130.002 242.773 130.107 242.687 130.233C242.601 130.36 242.543 130.503 242.52 130.654C242.496 130.805 242.506 130.959 242.549 131.106C242.592 131.252 242.667 131.387 242.769 131.501C243.191 131.921 243.907 131.868 244.437 131.597C244.967 131.326 245.381 130.876 245.864 130.528C246.716 129.925 247.756 129.645 248.797 129.739C249.447 129.802 250.079 130.013 250.732 130.046C252.652 130.147 254.299 128.766 256.148 128.201C257.495 127.787 259.024 127.787 260.154 126.946C260.643 126.584 261.043 125.989 260.901 125.402C260.783 125.065 260.596 124.756 260.352 124.495C259.702 123.654 259.317 122.642 258.851 121.686C257.927 119.792 256.654 118.088 255.1 116.664C253.927 115.64 252.683 114.698 251.379 113.846C251.064 113.614 250.728 113.411 250.375 113.241C249.919 113.041 249.415 112.945 249.003 112.693C248.394 112.309 248.043 111.632 247.573 111.086C246.544 109.886 244.964 109.335 243.696 108.392C242.845 107.759 242.094 106.926 241.078 106.621C240.584 106.471 240.06 106.46 239.566 106.312C238.444 105.972 237.626 104.977 236.526 104.574C235.656 104.256 234.696 104.338 233.782 104.226C232.752 104.099 231.768 103.724 230.915 103.135C230.64 102.911 230.331 102.732 230.001 102.603C228.61 102.181 228.497 104.768 228.355 105.665C228.171 106.997 227.836 108.321 227.836 109.669Z" fill="#3C8AFF"/>
<path d="M229.192 118.347C229.425 120.874 227.515 123.322 228.072 125.797C228.19 126.323 228.418 126.825 228.5 127.36C228.733 128.826 227.855 130.216 227.018 131.444L219.829 141.983C219.541 142.445 219.196 142.871 218.803 143.249C217.431 144.469 215.368 144.345 213.562 144.707C212.294 144.968 211.096 145.497 210.05 146.259C210.003 146.295 209.972 146.348 209.963 146.407C209.955 146.466 209.97 146.526 210.006 146.574C210.304 146.979 210.699 147.304 211.155 147.518C211.61 147.732 212.113 147.828 212.615 147.799C212.805 148.046 212.615 148.413 212.355 148.591C211.97 148.865 211.438 148.928 211.361 149.583C211.335 149.811 211.381 150.041 211.493 150.241C211.784 150.683 212.234 150.995 212.75 151.113C215.239 151.875 217.928 150.537 219.791 148.72C221.654 146.903 222.99 144.609 224.818 142.761C225.83 141.736 226.98 140.862 228.023 139.869C230.103 137.888 231.722 135.484 233.28 133.074C233.749 132.348 234.224 131.603 234.419 130.761C234.614 129.92 234.523 129.067 234.745 128.253C235.036 127.187 235.818 126.334 236.469 125.441C237.744 123.687 238.598 121.54 238.428 119.378C238.258 117.215 236.919 115.083 234.877 114.348C234.244 114.097 233.547 114.055 232.888 114.228C232.051 114.485 231.433 115.176 230.863 115.839L229.491 117.413C229.157 117.761 228.895 118.172 228.72 118.621C228.631 118.848 228.61 119.095 228.659 119.333C228.707 119.571 228.824 119.791 228.994 119.964" fill="#FBBEBE"/>
<path d="M232.836 107.981C231.892 108.036 230.852 108.129 230.185 108.803C229.905 109.113 229.679 109.467 229.515 109.85C228.868 111.169 228.237 112.547 228.19 114.016C228.152 115.19 228.492 116.338 228.67 117.497C228.818 118.462 228.442 119.446 228.371 120.422C229.543 120.063 231.09 119.575 232.152 118.969C232.877 118.555 233.576 118.084 234.367 117.821C235.494 117.445 237.385 118.095 238.458 118.616C238.516 117.865 237.95 116.555 238.011 115.801C238.019 115.483 238.075 115.169 238.178 114.869C238.339 114.551 238.529 114.249 238.746 113.967C239.154 113.304 239.342 112.528 239.283 111.752C239.223 110.976 238.919 110.238 238.414 109.645C237.462 108.576 235.972 108.175 234.551 108C233.655 107.896 232.753 107.865 231.853 107.907" fill="#3C8AFF"/>
<defs>
<linearGradient id="paint0_linear" x1="193.784" y1="149.707" x2="193.784" y2="15.7661" gradientUnits="userSpaceOnUse">
<stop stop-color="#808080" stop-opacity="0.25"/>
<stop offset="0.54" stop-color="#808080" stop-opacity="0.12"/>
<stop offset="1" stop-color="#808080" stop-opacity="0.1"/>
</linearGradient>
</defs>
</svg>
