<svg width="314" height="202" viewBox="0 0 314 202" fill="none" xmlns="http://www.w3.org/2000/svg">
<g clip-path="url(#clip0)">
<path d="M274.781 186.083C284.846 176.022 284.846 159.709 274.781 149.648C264.715 139.587 248.395 139.587 238.33 149.648C228.264 159.709 228.264 176.022 238.33 186.083C248.395 196.145 264.715 196.145 274.781 186.083Z" fill="#1D1D21"/>
<path d="M256.412 170.236C261.162 169.185 264.16 164.484 263.109 159.736C262.057 154.987 257.354 151.99 252.604 153.041C247.854 154.092 244.856 158.793 245.907 163.541C246.959 168.29 251.662 171.287 256.412 170.236Z" fill="white"/>
<path d="M251.574 162.23C253.158 161.88 254.157 160.313 253.807 158.73C253.456 157.147 251.888 156.148 250.305 156.499C248.722 156.849 247.722 158.416 248.073 159.999C248.423 161.581 249.991 162.581 251.574 162.23Z" fill="#3B3B45"/>
<path d="M255.537 150.448C244.996 150.429 237.596 148.547 237.614 139.001C237.631 129.455 246.191 121.733 256.732 121.752C267.273 121.771 275.804 129.526 275.786 139.072C275.768 148.618 266.078 150.468 255.537 150.448Z" fill="#3C8AFF"/>
<path d="M296.953 172.172C293.93 182.657 285.101 189.996 275.892 196.231C274.606 197.101 273.32 197.952 272.033 198.783C272.025 198.786 272.016 198.795 272.007 198.798C271.945 198.838 271.883 198.878 271.825 198.918C271.56 199.089 271.294 199.26 271.031 199.43L271.175 199.494C271.175 199.494 271.317 199.57 271.162 199.507C271.116 199.487 271.067 199.47 271.021 199.45C265.671 197.294 260.226 194.978 256.126 190.938C251.873 186.742 249.388 180.161 251.691 174.649C251.994 173.927 252.376 173.241 252.831 172.604C253.018 172.337 253.219 172.081 253.428 171.83C254.699 170.281 256.359 169.097 258.239 168.401C260.118 167.705 262.15 167.523 264.123 167.872C266.097 168.221 267.942 169.089 269.469 170.387C270.996 171.685 272.149 173.367 272.81 175.258C273.487 168.961 268.292 163.687 263.294 159.795C258.293 155.905 252.61 151.669 251.643 145.408C251.103 141.924 252.316 138.547 254.523 135.837C254.592 135.755 254.66 135.673 254.73 135.592C257.418 132.436 261.198 130.409 265.316 129.916C272.984 129.119 280.433 133.177 286.003 138.506C294.97 147.081 300.39 160.251 296.953 172.172Z" fill="#EAEAEF"/>
<path d="M282.54 158.459C284.011 160.747 285.141 163.238 285.894 165.853C286.53 168.19 286.813 170.609 286.734 173.03C286.529 178.011 285.13 182.87 282.655 187.198C280.79 190.482 278.518 193.517 275.892 196.231C274.606 197.101 273.32 197.952 272.034 198.783C272.025 198.786 272.016 198.795 272.007 198.799C271.945 198.838 271.883 198.878 271.825 198.918C271.56 199.089 271.294 199.26 271.031 199.43C271.031 199.43 271.318 199.57 271.162 199.507C271.116 199.487 271.067 199.47 271.021 199.451C271.501 195.521 271.031 191.534 269.651 187.823C268.272 184.113 266.023 180.786 263.092 178.124C260.155 175.501 256.639 173.61 252.831 172.604C253.018 172.337 253.219 172.081 253.429 171.83C254.899 172.243 256.33 172.784 257.706 173.448C262.621 175.808 266.647 179.687 269.185 184.511C271.463 188.892 272.444 193.831 272.012 198.749C272.231 198.55 272.451 198.347 272.665 198.145C276.73 194.357 280.341 190.008 282.785 184.99C284.905 180.739 285.947 176.033 285.819 171.286C285.62 166.109 283.556 161.315 280.569 157.141C277.294 152.687 273.426 148.702 269.072 145.297C264.683 141.784 259.881 138.82 254.773 136.473C254.658 136.419 254.568 136.323 254.521 136.205C254.475 136.086 254.476 135.955 254.524 135.837C254.558 135.732 254.632 135.644 254.731 135.592C254.781 135.571 254.836 135.56 254.891 135.563C254.947 135.565 255.001 135.58 255.049 135.606C255.68 135.896 256.306 136.19 256.928 136.497C262.103 139.054 266.94 142.244 271.328 145.993C275.567 149.605 279.558 153.732 282.54 158.459Z" fill="white"/>
<path d="M44.6155 201.23C48.2193 201.23 51.1407 200.135 51.1407 198.784C51.1407 197.433 48.2193 196.338 44.6155 196.338C41.0118 196.338 38.0903 197.433 38.0903 198.784C38.0903 200.135 41.0118 201.23 44.6155 201.23Z" fill="#1D1D21"/>
<path d="M60.2762 200.904C63.88 200.904 66.8014 199.809 66.8014 198.458C66.8014 197.107 63.88 196.012 60.2762 196.012C56.6724 196.012 53.751 197.107 53.751 198.458C53.751 199.809 56.6724 200.904 60.2762 200.904Z" fill="#1D1D21"/>
<path d="M81.0659 159.793C87.2321 156.24 91.3262 151.791 90.2103 149.856C89.0943 147.921 83.191 149.233 77.0248 152.786C70.8586 156.339 66.7645 160.788 67.8804 162.723C68.9964 164.658 74.8997 163.346 81.0659 159.793Z" fill="#1D1D21"/>
<path d="M75.2772 168.506C77.5574 154.46 68.0152 141.227 53.9641 138.948C39.913 136.669 26.6739 146.207 24.3938 160.252C22.1136 174.297 31.6558 187.53 45.7069 189.809C59.7579 192.089 72.997 182.551 75.2772 168.506Z" fill="#1D1D21"/>
<path d="M45.9206 184.598H38.0903V198.621H45.9206V184.598Z" fill="#1D1D21"/>
<path d="M61.5812 184.598H53.751V198.621H61.5812V184.598Z" fill="#1D1D21"/>
<path d="M50.4882 166.662C55.3533 166.662 59.2972 162.719 59.2972 157.856C59.2972 152.993 55.3533 149.051 50.4882 149.051C45.6231 149.051 41.6792 152.993 41.6792 157.856C41.6792 162.719 45.6231 166.662 50.4882 166.662Z" fill="white"/>
<path d="M50.4881 160.791C52.1098 160.791 53.4244 159.477 53.4244 157.856C53.4244 156.235 52.1098 154.921 50.4881 154.921C48.8664 154.921 47.5518 156.235 47.5518 157.856C47.5518 159.477 48.8664 160.791 50.4881 160.791Z" fill="#3B3B45"/>
<path d="M24.8337 140.419C22.7525 131.103 29.4052 121.689 39.6929 119.393C49.9805 117.096 60.0075 122.788 62.0886 132.104C64.1698 141.42 57.3518 144.857 47.0641 147.153C36.7764 149.449 26.9149 149.736 24.8337 140.419Z" fill="#EAEAEF"/>
<path d="M32.4489 157.944C33.4064 155.926 28.9694 151.819 22.5386 148.77C16.1078 145.722 10.1184 144.886 9.16095 146.904C8.20345 148.922 12.6404 153.029 19.0712 156.078C25.502 159.127 31.4914 159.962 32.4489 157.944Z" fill="#1D1D21"/>
<path d="M37.1753 173.673C37.1753 176.195 43.6706 181.174 50.8782 181.174C58.0857 181.174 64.8436 174.075 64.8436 171.553C64.8436 169.032 58.0857 172.042 50.8782 172.042C43.6707 172.042 37.1753 171.151 37.1753 173.673Z" fill="white"/>
<path d="M139.71 201.23C143.314 201.23 146.235 200.135 146.235 198.784C146.235 197.433 143.314 196.338 139.71 196.338C136.106 196.338 133.185 197.433 133.185 198.784C133.185 200.135 136.106 201.23 139.71 201.23Z" fill="#1D1D21"/>
<path d="M124.049 200.904C127.653 200.904 130.574 199.809 130.574 198.458C130.574 197.107 127.653 196.012 124.049 196.012C120.445 196.012 117.524 197.107 117.524 198.458C117.524 199.809 120.445 200.904 124.049 200.904Z" fill="#1D1D21"/>
<path d="M116.445 162.723C117.561 160.788 113.466 156.339 107.3 152.786C101.134 149.233 95.2307 147.921 94.1148 149.856C92.9989 151.791 97.0929 156.24 103.259 159.793C109.425 163.346 115.329 164.658 116.445 162.723Z" fill="#1D1D21"/>
<path d="M134.489 190.142C148.724 190.142 160.264 178.608 160.264 164.379C160.264 150.15 148.724 138.615 134.489 138.615C120.254 138.615 108.715 150.15 108.715 164.379C108.715 178.608 120.254 190.142 134.489 190.142Z" fill="#1D1D21"/>
<path d="M146.235 184.598H138.404V198.621H146.235V184.598Z" fill="#1D1D21"/>
<path d="M130.574 184.598H122.744V198.621H130.574V184.598Z" fill="#1D1D21"/>
<path d="M128.451 166.662C133.316 166.662 137.26 162.719 137.26 157.856C137.26 152.993 133.316 149.051 128.451 149.051C123.586 149.051 119.642 152.993 119.642 157.856C119.642 162.719 123.586 166.662 128.451 166.662Z" fill="white"/>
<path d="M126.328 158.728C127.478 157.579 127.486 155.721 126.344 154.579C125.203 153.437 123.345 153.443 122.195 154.592C121.044 155.741 121.037 157.598 122.178 158.74C123.319 159.882 125.177 159.877 126.328 158.728Z" fill="#3B3B45"/>
<path d="M137.261 147.153C126.973 144.857 120.155 141.421 122.237 132.104C124.318 122.788 134.345 117.096 144.632 119.393C154.92 121.689 161.573 131.103 159.491 140.419C157.41 149.736 147.549 149.449 137.261 147.153Z" fill="#3C8AFF"/>
<path d="M161.442 184.017C163.602 183.444 163.871 177.405 162.044 170.529C160.217 163.653 156.985 158.544 154.826 159.117C152.666 159.69 152.397 165.729 154.224 172.605C156.051 179.481 159.283 184.591 161.442 184.017Z" fill="#1D1D21"/>
<path d="M128.65 172.043C123.918 172.043 119.481 169.032 119.481 171.554C119.481 174.075 123.918 181.174 128.65 181.174C133.382 181.174 137.646 176.195 137.646 173.673C137.646 171.152 133.382 172.043 128.65 172.043Z" fill="white"/>
<path d="M95.3404 121.662H93.0515C91.001 121.659 89.0352 120.844 87.5853 119.395C86.1354 117.946 85.3199 115.981 85.3175 113.931V112.01C85.3175 107.253 86.2193 103.269 87.9981 100.17C90.1537 96.5656 92.6685 93.1881 95.5041 90.0893C97.3866 88.1971 99.0947 86.1391 100.608 83.9404C101.693 82.2323 102.254 80.2434 102.22 78.22C102.22 73.4474 99.109 71.1273 92.7096 71.1273C89.1598 71.1674 85.6325 71.6966 82.2273 72.6999C80.9141 73.0746 79.5318 73.1396 78.1892 72.8896C76.8467 72.6397 75.5805 72.0816 74.4903 71.2595C73.4001 70.4373 72.5157 69.3735 71.9066 68.1517C71.2976 66.9299 70.9806 65.5834 70.9806 64.2183V60.3299C70.973 58.656 71.4514 57.0159 72.3578 55.6083C73.2641 54.2008 74.5595 53.0862 76.0868 52.3998C82.1007 49.8344 88.5863 48.5591 95.1242 48.6563C101.973 48.6563 108.156 49.8063 113.501 52.0738C118.856 54.3466 123.087 57.5515 126.076 61.5997C129.056 65.6192 130.64 70.5021 130.586 75.5047C130.586 80.8766 129.119 85.5554 126.225 89.4111C123.363 93.2276 119.261 97.4058 114.031 101.83C111.276 104.121 108.664 106.579 106.213 109.192C104.629 110.897 103.51 112.98 102.962 115.241C102.657 117.04 101.724 118.672 100.328 119.847C98.9329 121.023 97.1655 121.666 95.3404 121.662Z" fill="#3C8AFF"/>
<path d="M94.0681 158.016H93.7662C89.9662 158.014 86.3226 156.503 83.6365 153.816C80.9503 151.13 79.4414 147.487 79.4414 143.688C79.4414 139.89 80.9503 136.247 83.6365 133.56C86.3226 130.873 89.9662 129.363 93.7662 129.36H94.0681C95.9512 129.359 97.8162 129.729 99.5563 130.448C101.296 131.168 102.878 132.223 104.21 133.554C105.542 134.884 106.598 136.464 107.319 138.203C108.04 139.942 108.411 141.806 108.411 143.688C108.411 145.571 108.04 147.435 107.319 149.174C106.598 150.912 105.542 152.492 104.21 153.823C102.878 155.154 101.296 156.209 99.5563 156.928C97.8162 157.648 95.9512 158.017 94.0681 158.016Z" fill="#3C8AFF"/>
<path d="M187.223 201.5H1.09847C0.939746 201.5 0.787532 201.437 0.675297 201.325C0.563062 201.212 0.5 201.06 0.5 200.902C0.5 200.743 0.563062 200.591 0.675297 200.479C0.787532 200.367 0.939746 200.303 1.09847 200.303H187.223C187.381 200.303 187.534 200.367 187.646 200.479C187.758 200.591 187.821 200.743 187.821 200.902C187.821 201.06 187.758 201.212 187.646 201.325C187.534 201.437 187.381 201.5 187.223 201.5Z" fill="#B6B6BF"/>
<path d="M312.902 201.5H213.556C213.397 201.5 213.245 201.437 213.132 201.325C213.02 201.212 212.957 201.06 212.957 200.902C212.957 200.743 213.02 200.591 213.132 200.479C213.245 200.367 213.397 200.303 213.556 200.303H312.902C313.06 200.303 313.213 200.367 313.325 200.479C313.437 200.591 313.5 200.743 313.5 200.902C313.5 201.06 313.437 201.212 313.325 201.325C313.213 201.437 313.06 201.5 312.902 201.5Z" fill="#B6B6BF"/>
<path d="M251.242 184.026C258.358 183.887 264.091 181.964 264.047 179.731C264.004 177.498 258.2 175.801 251.084 175.94C243.967 176.079 238.234 178.002 238.278 180.235C238.322 182.468 244.126 184.165 251.242 184.026Z" fill="#1D1D21"/>
<path d="M244.772 89.6339H229.212C228.419 89.633 227.658 89.3175 227.097 88.7568C226.536 88.196 226.221 87.4358 226.22 86.6428V71.0892C226.221 70.2962 226.536 69.536 227.097 68.9752C227.658 68.4145 228.419 68.0991 229.212 68.0981H244.772C245.566 68.0991 246.326 68.4145 246.887 68.9752C247.448 69.536 247.764 70.2962 247.765 71.0892V86.6428C247.764 87.4358 247.448 88.196 246.887 88.7568C246.326 89.3175 245.566 89.633 244.772 89.6339ZM229.212 69.2946C228.736 69.2951 228.28 69.4843 227.943 69.8208C227.607 70.1572 227.417 70.6134 227.417 71.0892V86.6428C227.417 87.1186 227.607 87.5748 227.943 87.9112C228.28 88.2477 228.736 88.4369 229.212 88.4374H244.772C245.248 88.4369 245.705 88.2477 246.041 87.9112C246.378 87.5748 246.567 87.1186 246.568 86.6428V71.0892C246.567 70.6134 246.378 70.1572 246.041 69.8208C245.705 69.4843 245.248 69.2951 244.772 69.2946H229.212Z" fill="#EAEAEF"/>
<path d="M251.954 79.4642H236.394C235.6 79.4633 234.84 79.1479 234.279 78.5871C233.718 78.0264 233.402 77.2661 233.401 76.4731V60.9195C233.402 60.1265 233.718 59.3663 234.279 58.8055C234.84 58.2448 235.6 57.9294 236.394 57.9285H251.954C252.747 57.9294 253.508 58.2448 254.069 58.8055C254.63 59.3663 254.945 60.1265 254.946 60.9195V76.4731C254.945 77.2661 254.63 78.0264 254.069 78.5871C253.508 79.1479 252.747 79.4633 251.954 79.4642ZM236.394 59.1249C235.918 59.1254 235.461 59.3147 235.125 59.6511C234.788 59.9876 234.599 60.4437 234.598 60.9195V76.4731C234.599 76.9489 234.788 77.4051 235.125 77.7415C235.461 78.078 235.918 78.2672 236.394 78.2678H251.954C252.43 78.2672 252.886 78.078 253.223 77.7415C253.56 77.4051 253.749 76.9489 253.749 76.4731V60.9195C253.749 60.4437 253.56 59.9876 253.223 59.6511C252.886 59.3147 252.43 59.1254 251.954 59.1249H236.394Z" fill="#EAEAEF"/>
<path d="M129.267 29.8126H113.707C112.914 29.8117 112.153 29.4962 111.592 28.9355C111.031 28.3748 110.716 27.6145 110.715 26.8215V11.2679C110.716 10.4749 111.031 9.71467 111.592 9.15393C112.153 8.59319 112.914 8.27776 113.707 8.27686H129.267C130.061 8.27776 130.821 8.59319 131.382 9.15393C131.943 9.71467 132.259 10.4749 132.26 11.2679V26.8215C132.259 27.6145 131.943 28.3748 131.382 28.9355C130.821 29.4962 130.061 29.8117 129.267 29.8126ZM113.707 9.47328C113.231 9.4738 112.775 9.66305 112.438 9.9995C112.102 10.3359 111.912 10.7921 111.912 11.2679V26.8215C111.912 27.2973 112.102 27.7535 112.438 28.0899C112.775 28.4264 113.231 28.6156 113.707 28.6161H129.267C129.743 28.6156 130.2 28.4264 130.536 28.0899C130.873 27.7535 131.062 27.2973 131.063 26.8215V11.2679C131.062 10.7921 130.873 10.3359 130.536 9.9995C130.2 9.66305 129.743 9.4738 129.267 9.47328H113.707Z" fill="#EAEAEF"/>
<path d="M119.692 22.0357H104.132C103.339 22.0348 102.578 21.7194 102.017 21.1586C101.456 20.5979 101.141 19.8376 101.14 19.0446V3.49107C101.141 2.69807 101.456 1.93781 102.017 1.37708C102.578 0.816337 103.339 0.500907 104.132 0.5H119.692C120.486 0.500907 121.246 0.816337 121.807 1.37708C122.368 1.93781 122.684 2.69807 122.685 3.49107V19.0446C122.684 19.8376 122.368 20.5979 121.807 21.1586C121.246 21.7194 120.486 22.0348 119.692 22.0357ZM104.132 1.69643C103.656 1.69695 103.2 1.88619 102.863 2.22264C102.526 2.55909 102.337 3.01526 102.337 3.49107V19.0446C102.337 19.5205 102.526 19.9766 102.863 20.3131C103.2 20.6495 103.656 20.8388 104.132 20.8393H119.692C120.168 20.8388 120.625 20.6495 120.961 20.3131C121.298 19.9766 121.487 19.5205 121.488 19.0446V3.49107C121.487 3.01526 121.298 2.55909 120.961 2.22264C120.625 1.88619 120.168 1.69695 119.692 1.69643H104.132Z" fill="#EAEAEF"/>
<path d="M192.741 113.944C194.878 113.944 196.611 112.212 196.611 110.075C196.611 107.939 194.878 106.207 192.741 106.207C190.603 106.207 188.871 107.939 188.871 110.075C188.871 112.212 190.603 113.944 192.741 113.944Z" fill="#EAEAEF"/>
<path d="M37.1388 100.185C39.2763 100.185 41.009 98.4527 41.009 96.3161C41.009 94.1795 39.2763 92.4475 37.1388 92.4475C35.0013 92.4475 33.2686 94.1795 33.2686 96.3161C33.2686 98.4527 35.0013 100.185 37.1388 100.185Z" fill="#EAEAEF"/>
<path d="M298.072 133.685C300.209 133.685 301.942 131.953 301.942 129.816C301.942 127.68 300.209 125.948 298.072 125.948C295.934 125.948 294.202 127.68 294.202 129.816C294.202 131.953 295.934 133.685 298.072 133.685Z" fill="#EAEAEF"/>
</g>
<defs>
<clipPath id="clip0">
<rect width="313" height="201" fill="white" transform="translate(0.5 0.5)"/>
</clipPath>
</defs>
</svg>
