<svg width="26" height="26" viewBox="0 0 26 26" fill="none" xmlns="http://www.w3.org/2000/svg">
<path fill-rule="evenodd" clip-rule="evenodd" d="M7.58333 17.3334C7.58333 16.7376 8.07083 16.2501 8.66667 16.2501C9.2625 16.2501 9.75 16.7376 9.75 17.3334C9.75 17.9292 9.2625 18.4167 8.66667 18.4167C8.07083 18.4167 7.58333 17.9292 7.58333 17.3334ZM13 16.2501H17.3333C17.9292 16.2501 18.4167 16.7376 18.4167 17.3334C18.4167 17.9292 17.9292 18.4167 17.3333 18.4167H13C12.4042 18.4167 11.9167 17.9292 11.9167 17.3334C11.9167 16.7376 12.4042 16.2501 13 16.2501ZM19.5 21.6667H6.5C5.90308 21.6667 5.41667 21.1803 5.41667 20.5834V14.0834H20.5833V20.5834C20.5833 21.1803 20.0969 21.6667 19.5 21.6667ZM6.5 6.50008H7.58333V7.58341C7.58333 8.17925 8.07083 8.66675 8.66667 8.66675C9.2625 8.66675 9.75 8.17925 9.75 7.58341V6.50008H16.25V7.58341C16.25 8.17925 16.7375 8.66675 17.3333 8.66675C17.9292 8.66675 18.4167 8.17925 18.4167 7.58341V6.50008H19.5C20.0969 6.50008 20.5833 6.9865 20.5833 7.58341V11.9167H5.41667V7.58341C5.41667 6.9865 5.90308 6.50008 6.5 6.50008ZM19.5 4.33341H18.4167V3.25008C18.4167 2.65425 17.9292 2.16675 17.3333 2.16675C16.7375 2.16675 16.25 2.65425 16.25 3.25008V4.33341H9.75V3.25008C9.75 2.65425 9.2625 2.16675 8.66667 2.16675C8.07083 2.16675 7.58333 2.65425 7.58333 3.25008V4.33341H6.5C4.70817 4.33341 3.25 5.79158 3.25 7.58342V20.5834C3.25 22.3752 4.70817 23.8334 6.5 23.8334H19.5C21.2918 23.8334 22.75 22.3752 22.75 20.5834V7.58342C22.75 5.79158 21.2918 4.33341 19.5 4.33341Z" fill="black"/>
</svg>
