<svg width="26" height="26" viewBox="0 0 26 26" fill="none" xmlns="http://www.w3.org/2000/svg">
<path fill-rule="evenodd" clip-rule="evenodd" d="M22.5564 15.2291C21.9898 15.0276 21.3723 15.3234 21.1741 15.8889C19.9521 19.3447 16.6663 21.6663 13.0003 21.6663C8.22174 21.6663 4.33366 17.7793 4.33366 12.9996C4.33366 9.33364 6.65524 6.04789 10.1111 4.82589C10.6755 4.62764 10.9712 4.00906 10.7719 3.44464C10.5726 2.88131 9.95399 2.58447 9.38958 2.78489C5.06924 4.31131 2.16699 8.41606 2.16699 12.9996C2.16699 18.9731 7.02683 23.833 13.0003 23.833C17.5839 23.833 21.6887 20.9318 23.2162 16.6104C23.4155 16.0471 23.1208 15.4285 22.5564 15.2291ZM15.1667 10.8334V4.41034C18.4828 4.887 21.1131 7.51625 21.5898 10.8334H15.1667ZM14.0833 2.16675C13.4853 2.16675 13 2.651 13 3.25008V11.9167C13 12.5158 13.4853 13.0001 14.0833 13.0001H22.75C23.348 13.0001 23.8333 12.5158 23.8333 11.9167C23.8333 6.54016 19.4588 2.16675 14.0833 2.16675Z" fill="black"/>
</svg>
