<svg width="26" height="26" viewBox="0 0 26 26" fill="none" xmlns="http://www.w3.org/2000/svg">
<path fill-rule="evenodd" clip-rule="evenodd" d="M12.9998 3.25C15.7959 3.25 18.2594 5.04942 19.1478 7.63208C21.79 7.99067 23.8332 10.2613 23.8332 13C23.8332 14.3228 23.3522 15.5957 22.479 16.5848C22.2645 16.8263 21.9666 16.9509 21.6665 16.9509C21.4119 16.9509 21.1563 16.8621 20.9493 16.6801C20.5019 16.2825 20.4586 15.5989 20.8551 15.1493C21.3783 14.5578 21.6665 13.793 21.6665 13C21.6665 11.2082 20.2083 9.75 18.4165 9.75H18.3082C17.7925 9.75 17.3483 9.386 17.2465 8.88008C16.8413 6.87375 15.056 5.41667 12.9998 5.41667C10.9448 5.41667 9.15834 6.87375 8.75425 8.88008C8.65242 9.386 8.20717 9.75 7.6915 9.75H7.58317C5.79134 9.75 4.33317 11.2082 4.33317 13C4.33317 13.793 4.62134 14.5578 5.14567 15.1493C5.54109 15.5989 5.49884 16.2825 5.05034 16.6801C4.60075 17.0766 3.91717 17.0322 3.52175 16.5848C2.6475 15.5957 2.1665 14.3228 2.1665 13C2.1665 10.2613 4.20967 7.99067 6.85192 7.63208C7.74134 5.04942 10.2048 3.25 12.9998 3.25ZM14.0836 19.1142L15.4974 17.7492C15.9285 17.3343 16.6143 17.3462 17.0292 17.7763C17.4452 18.2075 17.4333 18.8932 17.0032 19.3081L13.7532 22.4466C13.5419 22.6481 13.2711 22.7499 13.0003 22.7499C12.7229 22.7499 12.4456 22.6448 12.2344 22.4325L8.98436 19.1825C8.56078 18.76 8.56078 18.0742 8.98436 17.6507C9.40686 17.2282 10.0926 17.2282 10.5162 17.6507L11.9169 19.0514V12.9999C11.9169 12.4008 12.4023 11.9166 13.0003 11.9166C13.5983 11.9166 14.0836 12.4008 14.0836 12.9999V19.1142Z" fill="black"/>
</svg>
