<svg width="26" height="26" viewBox="0 0 26 26" fill="none" xmlns="http://www.w3.org/2000/svg">
<path fill-rule="evenodd" clip-rule="evenodd" d="M8.11974 10.3096C5.91841 12.6919 5.96499 16.4684 8.25949 18.8073C9.37966 19.9524 10.8682 20.584 12.4542 20.585H12.4596C14.0488 20.585 15.5427 19.9535 16.6683 18.8073C19.004 16.4261 18.9997 12.5532 16.6586 10.1753L13.4237 6.87004C13.0966 9.55887 12.088 11.9184 10.2918 11.9184C9.74149 11.9184 8.84449 11.6735 8.11974 10.3096ZM12.4596 22.7517H12.452C10.2788 22.7495 8.24 21.8883 6.71141 20.3229C3.55458 17.1054 3.55025 11.8696 6.70166 8.65753L7.76658 7.58069C8.04175 7.30553 8.4415 7.19936 8.81958 7.29794C9.1955 7.39978 9.488 7.69553 9.5855 8.07253C9.83466 9.03561 10.1315 9.50903 10.2951 9.68886C10.6797 9.28369 11.3752 7.64678 11.3752 4.87669C11.3752 4.71745 11.3752 4.56686 11.3665 4.41628C11.3459 4.09669 11.4683 3.78361 11.7002 3.56261C12.1302 3.1542 12.8192 3.1542 13.232 3.57886L18.2045 8.65861C21.3678 11.8696 21.3732 17.1054 18.2153 20.3239C16.6781 21.8904 14.6349 22.7517 12.4596 22.7517Z" fill="black"/>
</svg>
