<svg width="26" height="26" viewBox="0 0 26 26" fill="none" xmlns="http://www.w3.org/2000/svg">
<path fill-rule="evenodd" clip-rule="evenodd" d="M15.5232 21.6671C15.4506 21.6671 15.3758 21.6639 15.3011 21.6563C14.3477 21.5621 13.6002 20.8893 13.3944 19.9414L10.4878 6.51673L7.49458 13.4306C7.32233 13.8271 6.93125 14.0838 6.50008 14.0838H3.25008C2.651 14.0838 2.16675 13.5985 2.16675 13.0005C2.16675 12.4014 2.651 11.9171 3.25008 11.9171H5.78941L8.50425 5.64573C8.88883 4.76173 9.736 4.24715 10.6991 4.34356C11.6524 4.43781 12.3999 5.11056 12.6057 6.05848L15.5123 19.4831L18.5056 12.5693C18.6778 12.1728 19.0678 11.9171 19.5001 11.9171H22.7501C23.3492 11.9171 23.8334 12.4014 23.8334 13.0005C23.8334 13.5985 23.3492 14.0838 22.7501 14.0838H20.2107L17.4959 20.3541C17.1417 21.1699 16.3822 21.6671 15.5232 21.6671Z" fill="black"/>
</svg>
