<svg width="26" height="26" viewBox="0 0 26 26" fill="none" xmlns="http://www.w3.org/2000/svg">
<path fill-rule="evenodd" clip-rule="evenodd" d="M20.5834 22.6296C20.5834 23.294 20.0645 23.8333 19.4227 23.8333C18.7808 23.8333 18.2619 23.294 18.2619 22.6296C18.2619 19.311 15.6585 16.6111 12.4584 16.6111C9.25829 16.6111 6.6548 19.311 6.6548 22.6296C6.6548 23.294 6.13596 23.8333 5.49409 23.8333C4.85221 23.8333 4.33337 23.294 4.33337 22.6296C4.33337 17.9833 7.97918 14.2037 12.4584 14.2037C16.9376 14.2037 20.5834 17.9833 20.5834 22.6296ZM12.4584 4.57403C13.7386 4.57403 14.7798 5.65375 14.7798 6.98144C14.7798 8.30912 13.7386 9.38884 12.4584 9.38884C11.1781 9.38884 10.1369 8.30912 10.1369 6.98144C10.1369 5.65375 11.1781 4.57403 12.4584 4.57403ZM12.4584 11.7963C15.0189 11.7963 17.1012 9.63681 17.1012 6.98144C17.1012 4.32607 15.0189 2.16663 12.4584 2.16663C9.89784 2.16663 7.81552 4.32607 7.81552 6.98144C7.81552 9.63681 9.89784 11.7963 12.4584 11.7963Z" fill="black"/>
</svg>
