<svg  viewBox="0 0 24 24" fill="none" xmlns="http://www.w3.org/2000/svg" id="__THIS_ID_NEEDS_FOR_UI_ICON_COMPONENT__">
<path fill-rule="evenodd" clip-rule="evenodd" d="M19 10.308C18.448 10.308 18 9.86 18 9.308L17.999 7.415L5.70701 19.707C5.51201 19.902 5.25601 20 5.00001 20C4.74401 20 4.48801 19.902 4.29301 19.707C3.90201 19.316 3.90201 18.683 4.29301 18.293L10.58 12.006L4.74801 6.175C4.35701 5.784 4.35701 5.151 4.74801 4.761C5.13901 4.37 5.77101 4.37 6.16201 4.761L11.994 10.592L16.576 6.009L14.687 6C14.135 5.997 13.689 5.547 13.692 4.995C13.695 4.443 14.169 4.01 14.697 4L19.002 4.021C19.552 4.024 19.997 4.471 19.997 5.021L20 9.307C20 9.859 19.553 10.307 19.001 10.308H19ZM18.9999 13.6791H19.0049C19.5579 13.6821 20.0029 14.1321 19.9999 14.6841L19.9789 18.8921C20.0109 19.1831 19.9309 19.4841 19.7069 19.7071C19.5119 19.9021 19.2559 20.0001 18.9999 20.0001C18.9847 20.0001 18.9698 19.996 18.9548 19.9918C18.9433 19.9886 18.9317 19.9854 18.9199 19.9841L14.6929 19.9871C14.1409 19.9871 13.6929 19.5391 13.6929 18.9871C13.6929 18.4351 14.1399 17.9871 14.6919 17.9871L16.5709 17.9861L13.7929 15.2071C13.4019 14.8161 13.4019 14.1831 13.7929 13.7931C14.1839 13.4021 14.8169 13.4021 15.2069 13.7931L17.9899 16.5761L17.9999 14.6741C18.0029 14.1231 18.4499 13.6791 18.9999 13.6791Z" fill="#202020" style="fill: var(--ui-icon-primary-color);"/>
</svg>
