<svg  viewBox="0 0 24 24" fill="none" xmlns="http://www.w3.org/2000/svg" id="__THIS_ID_NEEDS_FOR_UI_ICON_COMPONENT__">
<path fill-rule="evenodd" clip-rule="evenodd" d="M7.20701 9.70724C6.81601 10.0982 6.18401 10.0982 5.79301 9.70724L2.79301 6.70724C2.40201 6.31624 2.40201 5.68424 2.79301 5.29324L5.79301 2.29324C5.98801 2.09824 6.24401 2.00024 6.50001 2.00024C6.75601 2.00024 7.01201 2.09824 7.20701 2.29324C7.59801 2.68424 7.59801 3.31624 7.20701 3.70724L5.91401 5.00024H17.91C19.89 5.00024 21.5 6.58324 21.5 8.52924V11.0002C21.5 11.5532 21.053 12.0002 20.5 12.0002C19.947 12.0002 19.5 11.5532 19.5 11.0002V8.52924C19.5 7.68624 18.787 7.00024 17.91 7.00024L5.91401 7.00024L7.20701 8.29324C7.59801 8.68424 7.59801 9.31624 7.20701 9.70724ZM18.0858 19.0002H6.08981C4.11081 19.0002 2.49981 17.4172 2.49981 15.4712V13.0002C2.49981 12.4472 2.94681 12.0002 3.49981 12.0002C4.05281 12.0002 4.49981 12.4472 4.49981 13.0002V15.4712C4.49981 16.3132 5.21281 17.0002 6.08981 17.0002H18.0858L16.7928 15.7072C16.4028 15.3162 16.4028 14.6842 16.7928 14.2932C16.9878 14.0982 17.2438 14.0002 17.4998 14.0002C17.7558 14.0002 18.0118 14.0982 18.2068 14.2932L21.2068 17.2932C21.5978 17.6842 21.5978 18.3162 21.2068 18.7072L18.2068 21.7072C17.8168 22.0982 17.1838 22.0982 16.7928 21.7072C16.4028 21.3162 16.4028 20.6842 16.7928 20.2932L18.0858 19.0002Z" fill="#202020" style="fill: var(--ui-icon-primary-color);"/>
</svg>
