<svg  viewBox="0 0 24 24" fill="none" xmlns="http://www.w3.org/2000/svg" id="__THIS_ID_NEEDS_FOR_UI_ICON_COMPONENT__">
<path fill-rule="evenodd" clip-rule="evenodd" d="M14.293 7.20676C13.902 6.81576 13.902 6.18376 14.293 5.79276L17.293 2.79276C17.684 2.40176 18.316 2.40176 18.707 2.79276L21.707 5.79276C21.902 5.98776 22 6.24376 22 6.49976C22 6.75576 21.902 7.01176 21.707 7.20676C21.316 7.59776 20.684 7.59776 20.293 7.20676L19 5.91376V17.9098C19 19.8898 17.417 21.4998 15.471 21.4998H13C12.447 21.4998 12 21.0528 12 20.4998C12 19.9468 12.447 19.4998 13 19.4998H15.471C16.314 19.4998 17 18.7868 17 17.9098V5.91376L15.707 7.20676C15.316 7.59776 14.684 7.59776 14.293 7.20676ZM5.00001 18.0856V6.08956C5.00001 4.11056 6.58301 2.49956 8.52901 2.49956H11C11.553 2.49956 12 2.94656 12 3.49956C12 4.05256 11.553 4.49956 11 4.49956H8.52901C7.68701 4.49956 7.00001 5.21256 7.00001 6.08956V18.0856L8.29301 16.7926C8.68401 16.4026 9.31601 16.4026 9.70701 16.7926C9.90201 16.9876 10 17.2436 10 17.4996C10 17.7556 9.90201 18.0116 9.70701 18.2066L6.70701 21.2066C6.31601 21.5976 5.68401 21.5976 5.29301 21.2066L2.29301 18.2066C1.90201 17.8166 1.90201 17.1836 2.29301 16.7926C2.68401 16.4026 3.31601 16.4026 3.70701 16.7926L5.00001 18.0856Z" fill="#202020" style="fill: var(--ui-icon-primary-color);"/>
</svg>
