<svg  viewBox="0 0 24 24" fill="none" xmlns="http://www.w3.org/2000/svg" id="__THIS_ID_NEEDS_FOR_UI_ICON_COMPONENT__">
<path fill-rule="evenodd" clip-rule="evenodd" d="M16.6161 6.21284C16.1821 5.87084 15.5541 5.94884 15.2131 6.38384L8.15809 15.3918L4.77909 11.1948C4.43109 10.7658 3.80309 10.6958 3.37309 11.0428C2.94209 11.3898 2.87509 12.0198 3.22009 12.4488L7.38909 17.6268C7.58009 17.8628 7.86609 17.9998 8.16909 17.9998H8.17609C8.48009 17.9978 8.76809 17.8568 8.95609 17.6158L16.7871 7.61584C17.1281 7.18184 17.0521 6.55284 16.6161 6.21284ZM21.6161 6.21284C21.1811 5.87084 20.5541 5.94884 20.2131 6.38384L13.1581 15.3918L12.5541 14.6428L11.2891 16.2598L12.3891 17.6268C12.5801 17.8628 12.8661 17.9998 13.1691 17.9998H13.1761C13.4801 17.9978 13.7681 17.8568 13.9561 17.6158L21.7871 7.61584C22.1281 7.18184 22.0521 6.55284 21.6161 6.21284ZM9.97979 11.4444L8.71279 13.0604L8.22079 12.4494C7.87479 12.0194 7.94179 11.3894 8.37279 11.0424C8.80379 10.6964 9.43279 10.7654 9.77879 11.1954L9.97979 11.4444Z" fill="#202020" style="fill: var(--ui-icon-primary-color);"/>
</svg>
