<svg  viewBox="0 0 24 24" fill="none" xmlns="http://www.w3.org/2000/svg" id="__THIS_ID_NEEDS_FOR_UI_ICON_COMPONENT__">
<path d="M21.1225 10.0898C21.1115 10.0914 21.1008 10.0935 21.0897 10.0946C21.0651 10.097 21.0404 10.0983 21.0157 10.0983H16.5157C16.3168 10.0983 16.126 10.0193 15.9854 9.87863C15.8447 9.73797 15.7657 9.54721 15.7657 9.3483C15.7657 9.14938 15.8447 8.95862 15.9854 8.81797C16.126 8.67731 16.3168 8.5983 16.5157 8.5983H19.205L17.3033 6.69666C15.8957 5.29215 13.9885 4.50337 12 4.50337C10.0116 4.50337 8.10435 5.29215 6.69676 6.69666C6.5561 6.83732 6.36532 6.91634 6.1664 6.91634C5.96747 6.91634 5.7767 6.83732 5.63604 6.69666C5.49537 6.55599 5.41635 6.36522 5.41635 6.16629C5.41635 5.96736 5.49537 5.77659 5.63604 5.63593C7.32522 3.95062 9.61392 3.00415 12 3.00415C14.3862 3.00415 16.6749 3.95062 18.3641 5.63593L20.2657 7.53757V4.8483C20.2657 4.64938 20.3447 4.45862 20.4854 4.31797C20.626 4.17731 20.8168 4.0983 21.0157 4.0983C21.2146 4.0983 21.4054 4.17731 21.546 4.31797C21.6867 4.45862 21.7657 4.64938 21.7657 4.8483V9.34782C21.7657 9.37277 21.7645 9.39771 21.762 9.42254C21.761 9.43259 21.759 9.44234 21.7577 9.45227C21.7557 9.46659 21.7539 9.48093 21.7511 9.49513C21.7488 9.50687 21.7455 9.51822 21.7427 9.52975C21.7396 9.54198 21.7369 9.55425 21.7333 9.56633C21.7298 9.57765 21.7256 9.58855 21.7216 9.59963C21.7173 9.61169 21.7133 9.6238 21.7084 9.63566C21.7042 9.64578 21.6993 9.65546 21.6947 9.66534C21.6889 9.67771 21.6834 9.69016 21.6769 9.70226C21.672 9.71134 21.6664 9.71995 21.6612 9.7288C21.654 9.74101 21.6471 9.75331 21.6391 9.76518C21.6329 9.77445 21.6259 9.78311 21.6193 9.79208C21.6114 9.8028 21.6039 9.81372 21.5954 9.8241C21.5845 9.83733 21.5727 9.84975 21.5609 9.86221C21.5558 9.86761 21.5514 9.87337 21.5461 9.87866C21.541 9.88375 21.5354 9.88807 21.5302 9.89298C21.5176 9.90495 21.5049 9.91695 21.4914 9.92802C21.4815 9.93623 21.471 9.94342 21.4607 9.95103C21.4513 9.95797 21.4422 9.96526 21.4325 9.97177C21.421 9.97942 21.4092 9.98608 21.3975 9.99303C21.3881 9.99856 21.3791 10.0044 21.3695 10.0096C21.3578 10.0158 21.3459 10.0211 21.334 10.0267C21.3236 10.0315 21.3135 10.0367 21.3029 10.0411C21.2915 10.0458 21.2799 10.0496 21.2684 10.0537C21.2568 10.0579 21.2454 10.0623 21.2335 10.0659C21.2221 10.0694 21.2105 10.0719 21.199 10.0748C21.1868 10.0779 21.1747 10.0813 21.1623 10.0838C21.1491 10.0864 21.1358 10.0879 21.1225 10.0898ZM17.3033 17.3032C15.8957 18.7077 13.9885 19.4965 12 19.4965C10.0116 19.4965 8.10435 18.7077 6.69676 17.3032L4.79512 15.4016H7.48439C7.6833 15.4016 7.87407 15.3226 8.01472 15.1819C8.15537 15.0413 8.23439 14.8505 8.23439 14.6516C8.23439 14.4527 8.15537 14.2619 8.01472 14.1213C7.87407 13.9806 7.6833 13.9016 7.48439 13.9016H2.98439C2.97878 13.9016 2.97338 13.9023 2.9678 13.9024C2.9488 13.9028 2.9298 13.9034 2.91088 13.9053C2.89792 13.9066 2.88533 13.9089 2.87258 13.9108C2.86114 13.9125 2.84963 13.9138 2.83825 13.9161C2.82463 13.9187 2.81143 13.9224 2.79808 13.9259C2.78774 13.9285 2.7773 13.9308 2.76702 13.9338C2.75432 13.9377 2.74203 13.9424 2.7296 13.9469C2.71889 13.9508 2.70811 13.9543 2.69756 13.9587C2.68634 13.9633 2.67556 13.9688 2.66462 13.9739C2.65331 13.9793 2.64192 13.9843 2.63084 13.9902C2.62086 13.9956 2.61138 14.0017 2.60168 14.0074C2.59031 14.0142 2.57882 14.0207 2.56774 14.0281C2.55778 14.0347 2.54844 14.0422 2.53885 14.0493C2.52876 14.0568 2.51848 14.0638 2.50869 14.0718C2.49511 14.083 2.48237 14.0951 2.46959 14.1072C2.46449 14.112 2.45904 14.1162 2.45403 14.1212C2.44874 14.1265 2.44426 14.1323 2.43915 14.1377C2.42741 14.1501 2.4156 14.1625 2.40473 14.1758C2.39619 14.1862 2.38869 14.1971 2.38079 14.2078C2.37417 14.2168 2.36722 14.2254 2.36101 14.2347C2.35305 14.2466 2.34611 14.2589 2.3389 14.2711C2.33369 14.2799 2.3281 14.2885 2.32323 14.2976C2.31675 14.3097 2.31121 14.3222 2.30544 14.3345C2.30082 14.3444 2.29587 14.3541 2.29166 14.3642C2.28676 14.3761 2.28275 14.3882 2.27848 14.4002C2.27454 14.4113 2.27026 14.4222 2.26683 14.4335C2.26316 14.4456 2.26046 14.4579 2.25742 14.4701C2.25456 14.4817 2.25131 14.493 2.24897 14.5047C2.24616 14.5189 2.24442 14.5333 2.24243 14.5476C2.24105 14.5575 2.23913 14.5673 2.23815 14.5773C2.23565 14.6022 2.2344 14.6271 2.2344 14.6521V19.1516C2.2344 19.3505 2.31342 19.5413 2.45407 19.6819C2.59472 19.8226 2.78549 19.9016 2.9844 19.9016C3.18331 19.9016 3.37408 19.8226 3.51473 19.6819C3.65538 19.5413 3.7344 19.3505 3.7344 19.1516V16.4623L5.63604 18.364C7.32523 20.0493 9.61392 20.9957 12.0001 20.9957C14.3862 20.9957 16.6749 20.0493 18.3641 18.364C18.4337 18.2943 18.489 18.2116 18.5267 18.1206C18.5644 18.0296 18.5838 17.9321 18.5838 17.8336C18.5838 17.7351 18.5644 17.6376 18.5267 17.5466C18.489 17.4556 18.4337 17.3729 18.3641 17.3032C18.2944 17.2336 18.2117 17.1783 18.1207 17.1406C18.0297 17.1029 17.9322 17.0835 17.8337 17.0835C17.7352 17.0835 17.6377 17.1029 17.5467 17.1406C17.4557 17.1783 17.373 17.2336 17.3033 17.3032H17.3033Z" fill="#202020" style="fill: var(--ui-icon-primary-color);"/>
</svg>
