<svg  viewBox="0 0 24 24" fill="none" xmlns="http://www.w3.org/2000/svg" id="__THIS_ID_NEEDS_FOR_UI_ICON_COMPONENT__">
<path fill-rule="evenodd" clip-rule="evenodd" d="M13 18.2494V14.1784L15.467 16.5574L13 18.2494ZM13 5.76042L15.497 7.49342L13 9.85042V5.76042ZM13.629 12.0064L17.644 8.21642C17.895 7.97842 18.023 7.64642 17.997 7.30442C17.97 6.96142 17.792 6.65142 17.507 6.45442L12.833 3.21042C12.474 2.95842 12.008 2.93042 11.618 3.13342C11.237 3.33242 11 3.72042 11 4.14542V10.3514L7.80696 6.37442C7.45996 5.94242 6.83196 5.87442 6.40096 6.22042C5.96996 6.56542 5.90096 7.19542 6.24696 7.62542L9.72096 11.9524L6.21596 16.3794C5.87296 16.8124 5.94596 17.4404 6.37896 17.7844C6.56296 17.9294 6.78196 17.9994 6.99996 17.9994C7.29396 17.9994 7.58596 17.8704 7.78396 17.6204L11 13.5594V19.8534C11 20.2774 11.235 20.6644 11.613 20.8644C11.787 20.9554 11.975 21.0004 12.163 21.0004C12.395 21.0004 12.626 20.9314 12.827 20.7944L17.469 17.6084C17.754 17.4124 17.934 17.1034 17.961 16.7614C17.989 16.4204 17.863 16.0884 17.616 15.8514L13.629 12.0064Z" fill="#202020" style="fill: var(--ui-icon-primary-color);"/>
</svg>
