<svg  viewBox="0 0 24 24" fill="none" xmlns="http://www.w3.org/2000/svg" id="__THIS_ID_NEEDS_FOR_UI_ICON_COMPONENT__">
<path fill-rule="evenodd" clip-rule="evenodd" d="M17.7657 7.39249L11.8987 13.2575C11.7477 13.0315 11.5747 12.8175 11.3777 12.6215C11.1807 12.4245 10.9667 12.2525 10.7407 12.1045L16.6097 6.23749C16.9157 5.93049 17.4577 5.92949 17.7667 6.23849C17.9197 6.39149 18.0027 6.59149 17.9997 6.82749C18.0027 7.03849 17.9187 7.23849 17.7657 7.39249ZM8.24568 17.9405L6.01768 17.9815L6.05668 15.7505C6.07768 14.4845 7.12668 13.4345 8.39568 13.4125C8.40968 13.4125 8.42168 13.4115 8.43568 13.4115C9.01968 13.4115 9.56068 13.6315 9.96368 14.0355C10.3767 14.4475 10.5977 15.0035 10.5877 15.6015C10.5667 16.8695 9.51568 17.9185 8.24568 17.9405ZM19.9997 6.82749C20.0097 6.07149 19.7177 5.35949 19.1807 4.82349C18.1187 3.76249 16.2557 3.75949 15.1957 4.82349L8.58268 11.4335C8.50768 11.4295 8.43568 11.4135 8.36068 11.4125C6.02668 11.4545 4.09568 13.3855 4.05668 15.7165L3.99968 18.9825C3.99468 19.2535 4.10168 19.5155 4.29268 19.7065C4.48068 19.8945 4.73568 19.9995 4.99968 19.9995H5.01868L8.28468 19.9405C10.6167 19.8995 12.5467 17.9685 12.5877 15.6355C12.5887 15.5605 12.5727 15.4895 12.5707 15.4135L19.1797 8.80649C19.7177 8.26849 20.0097 7.55649 19.9997 6.82749Z" fill="#202020" style="fill: var(--ui-icon-primary-color);"/>
</svg>
