<svg  viewBox="0 0 24 24" fill="none" xmlns="http://www.w3.org/2000/svg" id="__THIS_ID_NEEDS_FOR_UI_ICON_COMPONENT__">
<path d="M18.7495 16.498C18.7494 16.697 18.6704 16.8877 18.5298 17.0284C18.3891 17.169 18.1984 17.248 17.9995 17.248H16.4995C16.3005 17.248 16.1098 17.169 15.9691 17.0284C15.8285 16.8877 15.7495 16.697 15.7495 16.498C15.7495 16.2991 15.8285 16.1084 15.9691 15.9677C16.1098 15.8271 16.3005 15.748 16.4995 15.748H17.9995C18.1984 15.748 18.3891 15.8271 18.5298 15.9677C18.6704 16.1084 18.7494 16.2991 18.7495 16.498ZM17.9995 11.998H16.4995C16.3005 11.998 16.1098 12.0771 15.9691 12.2177C15.8285 12.3584 15.7495 12.5491 15.7495 12.748C15.7495 12.947 15.8285 13.1377 15.9691 13.2784C16.1098 13.419 16.3005 13.498 16.4995 13.498H17.9995C18.1984 13.498 18.3891 13.419 18.5298 13.2784C18.6704 13.1377 18.7495 12.947 18.7495 12.748C18.7495 12.5491 18.6704 12.3584 18.5298 12.2177C18.3891 12.0771 18.1984 11.998 17.9995 11.998ZM21.7495 9.74805V20.998C21.7495 21.197 21.6704 21.3877 21.5298 21.5284C21.3891 21.669 21.1984 21.748 20.9995 21.748C20.8005 21.748 20.6098 21.669 20.4691 21.5284C20.3285 21.3877 20.2495 21.197 20.2495 20.998V9.74805H14.2495V20.998C14.2494 21.197 14.1704 21.3877 14.0298 21.5284C13.8891 21.669 13.6984 21.748 13.4995 21.748H2.99945C2.80054 21.748 2.60977 21.669 2.46912 21.5284C2.32847 21.3877 2.24945 21.197 2.24945 20.998V3.74805C2.24991 3.35036 2.40809 2.9691 2.68929 2.68789C2.9705 2.40668 3.35177 2.2485 3.74945 2.24805H12.7495C13.1471 2.2485 13.5284 2.40668 13.8096 2.68789C14.0908 2.9691 14.249 3.35036 14.2495 3.74805V8.24805H20.2495C20.6471 8.2485 21.0284 8.40668 21.3096 8.68789C21.5908 8.9691 21.749 9.35036 21.7495 9.74805ZM5.24945 6.74805C5.24945 6.94696 5.32847 7.13772 5.46912 7.27837C5.60977 7.41903 5.80054 7.49804 5.99945 7.49805H8.99945C9.19836 7.49805 9.38913 7.41903 9.52978 7.27838C9.67043 7.13772 9.74945 6.94696 9.74945 6.74805C9.74945 6.54913 9.67043 6.35837 9.52978 6.21772C9.38913 6.07706 9.19836 5.99805 8.99945 5.99805H5.99945C5.80054 5.99805 5.60977 6.07707 5.46912 6.21772C5.32847 6.35837 5.24945 6.54914 5.24945 6.74805ZM9.74945 17.998C9.74945 17.7991 9.67043 17.6084 9.52978 17.4677C9.38913 17.3271 9.19836 17.248 8.99945 17.248H5.99945C5.80054 17.248 5.60977 17.3271 5.46912 17.4677C5.32847 17.6084 5.24945 17.7991 5.24945 17.998C5.24945 18.197 5.32847 18.3877 5.46912 18.5284C5.60977 18.669 5.80054 18.748 5.99945 18.748H8.99945C9.19836 18.748 9.38913 18.669 9.52978 18.5284C9.67043 18.3877 9.74945 18.197 9.74945 17.998ZM11.2495 14.248C11.2494 14.0491 11.1704 13.8584 11.0298 13.7177C10.8891 13.5771 10.6984 13.498 10.4995 13.498H7.49945C7.30054 13.498 7.10977 13.5771 6.96912 13.7177C6.82847 13.8584 6.74945 14.0491 6.74945 14.248C6.74945 14.447 6.82847 14.6377 6.96912 14.7784C7.10977 14.919 7.30054 14.998 7.49945 14.998H10.4995C10.6984 14.998 10.8891 14.919 11.0298 14.7784C11.1704 14.6377 11.2494 14.447 11.2495 14.248Z" fill="#202020" style="fill: var(--ui-icon-primary-color);"/>
</svg>
