<svg  viewBox="0 0 24 24" fill="none" xmlns="http://www.w3.org/2000/svg" id="__THIS_ID_NEEDS_FOR_UI_ICON_COMPONENT__">
<path fill-rule="evenodd" clip-rule="evenodd" d="M19.168 6.46676L17.73 7.85676C17.536 8.04376 17.285 8.13776 17.035 8.13776C16.773 8.13776 16.512 8.03476 16.316 7.83176C15.933 7.43576 15.943 6.80176 16.341 6.41876L17.779 5.02976C18.176 4.64676 18.812 4.65676 19.192 5.05376C19.576 5.44976 19.565 6.08376 19.168 6.46676ZM7.684 7.83176C7.488 8.03476 7.227 8.13776 6.965 8.13776C6.715 8.13776 6.464 8.04476 6.27 7.85776L4.831 6.46776C4.434 6.08376 4.423 5.44976 4.807 5.05376C5.191 4.65676 5.823 4.64476 6.221 5.02876L7.66 6.41776C8.057 6.80176 8.068 7.43576 7.684 7.83176ZM6 11.9998C6 12.5528 5.552 12.9998 5 12.9998H3C2.448 12.9998 2 12.5528 2 11.9998C2 11.4468 2.448 10.9998 3 10.9998H5C5.552 10.9998 6 11.4468 6 11.9998ZM22 11.9998C22 12.5528 21.553 12.9998 21 12.9998H19C18.447 12.9998 18 12.5528 18 11.9998C18 11.4468 18.447 10.9998 19 10.9998H21C21.553 10.9998 22 11.4468 22 11.9998ZM11 4.99976V2.99976C11 2.44676 11.448 1.99976 12 1.99976C12.552 1.99976 13 2.44676 13 2.99976V4.99976C13 5.55276 12.552 5.99976 12 5.99976C11.448 5.99976 11 5.55276 11 4.99976ZM13.501 14.5928C13.191 14.7718 13 15.1028 13 15.4598V19.9998H11V15.4598C11 15.1028 10.809 14.7718 10.499 14.5928C9.574 14.0618 9 13.0678 9 11.9998C9 10.3458 10.346 8.99976 12 8.99976C13.654 8.99976 15 10.3458 15 11.9998C15 13.0678 14.426 14.0618 13.501 14.5928ZM12 6.99976C9.243 6.99976 7 9.24276 7 11.9998C7 13.5788 7.753 15.0618 9 15.9958V19.9998C9 21.1028 9.897 21.9998 11 21.9998H13C14.103 21.9998 15 21.1028 15 19.9998V15.9958C16.246 15.0618 17 13.5788 17 11.9998C17 9.24276 14.757 6.99976 12 6.99976Z" fill="#202020" style="fill: var(--ui-icon-primary-color);"/>
</svg>
