<svg  viewBox="0 0 24 24" fill="none" xmlns="http://www.w3.org/2000/svg" id="__THIS_ID_NEEDS_FOR_UI_ICON_COMPONENT__">
<path d="M18.75 2.25049H5.25C4.85231 2.25094 4.47105 2.40912 4.18984 2.69033C3.90864 2.97154 3.75045 3.3528 3.75 3.75049V20.2505C3.75045 20.6482 3.90864 21.0294 4.18984 21.3106C4.47105 21.5919 4.85231 21.75 5.25 21.7505H18.75C19.1477 21.75 19.529 21.5919 19.8102 21.3106C20.0914 21.0294 20.2495 20.6482 20.25 20.2505V3.75049C20.2495 3.3528 20.0914 2.97154 19.8102 2.69033C19.529 2.40912 19.1477 2.25094 18.75 2.25049ZM8.25 18.7498C8.0275 18.7498 7.80999 18.6838 7.62498 18.5602C7.43998 18.4365 7.29578 18.2608 7.21064 18.0553C7.12549 17.8497 7.10321 17.6235 7.14662 17.4053C7.19002 17.1871 7.29717 16.9866 7.4545 16.8293C7.61184 16.6719 7.81229 16.5648 8.03052 16.5214C8.24875 16.478 8.47495 16.5002 8.68052 16.5854C8.88609 16.6705 9.06179 16.8147 9.1854 16.9997C9.30902 17.1847 9.375 17.4023 9.375 17.6248C9.37466 17.923 9.25602 18.209 9.04512 18.4199C8.83421 18.6308 8.54826 18.7494 8.25 18.7498ZM8.25 14.9998C8.0275 14.9998 7.80999 14.9338 7.62498 14.8102C7.43998 14.6865 7.29578 14.5108 7.21064 14.3053C7.12549 14.0997 7.10321 13.8735 7.14662 13.6553C7.19002 13.4371 7.29717 13.2366 7.4545 13.0793C7.61184 12.9219 7.81229 12.8148 8.03052 12.7714C8.24875 12.728 8.47495 12.7502 8.68052 12.8354C8.88609 12.9205 9.06179 13.0647 9.1854 13.2497C9.30902 13.4347 9.375 13.6523 9.375 13.8748C9.37466 14.173 9.25602 14.459 9.04512 14.6699C8.83421 14.8808 8.54826 14.9994 8.25 14.9998ZM12 18.7498C11.7775 18.7498 11.56 18.6838 11.375 18.5602C11.19 18.4365 11.0458 18.2608 10.9606 18.0553C10.8755 17.8497 10.8532 17.6235 10.8966 17.4053C10.94 17.1871 11.0472 16.9866 11.2045 16.8293C11.3618 16.6719 11.5623 16.5648 11.7805 16.5214C11.9988 16.478 12.225 16.5002 12.4305 16.5854C12.6361 16.6705 12.8118 16.8147 12.9354 16.9997C13.059 17.1847 13.125 17.4023 13.125 17.6248C13.1247 17.923 13.006 18.209 12.7951 18.4199C12.5842 18.6308 12.2983 18.7494 12 18.7498ZM12 14.9998C11.7775 14.9998 11.56 14.9338 11.375 14.8102C11.19 14.6865 11.0458 14.5108 10.9606 14.3053C10.8755 14.0997 10.8532 13.8735 10.8966 13.6553C10.94 13.4371 11.0472 13.2366 11.2045 13.0793C11.3618 12.9219 11.5623 12.8148 11.7805 12.7714C11.9988 12.728 12.225 12.7502 12.4305 12.8354C12.6361 12.9205 12.8118 13.0647 12.9354 13.2497C13.059 13.4347 13.125 13.6523 13.125 13.8748C13.1247 14.173 13.006 14.459 12.7951 14.6699C12.5842 14.8808 12.2983 14.9994 12 14.9998ZM15.75 18.7498C15.5275 18.7498 15.31 18.6838 15.125 18.5602C14.94 18.4365 14.7958 18.2608 14.7106 18.0553C14.6255 17.8497 14.6032 17.6235 14.6466 17.4053C14.69 17.1871 14.7972 16.9866 14.9545 16.8293C15.1118 16.6719 15.3123 16.5648 15.5305 16.5214C15.7488 16.478 15.975 16.5002 16.1805 16.5854C16.3861 16.6705 16.5618 16.8147 16.6854 16.9997C16.809 17.1847 16.875 17.4023 16.875 17.6248C16.8747 17.923 16.756 18.209 16.5451 18.4199C16.3342 18.6308 16.0483 18.7494 15.75 18.7498ZM15.75 14.9998C15.5275 14.9998 15.31 14.9338 15.125 14.8102C14.94 14.6865 14.7958 14.5108 14.7106 14.3053C14.6255 14.0997 14.6032 13.8735 14.6466 13.6553C14.69 13.4371 14.7972 13.2366 14.9545 13.0793C15.1118 12.9219 15.3123 12.8148 15.5305 12.7714C15.7488 12.728 15.975 12.7502 16.1805 12.8354C16.3861 12.9205 16.5618 13.0647 16.6854 13.2497C16.809 13.4347 16.875 13.6523 16.875 13.8748C16.8747 14.173 16.756 14.459 16.5451 14.6699C16.3342 14.8808 16.0483 14.9994 15.75 14.9998ZM17.25 9.74976C17.25 9.84825 17.2306 9.94578 17.1929 10.0368C17.1552 10.1278 17.1 10.2104 17.0303 10.2801C16.9607 10.3497 16.878 10.405 16.787 10.4427C16.696 10.4804 16.5985 10.4998 16.5 10.4998H7.5C7.40151 10.4998 7.30398 10.4804 7.21298 10.4427C7.12199 10.405 7.03931 10.3497 6.96966 10.2801C6.90002 10.2104 6.84477 10.1278 6.80708 10.0368C6.76939 9.94578 6.75 9.84825 6.75 9.74976V5.99976C6.75 5.90126 6.76939 5.80374 6.80708 5.71274C6.84477 5.62174 6.90002 5.53906 6.96966 5.46942C7.03931 5.39978 7.12199 5.34453 7.21298 5.30684C7.30398 5.26915 7.40151 5.24975 7.5 5.24976H16.5C16.5985 5.24975 16.696 5.26915 16.787 5.30684C16.878 5.34453 16.9607 5.39978 17.0303 5.46942C17.1 5.53906 17.1552 5.62174 17.1929 5.71274C17.2306 5.80374 17.25 5.90126 17.25 5.99976V9.74976Z" fill="#202020" style="fill: var(--ui-icon-primary-color);"/>
</svg>
