<svg  viewBox="0 0 24 24" fill="none" xmlns="http://www.w3.org/2000/svg" id="__THIS_ID_NEEDS_FOR_UI_ICON_COMPONENT__">
<path d="M19.4995 2.99951H17.2495V2.24951C17.2495 2.0506 17.1704 1.85983 17.0298 1.71918C16.8891 1.57853 16.6984 1.49951 16.4995 1.49951C16.3005 1.49951 16.1098 1.57853 15.9691 1.71918C15.8285 1.85983 15.7495 2.0506 15.7495 2.24951V2.99951H8.24945V2.24951C8.24945 2.0506 8.17043 1.85983 8.02978 1.71918C7.88913 1.57853 7.69836 1.49951 7.49945 1.49951C7.30054 1.49951 7.10977 1.57853 6.96912 1.71918C6.82847 1.85983 6.74945 2.0506 6.74945 2.24951V2.99951H4.49945C4.10175 2.9999 3.72044 3.15807 3.43922 3.43929C3.158 3.7205 2.99984 4.10181 2.99945 4.49951V19.4995C2.99984 19.8972 3.158 20.2785 3.43922 20.5597C3.72044 20.841 4.10175 20.9991 4.49945 20.9995H19.4995C19.8972 20.9991 20.2785 20.841 20.5597 20.5597C20.8409 20.2785 20.9991 19.8972 20.9995 19.4995V4.49951C20.9991 4.10181 20.8409 3.7205 20.5597 3.43929C20.2785 3.15807 19.8972 2.9999 19.4995 2.99951ZM19.4995 7.49951H4.49945V4.49951H6.74945V5.24951C6.74945 5.44842 6.82847 5.63919 6.96912 5.77984C7.10977 5.92049 7.30054 5.99951 7.49945 5.99951C7.69836 5.99951 7.88913 5.92049 8.02978 5.77984C8.17043 5.63919 8.24945 5.44842 8.24945 5.24951V4.49951H15.7495V5.24951C15.7495 5.44842 15.8285 5.63919 15.9691 5.77984C16.1098 5.92049 16.3005 5.99951 16.4995 5.99951C16.6984 5.99951 16.8891 5.92049 17.0298 5.77984C17.1704 5.63919 17.2495 5.44842 17.2495 5.24951V4.49951H19.4995V7.49951Z" fill="#202020" style="fill: var(--ui-icon-primary-color);"/>
</svg>
