<svg  viewBox="0 0 24 24" fill="none" xmlns="http://www.w3.org/2000/svg" id="__THIS_ID_NEEDS_FOR_UI_ICON_COMPONENT__">
<path d="M19.4995 2.99951H17.2495V2.24951C17.2495 2.0506 17.1704 1.85983 17.0298 1.71918C16.8891 1.57853 16.6984 1.49951 16.4995 1.49951C16.3005 1.49951 16.1098 1.57853 15.9691 1.71918C15.8285 1.85983 15.7495 2.0506 15.7495 2.24951V2.99951H8.24945V2.24951C8.24945 2.0506 8.17043 1.85983 8.02978 1.71918C7.88913 1.57853 7.69836 1.49951 7.49945 1.49951C7.30054 1.49951 7.10977 1.57853 6.96912 1.71918C6.82847 1.85983 6.74945 2.0506 6.74945 2.24951V2.99951H4.49945C4.10175 2.9999 3.72044 3.15807 3.43922 3.43929C3.158 3.7205 2.99984 4.10181 2.99945 4.49951V19.4995C2.99984 19.8972 3.158 20.2785 3.43922 20.5597C3.72044 20.841 4.10175 20.9991 4.49945 20.9995H19.4995C19.8972 20.9991 20.2785 20.841 20.5597 20.5597C20.8409 20.2785 20.9991 19.8972 20.9995 19.4995V4.49951C20.9991 4.10181 20.8409 3.7205 20.5597 3.43929C20.2785 3.15807 19.8972 2.9999 19.4995 2.99951ZM9.75 17.6245C9.45463 17.6253 9.16203 17.5676 8.88912 17.4546C8.6162 17.3417 8.36837 17.1757 8.15996 16.9664C8.01922 16.8259 7.94009 16.6351 7.93998 16.4362C7.93986 16.2373 8.01877 16.0465 8.15934 15.9058C8.29991 15.765 8.49063 15.6859 8.68954 15.6858C8.88845 15.6857 9.07927 15.7646 9.22 15.9052C9.30725 15.9923 9.41465 16.0566 9.53267 16.0923C9.6507 16.1281 9.77572 16.1341 9.89666 16.11C10.0176 16.0859 10.1307 16.0323 10.226 15.9541C10.3213 15.8758 10.3958 15.7752 10.443 15.6613C10.4902 15.5474 10.5085 15.4235 10.4964 15.3008C10.4843 15.1781 10.4421 15.0603 10.3735 14.9577C10.305 14.8552 10.2123 14.7712 10.1035 14.713C9.99473 14.6549 9.87332 14.6245 9.75 14.6245H9.74954C9.7262 14.6245 9.70285 14.6231 9.67955 14.6209C9.67209 14.6203 9.66481 14.6191 9.65744 14.6182C9.64183 14.6163 9.62627 14.614 9.61075 14.6111C9.6021 14.6095 9.59354 14.6076 9.58498 14.6057C9.57088 14.6025 9.55683 14.5989 9.54287 14.5949C9.53435 14.5924 9.52584 14.59 9.51746 14.5873C9.50336 14.5827 9.4894 14.5774 9.47553 14.572C9.46798 14.569 9.46033 14.5663 9.45292 14.5631C9.43676 14.5561 9.42087 14.5482 9.40503 14.54C9.40046 14.5376 9.39565 14.5356 9.39112 14.5331C9.37134 14.5223 9.35193 14.5105 9.33289 14.4978C9.32648 14.4935 9.32053 14.4886 9.31426 14.4841C9.30327 14.4763 9.29215 14.4687 9.28148 14.4602C9.28011 14.4591 9.27892 14.4578 9.27755 14.4567C9.26624 14.4475 9.25562 14.4376 9.24486 14.4277C9.23703 14.4206 9.22879 14.4137 9.22133 14.4063C9.2141 14.3991 9.20755 14.3913 9.20059 14.3838C9.10984 14.2859 9.04673 14.1656 9.01772 14.0353C9.01721 14.0329 9.01639 14.0306 9.01589 14.0282C9.01328 14.0156 9.01172 14.0026 9.00975 13.9897C9.00797 13.9781 9.00568 13.9665 9.00444 13.9548C9.00339 13.9452 9.00325 13.9353 9.00257 13.9256C9.00151 13.9102 9.00037 13.8949 9.00028 13.8795C9.00023 13.8778 9 13.8762 9 13.8745C9 13.8667 9.00092 13.8592 9.00119 13.8514C9.00165 13.8359 9.00211 13.8204 9.00352 13.8049C9.00449 13.7944 9.00613 13.7841 9.00756 13.7738C9.00943 13.7598 9.01126 13.7459 9.01392 13.732C9.01608 13.7209 9.01886 13.71 9.02147 13.6991C9.02454 13.6863 9.02756 13.6735 9.03132 13.6608C9.0347 13.6495 9.03869 13.6384 9.04258 13.6273C9.04674 13.6154 9.05082 13.6035 9.05558 13.5918C9.06025 13.5803 9.06556 13.5692 9.07077 13.558C9.0759 13.5471 9.08084 13.5361 9.08652 13.5254C9.09266 13.5137 9.09952 13.5024 9.10625 13.4911C9.11207 13.4814 9.11765 13.4716 9.12392 13.462C9.13189 13.45 9.14054 13.4386 9.14914 13.427C9.15436 13.4201 9.15885 13.4128 9.16434 13.4059L9.68953 12.7495H8.625C8.42609 12.7495 8.23532 12.6705 8.09467 12.5298C7.95402 12.3892 7.875 12.1984 7.875 11.9995C7.875 11.8006 7.95402 11.6098 8.09467 11.4692C8.23532 11.3285 8.42609 11.2495 8.625 11.2495H11.25C11.3913 11.2495 11.5297 11.2894 11.6493 11.3646C11.7689 11.4398 11.8648 11.5473 11.926 11.6746C11.9872 11.802 12.0112 11.944 11.9952 12.0844C11.9792 12.2247 11.9239 12.3578 11.8357 12.4681L11.0042 13.5074C11.4046 13.7762 11.708 14.1665 11.8697 14.6208C12.0315 15.0751 12.0429 15.5693 11.9024 16.0306C11.7619 16.4919 11.4768 16.8958 11.0893 17.1828C10.7017 17.4698 10.2322 17.6246 9.75 17.6245ZM15.75 16.8745C15.75 17.0734 15.671 17.2642 15.5303 17.4048C15.3897 17.5455 15.1989 17.6245 15 17.6245C14.8011 17.6245 14.6103 17.5455 14.4697 17.4048C14.329 17.2642 14.25 17.0734 14.25 16.8745V13.4995L13.95 13.7245C13.7908 13.8439 13.5908 13.8951 13.3939 13.867C13.197 13.8388 13.0193 13.7336 12.9 13.5745C12.7806 13.4154 12.7294 13.2153 12.7575 13.0184C12.7857 12.8215 12.8909 12.6438 13.05 12.5245L14.55 11.3995C14.6615 11.3159 14.7939 11.265 14.9327 11.2525C15.0714 11.24 15.2108 11.2664 15.3354 11.3287C15.46 11.391 15.5648 11.4868 15.638 11.6052C15.7112 11.7237 15.75 11.8602 15.75 11.9995V16.8745ZM19.4995 7.49951H4.49945V4.49951H6.74945V5.24951C6.74945 5.44842 6.82847 5.63919 6.96912 5.77984C7.10977 5.92049 7.30054 5.99951 7.49945 5.99951C7.69836 5.99951 7.88913 5.92049 8.02978 5.77984C8.17043 5.63919 8.24945 5.44842 8.24945 5.24951V4.49951H15.7495V5.24951C15.7495 5.44842 15.8285 5.63919 15.9691 5.77984C16.1098 5.92049 16.3005 5.99951 16.4995 5.99951C16.6984 5.99951 16.8891 5.92049 17.0298 5.77984C17.1704 5.63919 17.2495 5.44842 17.2495 5.24951V4.49951H19.4995V7.49951Z" fill="#202020" style="fill: var(--ui-icon-primary-color);"/>
</svg>
