<svg  viewBox="0 0 24 24" fill="none" xmlns="http://www.w3.org/2000/svg" id="__THIS_ID_NEEDS_FOR_UI_ICON_COMPONENT__">
<path d="M19.4995 2.99951H17.2495V2.24951C17.2495 2.0506 17.1704 1.85983 17.0298 1.71918C16.8891 1.57853 16.6984 1.49951 16.4995 1.49951C16.3005 1.49951 16.1098 1.57853 15.9691 1.71918C15.8285 1.85983 15.7495 2.0506 15.7495 2.24951V2.99951H8.24945V2.24951C8.24945 2.0506 8.17043 1.85983 8.02978 1.71918C7.88913 1.57853 7.69836 1.49951 7.49945 1.49951C7.30054 1.49951 7.10977 1.57853 6.96912 1.71918C6.82847 1.85983 6.74945 2.0506 6.74945 2.24951V2.99951H4.49945C4.10175 2.9999 3.72044 3.15807 3.43922 3.43929C3.158 3.7205 2.99984 4.10181 2.99945 4.49951V19.4995C2.99984 19.8972 3.158 20.2785 3.43922 20.5597C3.72044 20.841 4.10175 20.9991 4.49945 20.9995H19.4995C19.8972 20.9991 20.2785 20.841 20.5597 20.5597C20.8409 20.2785 20.9991 19.8972 20.9995 19.4995V4.49951C20.9991 4.10181 20.8409 3.7205 20.5597 3.43929C20.2785 3.15807 19.8972 2.9999 19.4995 2.99951ZM14.7797 15.9692C14.8495 16.0388 14.9048 16.1215 14.9426 16.2125C14.9804 16.3036 14.9999 16.4011 14.9999 16.4997C15 16.5982 14.9806 16.6958 14.9429 16.7869C14.9052 16.8779 14.85 16.9607 14.7803 17.0303C14.7106 17.1 14.6279 17.1553 14.5368 17.193C14.4458 17.2307 14.3482 17.25 14.2496 17.25C14.1511 17.2499 14.0535 17.2305 13.9625 17.1927C13.8715 17.1549 13.7888 17.0995 13.7192 17.0298L11.9995 15.3101L10.2797 17.0298C10.139 17.1702 9.94837 17.249 9.74962 17.2489C9.55086 17.2488 9.36028 17.1698 9.21974 17.0292C9.0792 16.8887 9.0002 16.6981 9.0001 16.4993C8.99999 16.3006 9.07879 16.1099 9.21918 15.9692L10.9389 14.2495L9.21918 12.5298C9.14942 12.4602 9.09406 12.3775 9.05628 12.2865C9.01849 12.1955 8.99902 12.0979 8.99897 11.9993C8.99891 11.9008 9.01828 11.8032 9.05597 11.7121C9.09366 11.6211 9.14893 11.5384 9.21861 11.4687C9.2883 11.399 9.37103 11.3437 9.46209 11.306C9.55314 11.2683 9.65074 11.249 9.74929 11.249C9.84783 11.2491 9.94541 11.2686 10.0364 11.3063C10.1274 11.3441 10.2101 11.3995 10.2797 11.4692L11.9995 13.189L13.7192 11.4692C13.7888 11.3995 13.8715 11.3441 13.9625 11.3063C14.0535 11.2686 14.1511 11.2491 14.2496 11.249C14.3482 11.249 14.4458 11.2683 14.5368 11.306C14.6279 11.3437 14.7106 11.399 14.7803 11.4687C14.85 11.5384 14.9052 11.6211 14.9429 11.7121C14.9806 11.8032 15 11.9008 14.9999 11.9993C14.9999 12.0979 14.9804 12.1955 14.9426 12.2865C14.9048 12.3775 14.8495 12.4602 14.7797 12.5298L13.06 14.2495L14.7797 15.9692ZM19.4995 7.49951H4.49945V4.49951H6.74945V5.24951C6.74945 5.44842 6.82847 5.63919 6.96912 5.77984C7.10977 5.92049 7.30054 5.99951 7.49945 5.99951C7.69836 5.99951 7.88913 5.92049 8.02978 5.77984C8.17043 5.63919 8.24945 5.44842 8.24945 5.24951V4.49951H15.7495V5.24951C15.7495 5.44842 15.8285 5.63919 15.9691 5.77984C16.1098 5.92049 16.3005 5.99951 16.4995 5.99951C16.6984 5.99951 16.8891 5.92049 17.0298 5.77984C17.1704 5.63919 17.2495 5.44842 17.2495 5.24951V4.49951H19.4995V7.49951Z" fill="#202020" style="fill: var(--ui-icon-primary-color);"/>
</svg>
