<svg  viewBox="0 0 24 24" fill="none" xmlns="http://www.w3.org/2000/svg" id="__THIS_ID_NEEDS_FOR_UI_ICON_COMPONENT__">
<path d="M3.69136 1.74504C3.55756 1.59784 3.37076 1.50983 3.17207 1.50036C2.97338 1.49089 2.77906 1.56074 2.63187 1.69455C2.48467 1.82835 2.39666 2.01514 2.38719 2.21384C2.37772 2.41253 2.44757 2.60685 2.58138 2.75404L4.85001 5.24954H4.49995C3.90343 5.25022 3.33153 5.48749 2.90972 5.9093C2.48791 6.33111 2.25064 6.90301 2.24995 7.49954V17.9995C2.25064 18.5961 2.48791 19.168 2.90972 19.5898C3.33153 20.0116 3.90343 20.2489 4.49995 20.2495H18.4864L20.3086 22.254C20.4424 22.4012 20.6292 22.4892 20.8279 22.4987C21.0266 22.5082 21.2209 22.4383 21.3681 22.3045C21.5153 22.1707 21.6033 21.9839 21.6128 21.7852C21.6223 21.5865 21.5524 21.3922 21.4186 21.245L3.69136 1.74504ZM12 15.7495C11.3613 15.75 10.7356 15.5691 10.1957 15.2279C9.65584 14.8867 9.22394 14.3992 8.95028 13.8221C8.67661 13.245 8.57244 12.6021 8.64988 11.9681C8.72732 11.3342 8.9832 10.7352 9.38773 10.241L13.8771 15.1793C13.3221 15.5521 12.6685 15.7506 12 15.7495ZM21.75 7.49954V17.4397C21.75 17.5911 21.7042 17.739 21.6186 17.8638C21.533 17.9887 21.4116 18.0847 21.2704 18.1393C21.1292 18.1939 20.9748 18.2045 20.8275 18.1697C20.6801 18.1349 20.5468 18.0563 20.445 17.9442L8.25618 4.53653C8.1437 4.41277 8.0758 4.25497 8.06328 4.0882C8.05075 3.92144 8.09432 3.75527 8.18706 3.6161L8.37529 3.33361C8.44377 3.23085 8.53657 3.14658 8.64545 3.0883C8.75433 3.03002 8.87591 2.99953 8.9994 2.99954H14.9994C15.1229 2.99954 15.2444 3.03002 15.3533 3.08828C15.4622 3.14655 15.5549 3.23079 15.6234 3.33352L16.9008 5.24954H19.5C20.0965 5.25022 20.6684 5.48749 21.0902 5.9093C21.512 6.33111 21.7493 6.90301 21.75 7.49954Z" fill="#202020" style="fill: var(--ui-icon-primary-color);"/>
</svg>
