<svg  viewBox="0 0 24 24" fill="none" xmlns="http://www.w3.org/2000/svg" id="__THIS_ID_NEEDS_FOR_UI_ICON_COMPONENT__">
<path d="M18.8943 18.8939C20.2564 17.5306 21.1837 15.7941 21.559 13.9039C21.9344 12.0137 21.7409 10.0546 21.003 8.27435C20.2651 6.49409 19.016 4.97255 17.4135 3.90208C15.811 2.8316 13.9272 2.26025 12.0001 2.26025C10.0729 2.26025 8.18906 2.8316 6.5866 3.90208C4.98413 4.97255 3.73501 6.49409 2.99713 8.27435C2.25925 10.0546 2.06574 12.0137 2.44106 13.9039C2.81639 15.7941 3.7437 17.5306 5.10577 18.8939C6.93574 20.7196 9.41513 21.7449 12.0001 21.7449C14.585 21.7449 17.0644 20.7196 18.8943 18.8939ZM9.53033 11.0299C9.46072 11.0997 9.37804 11.155 9.28702 11.1928C9.19601 11.2306 9.09844 11.2501 8.99989 11.2501C8.90134 11.2502 8.80375 11.2308 8.71269 11.1931C8.62163 11.1554 8.5389 11.1002 8.46921 11.0305C8.39953 10.9608 8.34426 10.8781 8.30658 10.787C8.26889 10.696 8.24952 10.5984 8.24957 10.4998C8.24962 10.4013 8.2691 10.3037 8.30688 10.2127C8.34467 10.1217 8.40002 10.039 8.46978 9.96938L11.4698 6.96938C11.5394 6.89972 11.6221 6.84446 11.7131 6.80676C11.804 6.76906 11.9016 6.74966 12.0001 6.74966C12.0985 6.74966 12.1961 6.76906 12.2871 6.80676C12.378 6.84446 12.4607 6.89972 12.5303 6.96938L15.5303 9.96938C15.6707 10.1101 15.7495 10.3007 15.7494 10.4995C15.7493 10.6982 15.6703 10.8888 15.5298 11.0294C15.3892 11.1699 15.1986 11.2489 14.9999 11.249C14.8011 11.2491 14.6105 11.1703 14.4698 11.0299L12.0001 8.5602L9.53033 11.0299ZM9.53033 16.2799C9.46072 16.3497 9.37804 16.405 9.28702 16.4428C9.19601 16.4806 9.09844 16.5001 8.99989 16.5001C8.90134 16.5002 8.80375 16.4808 8.71269 16.4431C8.62163 16.4054 8.5389 16.3502 8.46921 16.2805C8.39953 16.2108 8.34426 16.1281 8.30658 16.037C8.26889 15.946 8.24952 15.8484 8.24957 15.7498C8.24962 15.6513 8.2691 15.5537 8.30688 15.4627C8.34467 15.3717 8.40002 15.289 8.46978 15.2194L11.4698 12.2194C11.5394 12.1497 11.6221 12.0945 11.7131 12.0568C11.804 12.0191 11.9016 11.9997 12.0001 11.9997C12.0985 11.9997 12.1961 12.0191 12.2871 12.0568C12.378 12.0945 12.4607 12.1497 12.5303 12.2194L15.5303 15.2194C15.6707 15.3601 15.7495 15.5507 15.7494 15.7495C15.7493 15.9482 15.6703 16.1388 15.5298 16.2794C15.3892 16.4199 15.1986 16.4989 14.9999 16.499C14.8011 16.4991 14.6105 16.4203 14.4698 16.2799L12.0001 13.8102L9.53033 16.2799Z" fill="#202020" style="fill: var(--ui-icon-primary-color);"/>
</svg>
