<svg  viewBox="0 0 24 24" fill="none" xmlns="http://www.w3.org/2000/svg" id="__THIS_ID_NEEDS_FOR_UI_ICON_COMPONENT__">
<path d="M17.0303 12.5304L9.53032 20.0304C9.42543 20.1353 9.29179 20.2067 9.1463 20.2356C9.00081 20.2646 8.85002 20.2497 8.71298 20.1929C8.57593 20.1362 8.4588 20.04 8.37639 19.9167C8.29398 19.7934 8.25 19.6483 8.25 19.5V4.50001C8.25 4.35168 8.29398 4.20667 8.37639 4.08334C8.4588 3.96 8.57593 3.86387 8.71298 3.8071C8.85002 3.75033 9.00081 3.73547 9.1463 3.76441C9.29179 3.79334 9.42543 3.86476 9.53032 3.96965L17.0303 11.4696C17.1 11.5393 17.1552 11.622 17.1929 11.713C17.2306 11.804 17.25 11.9015 17.25 12C17.25 12.0985 17.2306 12.196 17.1929 12.287C17.1552 12.378 17.1 12.4607 17.0303 12.5304Z" fill="#202020" style="fill: var(--ui-icon-primary-color);"/>
</svg>
