<svg  viewBox="0 0 24 24" fill="none" xmlns="http://www.w3.org/2000/svg" id="__THIS_ID_NEEDS_FOR_UI_ICON_COMPONENT__">
<path d="M5.10572 5.10584C3.74365 6.46913 2.81634 8.20565 2.44102 10.0959C2.06569 11.9861 2.2592 13.9452 2.99708 15.7254C3.73496 17.5057 4.98408 19.0272 6.58655 20.0977C8.18902 21.1682 10.0729 21.7395 12 21.7395C13.9271 21.7395 15.811 21.1682 17.4135 20.0977C19.0159 19.0272 20.2651 17.5057 21.0029 15.7254C21.7408 13.9452 21.9343 11.9861 21.559 10.0959C21.1837 8.20565 20.2564 6.46913 18.8943 5.10584C17.0643 3.28017 14.5849 2.25488 12 2.25488C9.41508 2.25488 6.93569 3.28017 5.10572 5.10584ZM14.4697 12.9698C14.5393 12.9001 14.622 12.8447 14.713 12.807C14.8041 12.7692 14.9016 12.7497 15.0002 12.7496C15.0987 12.7496 15.1963 12.769 15.2874 12.8066C15.3784 12.8443 15.4612 12.8996 15.5308 12.9693C15.6005 13.039 15.6558 13.1217 15.6935 13.2128C15.7312 13.3038 15.7505 13.4014 15.7505 13.5C15.7504 13.5985 15.731 13.6961 15.6932 13.7871C15.6554 13.8781 15.6 13.9608 15.5303 14.0304L12.5303 17.0304C12.4607 17.1001 12.378 17.1553 12.287 17.193C12.196 17.2307 12.0985 17.2501 12 17.2501C11.9015 17.2501 11.804 17.2307 11.713 17.193C11.622 17.1553 11.5394 17.1001 11.4697 17.0304L8.46973 14.0304C8.32934 13.8897 8.25054 13.699 8.25065 13.5003C8.25076 13.3015 8.32976 13.111 8.4703 12.9704C8.61084 12.8299 8.80142 12.7509 9.00017 12.7508C9.19892 12.7507 9.38959 12.8295 9.53028 12.9698L12 15.4396L14.4697 12.9698ZM14.4697 7.71985C14.5393 7.65009 14.622 7.59474 14.713 7.55695C14.8041 7.51917 14.9016 7.49969 15.0002 7.49964C15.0987 7.49958 15.1963 7.51896 15.2874 7.55665C15.3784 7.59433 15.4612 7.6496 15.5308 7.71928C15.6005 7.78897 15.6558 7.8717 15.6935 7.96276C15.7312 8.05382 15.7505 8.15141 15.7505 8.24996C15.7504 8.34851 15.731 8.44608 15.6932 8.53709C15.6554 8.62811 15.6 8.71079 15.5303 8.7804L12.5303 11.7804C12.4607 11.8501 12.378 11.9053 12.287 11.943C12.196 11.9807 12.0985 12.0001 12 12.0001C11.9015 12.0001 11.804 11.9807 11.713 11.943C11.622 11.9053 11.5394 11.8501 11.4697 11.7804L8.46973 8.7804C8.32934 8.63971 8.25054 8.44904 8.25065 8.25029C8.25076 8.05153 8.32976 7.86095 8.4703 7.72041C8.61084 7.57987 8.80142 7.50087 9.00017 7.50077C9.19892 7.50066 9.38959 7.57946 9.53028 7.71985L12 10.1896L14.4697 7.71985Z" fill="#202020" style="fill: var(--ui-icon-primary-color);"/>
</svg>
