<svg  viewBox="0 0 24 24" fill="none" xmlns="http://www.w3.org/2000/svg" id="__THIS_ID_NEEDS_FOR_UI_ICON_COMPONENT__">
<path d="M20.1929 15.287C20.1361 15.424 20.04 15.5412 19.9166 15.6236C19.7933 15.706 19.6483 15.75 19.5 15.75H4.49996C4.35162 15.75 4.20662 15.706 4.08328 15.6236C3.95994 15.5412 3.86381 15.424 3.80704 15.287C3.75028 15.15 3.73543 14.9992 3.76437 14.8537C3.79331 14.7082 3.86475 14.5745 3.96964 14.4697L11.4696 6.96966C11.6103 6.82901 11.8011 6.75 12 6.75C12.1989 6.75 12.3896 6.82901 12.5303 6.96966L20.0303 14.4697C20.1352 14.5745 20.2066 14.7082 20.2355 14.8537C20.2645 14.9992 20.2496 15.15 20.1929 15.287Z" fill="#202020" style="fill: var(--ui-icon-primary-color);"/>
</svg>
