<svg  viewBox="0 0 24 24" fill="none" xmlns="http://www.w3.org/2000/svg" id="__THIS_ID_NEEDS_FOR_UI_ICON_COMPONENT__">
<path d="M15.75 4.50001V19.5C15.75 19.6483 15.706 19.7933 15.6236 19.9167C15.5412 20.04 15.4241 20.1361 15.287 20.1929C15.15 20.2497 14.9992 20.2645 14.8537 20.2356C14.7082 20.2067 14.5746 20.1353 14.4697 20.0304L6.96968 12.5304C6.90003 12.4607 6.84478 12.378 6.80708 12.287C6.76939 12.196 6.74999 12.0985 6.74999 12C6.74999 11.9015 6.76939 11.804 6.80708 11.713C6.84478 11.622 6.90003 11.5393 6.96968 11.4696L14.4697 3.96965C14.5746 3.86476 14.7082 3.79334 14.8537 3.76441C14.9992 3.73547 15.15 3.75033 15.287 3.8071C15.4241 3.86387 15.5412 3.96 15.6236 4.08334C15.706 4.20667 15.75 4.35168 15.75 4.50001Z" fill="#202020" style="fill: var(--ui-icon-primary-color);"/>
</svg>
