<svg  viewBox="0 0 24 24" fill="none" xmlns="http://www.w3.org/2000/svg" id="__THIS_ID_NEEDS_FOR_UI_ICON_COMPONENT__">
<path d="M12.1396 8.80984C12.0099 8.66723 11.9401 8.48018 11.9447 8.2875C11.9493 8.09482 12.0279 7.9113 12.1642 7.77502L16.9394 2.9999C17.1491 2.79011 17.4164 2.64725 17.7074 2.58937C17.9984 2.53149 18.3 2.5612 18.5741 2.67474C18.8482 2.78828 19.0824 2.98056 19.2472 3.22724C19.4121 3.47393 19.5 3.76395 19.5 4.06063V14.9665C19.5 15.1179 19.4542 15.2657 19.3686 15.3905C19.283 15.5154 19.1616 15.6114 19.0204 15.666C18.8793 15.7206 18.7249 15.7312 18.5775 15.6964C18.4302 15.6616 18.2969 15.583 18.195 15.471L12.1396 8.80984ZM20.0829 20.7207C20.0954 20.7052 20.1073 20.6895 20.1184 20.6733C20.121 20.6695 20.1234 20.6656 20.126 20.6617C20.1366 20.6456 20.1466 20.6292 20.1559 20.6125C20.1587 20.6074 20.1613 20.6022 20.164 20.5969C20.1722 20.5811 20.1801 20.5652 20.1871 20.549C20.1902 20.5418 20.193 20.5345 20.1959 20.5272C20.2017 20.5125 20.2073 20.4977 20.2122 20.4827C20.2152 20.4735 20.2178 20.4641 20.2204 20.4548C20.2243 20.441 20.228 20.4272 20.2311 20.4133C20.2334 20.4029 20.2353 20.3924 20.2372 20.3818C20.2396 20.3683 20.2418 20.3547 20.2434 20.3411C20.2447 20.3302 20.2457 20.3193 20.2465 20.3082C20.2476 20.2945 20.2483 20.2807 20.2486 20.2669C20.2488 20.2612 20.2495 20.2557 20.2495 20.2499C20.2495 20.2441 20.2488 20.2385 20.2486 20.2328C20.2483 20.2199 20.2476 20.207 20.2467 20.194C20.2457 20.1814 20.2446 20.1689 20.2431 20.1565C20.2417 20.1455 20.2399 20.1347 20.2381 20.1239C20.2357 20.1098 20.2331 20.0959 20.23 20.0821C20.2279 20.0731 20.2255 20.0641 20.223 20.0551C20.219 20.0401 20.2147 20.0251 20.2098 20.0104C20.2072 20.0028 20.2042 19.9952 20.2014 19.9876C20.1955 19.9719 20.1894 19.9566 20.1826 19.9415C20.1796 19.9349 20.1763 19.9284 20.1731 19.9218C20.1654 19.9059 20.1572 19.8903 20.1484 19.875C20.1453 19.8696 20.1419 19.8643 20.1386 19.8589C20.1286 19.8426 20.1182 19.8267 20.107 19.8113C20.104 19.8071 20.1008 19.803 20.0977 19.7989C20.0853 19.7824 20.0722 19.7665 20.0585 19.7512C20.0571 19.7496 20.0559 19.7478 20.0544 19.7462L5.05443 3.24617C4.98817 3.1733 4.90821 3.11419 4.81911 3.07221C4.73 3.03024 4.63351 3.00623 4.53512 3.00155C4.43674 2.99687 4.3384 3.01161 4.24571 3.04494C4.15303 3.07826 4.06782 3.12952 3.99494 3.19578C3.92206 3.26204 3.86295 3.342 3.82098 3.4311C3.779 3.52021 3.75499 3.6167 3.75031 3.71509C3.74563 3.81347 3.76038 3.91181 3.7937 4.0045C3.82703 4.09718 3.87828 4.1824 3.94454 4.25527L9.53473 10.4045L1.49999 18.4393C1.2902 18.649 1.14734 18.9163 1.08945 19.2073C1.03157 19.4983 1.06127 19.7999 1.1748 20.0739C1.28833 20.348 1.48059 20.5823 1.72727 20.7471C1.97394 20.9119 2.26396 20.9999 2.56063 20.9999H19.4835C19.4889 21 19.4943 21.0007 19.4997 21.0007C19.5999 21.0005 19.699 20.9802 19.7912 20.941L19.7917 20.9408C19.8135 20.9316 19.8349 20.9213 19.8559 20.9099L19.8582 20.9087C19.8781 20.8978 19.8975 20.886 19.9166 20.8731L19.921 20.8702C19.9389 20.858 19.9562 20.845 19.9732 20.8312L19.9797 20.8258C19.9878 20.819 19.9961 20.8129 20.004 20.8057C20.0113 20.799 20.0177 20.7918 20.0247 20.7848C20.0282 20.7814 20.0316 20.778 20.035 20.7745C20.0489 20.7604 20.0621 20.7459 20.0745 20.731C20.0774 20.7276 20.0801 20.7241 20.0829 20.7207Z" fill="#202020" style="fill: var(--ui-icon-primary-color);"/>
</svg>
