<svg  viewBox="0 0 24 24" fill="none" xmlns="http://www.w3.org/2000/svg" id="__THIS_ID_NEEDS_FOR_UI_ICON_COMPONENT__">
<path d="M19.5 4.06102V19.5004C19.4995 19.8981 19.3413 20.2793 19.0601 20.5606C18.7789 20.8418 18.3977 20.9999 18 21.0004H2.56061C2.26393 21.0004 1.97391 20.9124 1.72723 20.7476C1.48055 20.5828 1.28828 20.3485 1.17476 20.0744C1.06124 19.8003 1.03155 19.4987 1.08945 19.2077C1.14736 18.9167 1.29025 18.6495 1.50006 18.4397L16.9392 3.00038C17.149 2.7906 17.4163 2.64774 17.7073 2.58986C17.9983 2.53198 18.2999 2.56168 18.5739 2.67521C18.848 2.78874 19.0823 2.98099 19.2471 3.22767C19.412 3.47434 19.5 3.76435 19.5 4.06102Z" fill="#202020" style="fill: var(--ui-icon-primary-color);"/>
</svg>
