<svg  viewBox="0 0 24 24" fill="none" xmlns="http://www.w3.org/2000/svg" id="__THIS_ID_NEEDS_FOR_UI_ICON_COMPONENT__">
<path d="M21.5303 13.7195C21.671 13.8602 21.75 14.051 21.75 14.2499C21.75 14.4488 21.671 14.6396 21.5303 14.7802C21.3897 14.9209 21.1989 14.9999 21 14.9999C20.8011 14.9999 20.6103 14.9209 20.4697 14.7803L18.75 13.0606L17.0303 14.7803C16.8896 14.9209 16.6989 14.9999 16.4999 14.9999C16.301 14.9999 16.1103 14.9209 15.9696 14.7802C15.829 14.6396 15.75 14.4488 15.75 14.2499C15.75 14.051 15.829 13.8602 15.9697 13.7195L17.6893 11.9999L15.9697 10.2803C15.829 10.1396 15.75 9.94885 15.75 9.74993C15.7499 9.55102 15.829 9.36024 15.9696 9.21958C16.1103 9.07892 16.301 8.99989 16.4999 8.99988C16.6989 8.99988 16.8896 9.07889 17.0303 9.21954L18.75 10.9392L20.4697 9.21953C20.5393 9.14989 20.622 9.09465 20.713 9.05696C20.804 9.01927 20.9015 8.99988 21 8.99988C21.0985 8.99988 21.196 9.01929 21.287 9.05698C21.378 9.09468 21.4607 9.14993 21.5303 9.21958C21.6 9.28923 21.6552 9.37191 21.6929 9.46291C21.7306 9.55391 21.75 9.65144 21.75 9.74993C21.75 9.84842 21.7306 9.94595 21.6929 10.0369C21.6552 10.1279 21.5999 10.2106 21.5303 10.2803L19.8107 11.9999L21.5303 13.7195ZM18.75 15.1819L18.091 15.8409C17.669 16.2629 17.0967 16.4999 16.5 16.4999C15.9032 16.4999 15.3309 16.2629 14.909 15.8409C14.487 15.4189 14.25 14.8466 14.25 14.2499C14.25 13.6532 14.487 13.0809 14.909 12.6589L15.568 11.9999L14.909 11.3409C14.487 10.9189 14.25 10.3466 14.25 9.7499C14.25 9.15316 14.487 8.58086 14.909 8.1589C15.3309 7.73694 15.9032 7.49988 16.5 7.49988C17.0967 7.49988 17.669 7.73694 18.091 8.1589L18.75 8.81789L19.409 8.1589C19.4382 8.12965 19.4696 8.10397 19.5 8.07664V4.06054C19.5 3.76387 19.412 3.47386 19.2472 3.22719C19.0824 2.98051 18.8481 2.78825 18.574 2.67472C18.2999 2.56119 17.9983 2.53149 17.7074 2.58937C17.4164 2.64725 17.1491 2.79012 16.9393 2.9999L1.49993 18.4393C1.29017 18.649 1.14732 18.9163 1.08945 19.2073C1.03158 19.4983 1.0613 19.7998 1.17483 20.0739C1.28836 20.348 1.48061 20.5823 1.72728 20.7471C1.97395 20.9119 2.26395 20.9999 2.56062 20.9999H18C18.3977 20.9994 18.7789 20.8413 19.0601 20.5601C19.3413 20.2789 19.4995 19.8976 19.5 19.4999V15.9232C19.4696 15.8958 19.4382 15.8702 19.409 15.8409L18.75 15.1819Z" fill="#202020" style="fill: var(--ui-icon-primary-color);"/>
</svg>
