<svg  viewBox="0 0 24 24" fill="none" xmlns="http://www.w3.org/2000/svg" id="__THIS_ID_NEEDS_FOR_UI_ICON_COMPONENT__">
<path d="M18 20.9999H2.56063C2.26395 20.9999 1.97393 20.9119 1.72725 20.7471C1.48057 20.5823 1.28831 20.348 1.17479 20.0739C1.06127 19.7998 1.03158 19.4982 1.08948 19.2072C1.14739 18.9162 1.29028 18.649 1.50009 18.4392L16.9393 2.9999C17.149 2.79011 17.4163 2.64725 17.7073 2.58937C17.9983 2.53149 18.2999 2.5612 18.574 2.67473C18.8481 2.78826 19.0823 2.98052 19.2472 3.22719C19.412 3.47387 19.5 3.76388 19.5 4.06056V19.4999C19.4995 19.8976 19.3414 20.2789 19.0602 20.5601C18.7789 20.8413 18.3977 20.9994 18 20.9999ZM2.56118 19.4994L18 19.4999V4.06117L2.56072 19.4999L2.56118 19.4994Z" fill="#202020" style="fill: var(--ui-icon-primary-color);"/>
</svg>
