<svg  viewBox="0 0 24 24" fill="none" xmlns="http://www.w3.org/2000/svg" id="__THIS_ID_NEEDS_FOR_UI_ICON_COMPONENT__">
<path d="M12.0002 2.24951C10.3067 2.25001 8.64247 2.69148 7.17138 3.53046C5.7003 4.36945 4.47303 5.57703 3.61037 7.03436C2.74771 8.49169 2.27939 10.1485 2.25151 11.8418C2.22363 13.5351 2.63714 15.2065 3.45136 16.6914L2.64935 19.4951C2.57566 19.7524 2.57216 20.0246 2.63919 20.2837C2.70623 20.5428 2.84136 20.7792 3.03058 20.9684C3.2198 21.1576 3.4562 21.2927 3.71526 21.3598C3.97432 21.4268 4.2466 21.4233 4.50385 21.3496L7.30829 20.5498C8.6117 21.2649 10.0614 21.6726 11.5465 21.7416C13.0316 21.8106 14.5128 21.539 15.8769 20.9478C17.241 20.3565 18.4518 19.4612 19.4168 18.3303C20.3818 17.1993 21.0755 15.8627 21.4447 14.4225C21.8139 12.9824 21.849 11.4769 21.5471 10.0212C21.2453 8.56541 20.6146 7.19795 19.7033 6.02332C18.7919 4.84869 17.6241 3.89799 16.289 3.24392C14.9539 2.58984 13.4869 2.24971 12.0002 2.24951ZM15.0002 14.2495H9.00018C8.80127 14.2495 8.6105 14.1705 8.46985 14.0298C8.3292 13.8892 8.25018 13.6984 8.25018 13.4995C8.25018 13.3006 8.3292 13.1098 8.46985 12.9692C8.6105 12.8285 8.80127 12.7495 9.00018 12.7495H15.0002C15.1991 12.7495 15.3899 12.8285 15.5305 12.9692C15.6712 13.1098 15.7502 13.3006 15.7502 13.4995C15.7502 13.6984 15.6712 13.8892 15.5305 14.0298C15.3899 14.1705 15.1991 14.2495 15.0002 14.2495ZM15.0002 11.2495H9.00018C8.80127 11.2495 8.6105 11.1705 8.46985 11.0298C8.3292 10.8892 8.25018 10.6984 8.25018 10.4995C8.25018 10.3006 8.3292 10.1098 8.46985 9.96918C8.6105 9.82853 8.80127 9.74951 9.00018 9.74951H15.0002C15.1991 9.74951 15.3899 9.82853 15.5305 9.96918C15.6712 10.1098 15.7502 10.3006 15.7502 10.4995C15.7502 10.6984 15.6712 10.8892 15.5305 11.0298C15.3899 11.1705 15.1991 11.2495 15.0002 11.2495Z" fill="#202020" style="fill: var(--ui-icon-primary-color);"/>
</svg>
