<svg  viewBox="0 0 24 24" fill="none" xmlns="http://www.w3.org/2000/svg" id="__THIS_ID_NEEDS_FOR_UI_ICON_COMPONENT__">
<path d="M12.375 2.24951C9.88946 2.25232 7.50652 3.24094 5.74897 4.99848C3.99142 6.75603 3.0028 9.13897 3 11.6245V19.5308C3.00045 19.9202 3.15534 20.2935 3.43069 20.5689C3.70605 20.8442 4.07938 20.9991 4.46878 20.9995H12.375C14.8614 20.9995 17.246 20.0118 19.0041 18.2536C20.7623 16.4955 21.75 14.1109 21.75 11.6245C21.75 9.13811 20.7623 6.75354 19.0041 4.99539C17.246 3.23723 14.8614 2.24951 12.375 2.24951ZM7.87482 13.1246C7.65231 13.1246 7.43481 13.0586 7.2498 12.935C7.0648 12.8114 6.9206 12.6357 6.83545 12.4301C6.7503 12.2246 6.72803 11.9984 6.77143 11.7801C6.81484 11.5619 6.92199 11.3614 7.07932 11.2041C7.23666 11.0468 7.43711 10.9396 7.65534 10.8962C7.87357 10.8528 8.09977 10.8751 8.30534 10.9602C8.5109 11.0454 8.6866 11.1896 8.81022 11.3746C8.93384 11.5596 8.99982 11.7771 8.99982 11.9996C8.99982 12.298 8.88129 12.5841 8.67031 12.7951C8.45933 13.0061 8.17318 13.1246 7.87482 13.1246V13.1246ZM12.3748 13.1246C12.1523 13.1246 11.9348 13.0586 11.7498 12.935C11.5648 12.8114 11.4206 12.6357 11.3355 12.4301C11.2503 12.2246 11.228 11.9984 11.2714 11.7801C11.3148 11.5619 11.422 11.3614 11.5793 11.2041C11.7367 11.0468 11.9371 10.9396 12.1553 10.8962C12.3736 10.8528 12.5998 10.8751 12.8053 10.9602C13.0109 11.0454 13.1866 11.1896 13.3102 11.3746C13.4338 11.5596 13.4998 11.7771 13.4998 11.9996C13.4998 12.298 13.3813 12.5841 13.1703 12.7951C12.9593 13.0061 12.6732 13.1246 12.3748 13.1246V13.1246ZM16.8748 13.1246C16.6523 13.1246 16.4348 13.0586 16.2498 12.935C16.0648 12.8114 15.9206 12.6357 15.8355 12.4301C15.7503 12.2246 15.728 11.9984 15.7714 11.7801C15.8148 11.5619 15.922 11.3614 16.0793 11.2041C16.2367 11.0468 16.4371 10.9396 16.6553 10.8962C16.8736 10.8528 17.0998 10.8751 17.3053 10.9602C17.5109 11.0454 17.6866 11.1896 17.8102 11.3746C17.9338 11.5596 17.9998 11.7771 17.9998 11.9996C17.9998 12.298 17.8813 12.5841 17.6703 12.7951C17.4593 13.0061 17.1732 13.1246 16.8748 13.1246V13.1246Z" fill="#202020" style="fill: var(--ui-icon-primary-color);"/>
</svg>
