<svg  viewBox="0 0 24 24" fill="none" xmlns="http://www.w3.org/2000/svg" id="__THIS_ID_NEEDS_FOR_UI_ICON_COMPONENT__">
<path d="M20.2501 4.49951H3.75013C3.35242 4.4999 2.97112 4.65807 2.6899 4.93928C2.40868 5.2205 2.25052 5.6018 2.25013 5.99951V20.8896C2.24914 21.1757 2.3301 21.4561 2.48344 21.6976C2.63678 21.9391 2.85609 22.1316 3.11542 22.2524C3.37474 22.3732 3.66325 22.4173 3.9468 22.3793C4.23035 22.3413 4.49708 22.2228 4.71545 22.038L7.69274 19.5346L20.2501 19.4995C20.6478 19.4991 21.0291 19.3409 21.3103 19.0597C21.5915 18.7785 21.7497 18.3972 21.7501 17.9995V5.99951C21.7497 5.6018 21.5915 5.2205 21.3103 4.93928C21.0291 4.65807 20.6478 4.4999 20.2501 4.49951ZM7.50002 13.1252C7.27751 13.1252 7.06001 13.0592 6.875 12.9356C6.69 12.812 6.54581 12.6363 6.46066 12.4307C6.37551 12.2252 6.35323 11.999 6.39664 11.7807C6.44005 11.5625 6.54719 11.3621 6.70453 11.2047C6.86186 11.0474 7.06231 10.9402 7.28054 10.8968C7.49877 10.8534 7.72497 10.8757 7.93053 10.9609C8.1361 11.046 8.3118 11.1902 8.43542 11.3752C8.55903 11.5602 8.62501 11.7777 8.62501 12.0002C8.62501 12.2986 8.50649 12.5847 8.29551 12.7957C8.08453 13.0067 7.79839 13.1252 7.50002 13.1252ZM12 13.1252C11.7775 13.1252 11.56 13.0592 11.375 12.9356C11.19 12.812 11.0458 12.6363 10.9606 12.4307C10.8755 12.2252 10.8532 11.999 10.8966 11.7807C10.94 11.5625 11.0472 11.3621 11.2045 11.2047C11.3618 11.0474 11.5623 10.9402 11.7805 10.8968C11.9988 10.8534 12.225 10.8757 12.4305 10.9609C12.6361 11.046 12.8118 11.1902 12.9354 11.3752C13.059 11.5602 13.125 11.7777 13.125 12.0002C13.125 12.2986 13.0065 12.5847 12.7955 12.7957C12.5845 13.0067 12.2984 13.1252 12 13.1252ZM16.5 13.1252C16.2775 13.1252 16.06 13.0592 15.875 12.9356C15.69 12.812 15.5458 12.6363 15.4606 12.4307C15.3755 12.2252 15.3532 11.999 15.3966 11.7807C15.44 11.5625 15.5472 11.3621 15.7045 11.2047C15.8618 11.0474 16.0623 10.9402 16.2805 10.8968C16.4987 10.8534 16.7249 10.8757 16.9305 10.9609C17.1361 11.046 17.3118 11.1902 17.4354 11.3752C17.559 11.5602 17.625 11.7777 17.625 12.0002C17.625 12.2986 17.5065 12.5847 17.2955 12.7957C17.0845 13.0067 16.7984 13.1252 16.5 13.1252Z" fill="#202020" style="fill: var(--ui-icon-primary-color);"/>
</svg>
