<svg  viewBox="0 0 24 24" fill="none" xmlns="http://www.w3.org/2000/svg" id="__THIS_ID_NEEDS_FOR_UI_ICON_COMPONENT__">
<path d="M12.0002 2.25049C10.3067 2.25079 8.64256 2.69207 7.17147 3.53089C5.70038 4.36972 4.47309 5.57717 3.61041 7.03439C2.74772 8.49162 2.27938 10.1484 2.25149 11.8416C2.2236 13.5348 2.63712 15.2061 3.45134 16.6909L2.64934 19.4946C2.57565 19.7519 2.57214 20.0242 2.63917 20.2832C2.70621 20.5423 2.84135 20.7787 3.03056 20.9679C3.21978 21.1571 3.45618 21.2922 3.71524 21.3593C3.9743 21.4263 4.24658 21.4228 4.50383 21.3491L7.30827 20.5493C8.6116 21.2646 10.0612 21.6723 11.5463 21.7414C13.0314 21.8105 14.5126 21.5391 15.8767 20.9479C17.2408 20.3568 18.4516 19.4615 19.4167 18.3306C20.3817 17.1997 21.0754 15.8631 21.4446 14.423C21.8139 12.9829 21.8489 11.4774 21.5471 10.0217C21.2453 8.56598 20.6146 7.19854 19.7033 6.02395C18.7919 4.84935 17.624 3.8987 16.2889 3.24468C14.9538 2.59067 13.4869 2.2506 12.0002 2.25049H12.0002ZM7.50007 13.1248C7.27757 13.1248 7.06006 13.0588 6.87506 12.9352C6.69005 12.8115 6.54586 12.6358 6.46071 12.4303C6.37556 12.2247 6.35328 11.9985 6.39669 11.7803C6.4401 11.562 6.54724 11.3616 6.70458 11.2043C6.86191 11.0469 7.06237 10.9398 7.2806 10.8964C7.49883 10.853 7.72503 10.8752 7.93059 10.9604C8.13616 11.0455 8.31186 11.1897 8.43548 11.3747C8.55909 11.5597 8.62507 11.7773 8.62507 11.9998C8.62507 12.2981 8.50655 12.5843 8.29557 12.7952C8.08459 13.0062 7.79844 13.1248 7.50007 13.1248ZM12.0001 13.1248C11.7776 13.1248 11.5601 13.0588 11.3751 12.9352C11.1901 12.8115 11.0459 12.6358 10.9607 12.4303C10.8756 12.2247 10.8533 11.9985 10.8967 11.7803C10.9401 11.562 11.0472 11.3616 11.2046 11.2043C11.3619 11.0469 11.5624 10.9398 11.7806 10.8964C11.9988 10.853 12.225 10.8752 12.4306 10.9604C12.6362 11.0455 12.8119 11.1897 12.9355 11.3747C13.0591 11.5597 13.1251 11.7773 13.1251 11.9998C13.1251 12.2981 13.0065 12.5843 12.7956 12.7952C12.5846 13.0062 12.2984 13.1248 12.0001 13.1248ZM16.5001 13.1248C16.2776 13.1248 16.0601 13.0588 15.8751 12.9352C15.6901 12.8115 15.5459 12.6358 15.4607 12.4303C15.3756 12.2247 15.3533 11.9985 15.3967 11.7803C15.4401 11.562 15.5472 11.3616 15.7046 11.2043C15.8619 11.0469 16.0624 10.9398 16.2806 10.8964C16.4988 10.853 16.725 10.8752 16.9306 10.9604C17.1362 11.0455 17.3119 11.1897 17.4355 11.3747C17.5591 11.5597 17.6251 11.7773 17.6251 11.9998C17.6251 12.2981 17.5065 12.5843 17.2956 12.7952C17.0846 13.0062 16.7984 13.1248 16.5001 13.1248Z" fill="#202020" style="fill: var(--ui-icon-primary-color);"/>
</svg>
