<svg  viewBox="0 0 24 24" fill="none" xmlns="http://www.w3.org/2000/svg" id="__THIS_ID_NEEDS_FOR_UI_ICON_COMPONENT__">
<path d="M21.7501 6.00048V18.0004C21.7496 18.3981 21.5914 18.7793 21.3102 19.0605C21.029 19.3417 20.6478 19.4999 20.2501 19.5004L7.69209 19.5356L4.71554 22.0383C4.44718 22.2662 4.10668 22.3915 3.7546 22.392C3.53438 22.3917 3.3169 22.3432 3.1174 22.2499C2.85733 22.1307 2.63718 21.9389 2.48336 21.6977C2.32955 21.4564 2.24859 21.1759 2.25021 20.8898V6.00048C2.25073 5.60282 2.40893 5.22159 2.69012 4.9404C2.97132 4.65921 3.35254 4.50101 3.75021 4.50049H20.2501C20.6478 4.50101 21.029 4.65921 21.3102 4.9404C21.5914 5.22159 21.7496 5.60282 21.7501 6.00048Z" fill="#202020" style="fill: var(--ui-icon-primary-color);"/>
</svg>
