<svg  viewBox="0 0 24 24" fill="none" xmlns="http://www.w3.org/2000/svg" id="__THIS_ID_NEEDS_FOR_UI_ICON_COMPONENT__">
<path d="M12.375 2.24951C9.88946 2.25232 7.50652 3.24094 5.74897 4.99848C3.99142 6.75603 3.0028 9.13897 3 11.6245V19.5308C3.00045 19.9202 3.15534 20.2935 3.43069 20.5689C3.70605 20.8442 4.07938 20.9991 4.46878 20.9995H12.375C14.8614 20.9995 17.246 20.0118 19.0041 18.2536C20.7623 16.4955 21.75 14.1109 21.75 11.6245C21.75 9.13811 20.7623 6.75354 19.0041 4.99539C17.246 3.23723 14.8614 2.24951 12.375 2.24951ZM14.9998 14.2495H9.37482C9.1759 14.2495 8.98514 14.1705 8.84449 14.0298C8.70383 13.8892 8.62482 13.6984 8.62482 13.4995C8.62482 13.3006 8.70383 13.1098 8.84449 12.9692C8.98514 12.8285 9.1759 12.7495 9.37482 12.7495H14.9998C15.1987 12.7495 15.3895 12.8285 15.5301 12.9692C15.6708 13.1098 15.7498 13.3006 15.7498 13.4995C15.7498 13.6984 15.6708 13.8892 15.5301 14.0298C15.3895 14.1705 15.1987 14.2495 14.9998 14.2495ZM14.9998 11.2495H9.37482C9.1759 11.2495 8.98514 11.1705 8.84449 11.0298C8.70383 10.8892 8.62482 10.6984 8.62482 10.4995C8.62482 10.3006 8.70383 10.1098 8.84449 9.96918C8.98514 9.82853 9.1759 9.74951 9.37482 9.74951H14.9998C15.1987 9.74951 15.3895 9.82853 15.5301 9.96918C15.6708 10.1098 15.7498 10.3006 15.7498 10.4995C15.7498 10.6984 15.6708 10.8892 15.5301 11.0298C15.3895 11.1705 15.1987 11.2495 14.9998 11.2495Z" fill="#202020" style="fill: var(--ui-icon-primary-color);"/>
</svg>
