<svg  viewBox="0 0 24 24" fill="none" xmlns="http://www.w3.org/2000/svg" id="__THIS_ID_NEEDS_FOR_UI_ICON_COMPONENT__">
<path fill-rule="evenodd" clip-rule="evenodd" d="M21.7792 11.3729L16.9512 5.37294C16.6032 4.94294 15.9742 4.87294 15.5452 5.22094C15.1142 5.56694 15.0472 6.19594 15.3922 6.62694L19.7082 11.9889L15.2312 17.3589C14.8782 17.7839 14.9352 18.4149 15.3592 18.7689C15.5472 18.9239 15.7732 18.9999 15.9992 18.9999C16.2862 18.9999 16.5702 18.8779 16.7682 18.6409L21.7682 12.6409C22.0732 12.2739 22.0782 11.7439 21.7792 11.3729ZM4.29192 12.0106L8.76892 6.64064C9.12192 6.21564 9.06392 5.58464 8.64092 5.23164C8.21492 4.87864 7.58592 4.93564 7.23092 5.35964L2.23092 11.3596C1.92692 11.7256 1.92192 12.2556 2.22092 12.6266L7.04892 18.6266C7.24692 18.8716 7.53592 18.9996 7.82892 18.9996C8.04892 18.9996 8.27092 18.9276 8.45492 18.7796C8.88592 18.4326 8.95292 17.8036 8.60692 17.3726L4.29192 12.0106ZM14.3056 11.3841C14.7016 11.0001 15.3366 11.0131 15.7196 11.4091C16.1026 11.8061 16.0916 12.4391 15.6946 12.8231L12.6946 15.7201C12.5006 15.9061 12.2496 16.0001 11.9996 16.0001C11.7436 16.0001 11.4886 15.9021 11.2926 15.7071L8.29262 12.7071C7.90262 12.3161 7.90262 11.6831 8.29262 11.2931C8.68362 10.9021 9.31662 10.9021 9.70662 11.2931L10.9996 12.5851V8.00014C10.9996 7.44714 11.4476 7.00014 11.9996 7.00014C12.5526 7.00014 12.9996 7.44714 12.9996 8.00014V12.6441L14.3056 11.3841Z" fill="#202020" style="fill: var(--ui-icon-primary-color);"/>
</svg>
