<svg  viewBox="0 0 24 24" fill="none" xmlns="http://www.w3.org/2000/svg" id="__THIS_ID_NEEDS_FOR_UI_ICON_COMPONENT__">
<path fill-rule="evenodd" clip-rule="evenodd" d="M16.9513 5.37294L21.7793 11.3729C22.0783 11.7439 22.0733 12.2739 21.7683 12.6409L16.7683 18.6409C16.5703 18.8779 16.2863 18.9999 15.9993 18.9999C15.7733 18.9999 15.5473 18.9239 15.3593 18.7689C14.9353 18.4149 14.8783 17.7839 15.2313 17.3589L19.7083 11.9889L15.3923 6.62694C15.0473 6.19594 15.1143 5.56694 15.5453 5.22094C15.9753 4.87294 16.6043 4.94294 16.9513 5.37294ZM7.23155 5.35934C7.58455 4.93534 8.21355 4.87834 8.64055 5.23134C9.06455 5.58534 9.12155 6.21534 8.76855 6.64034L4.29155 12.0103L8.60755 17.3733C8.95255 17.8033 8.88555 18.4323 8.45455 18.7793C8.27055 18.9273 8.04855 19.0003 7.82855 19.0003C7.53655 19.0003 7.24655 18.8723 7.04855 18.6273L2.22055 12.6273C1.92155 12.2553 1.92655 11.7253 2.23155 11.3593L7.23155 5.35934Z" fill="#202020" style="fill: var(--ui-icon-primary-color);"/>
</svg>
