<svg  viewBox="0 0 24 24" fill="none" xmlns="http://www.w3.org/2000/svg" id="__THIS_ID_NEEDS_FOR_UI_ICON_COMPONENT__">
<path fill-rule="evenodd" clip-rule="evenodd" d="M10.5 6.50003C10.5 5.67203 11.172 5.00003 12 5.00003C12.828 5.00003 13.5 5.67203 13.5 6.50003C13.5 7.32803 12.828 8.00003 12 8.00003C11.172 8.00003 10.5 7.32803 10.5 6.50003ZM14.701 9.25023C14.287 8.53323 14.533 7.61523 15.25 7.20123C15.968 6.78723 16.885 7.03323 17.299 7.75023C17.713 8.46823 17.467 9.38523 16.75 9.79923C16.032 10.2132 15.115 9.96823 14.701 9.25023ZM8.74999 7.20123C8.03299 6.78723 7.11499 7.03323 6.70099 7.75023C6.28699 8.46823 6.53299 9.38523 7.24999 9.79923C7.96799 10.2132 8.88499 9.96823 9.29899 9.25023C9.71299 8.53323 9.46799 7.61523 8.74999 7.20123ZM5.75709 13.3388C5.29309 12.6528 5.47409 11.7198 6.16109 11.2568C6.84809 10.7928 7.78009 10.9748 8.24309 11.6608C8.70709 12.3478 8.52509 13.2798 7.83909 13.7428C7.15209 14.2068 6.22009 14.0258 5.75709 13.3388ZM15.8809 15.001H14.2309C12.8519 15.001 11.7309 16.122 11.7309 17.501C11.7309 18.107 11.9549 18.694 12.3619 19.154C12.4859 19.294 12.5269 19.459 12.4829 19.642C12.4339 19.847 12.1979 19.98 11.8889 20C9.60589 19.969 7.43889 18.958 5.94289 17.227C4.42789 15.472 3.76389 13.223 4.07389 10.895C4.58489 7.06203 8.03189 4.03303 11.9229 4.00003H11.9979C14.3549 4.00003 16.5759 4.90003 18.1049 6.47803C19.3929 7.80703 20.0649 9.50203 19.9949 11.25C19.9159 13.248 17.9929 15.001 15.8809 15.001ZM19.5399 5.08503C17.6169 3.10103 14.8149 1.99303 11.9059 2.00003H11.9049C6.96089 2.04203 2.74089 5.75203 2.09189 10.631C1.70989 13.491 2.56289 16.372 4.42989 18.534C6.29789 20.698 9.00689 21.961 11.8609 22H11.8989C13.0989 22 14.1569 21.213 14.4259 20.114C14.6249 19.292 14.4179 18.458 13.8589 17.826C13.7769 17.735 13.7309 17.616 13.7309 17.501C13.7309 17.226 13.9549 17.001 14.2309 17.001H15.8809C19.0729 17.001 21.8719 14.403 21.9929 11.329C22.0849 9.02903 21.2139 6.81203 19.5399 5.08503Z" fill="#202020" style="fill: var(--ui-icon-primary-color);"/>
</svg>
