<svg  viewBox="0 0 24 24" fill="none" xmlns="http://www.w3.org/2000/svg" id="__THIS_ID_NEEDS_FOR_UI_ICON_COMPONENT__">
<path fill-rule="evenodd" clip-rule="evenodd" d="M16.0557 10.6415L13.3597 7.94553L15.2717 6.03453L17.9657 8.72853L16.0557 10.6415ZM9.07865 17.6245L6.10265 17.8955L6.36665 14.9395L11.9457 9.35953L14.6417 12.0555L9.07865 17.6245ZM19.4027 7.33653L16.6627 4.59753C15.8957 3.82953 14.6767 3.80153 13.9487 4.52953L11.9457 6.53153L10.7067 5.29253C10.3167 4.90253 9.68365 4.90253 9.29265 5.29253C8.90265 5.68353 8.90265 6.31653 9.29265 6.70653L10.5317 7.94553L4.95165 13.5255C4.62665 13.8505 4.42465 14.2825 4.38265 14.7395L4.00365 18.9095C3.97765 19.2045 4.08265 19.4965 4.29265 19.7065C4.48165 19.8955 4.73665 19.9995 4.99965 19.9995C5.03065 19.9995 5.06065 19.9985 5.09065 19.9955L9.26065 19.6175C9.71765 19.5755 10.1497 19.3725 10.4747 19.0475L16.0547 13.4685L17.2927 14.7065C17.4887 14.9025 17.7437 14.9995 17.9997 14.9995C18.2557 14.9995 18.5117 14.9025 18.7067 14.7065C19.0977 14.3165 19.0977 13.6835 18.7067 13.2925L17.4687 12.0545L19.4707 10.0515C20.2007 9.32253 20.1697 8.10453 19.4027 7.33653Z" fill="#202020" style="fill: var(--ui-icon-primary-color);"/>
</svg>
