<svg  viewBox="0 0 24 24" fill="none" xmlns="http://www.w3.org/2000/svg" id="__THIS_ID_NEEDS_FOR_UI_ICON_COMPONENT__">
<path fill-rule="evenodd" clip-rule="evenodd" d="M18.6903 15.9628L13.0003 18.6068V11.8908L19.0003 9.10379V15.5388C19.0003 15.7128 18.8823 15.8748 18.6903 15.9628ZM5.30333 15.9638C5.11433 15.8758 4.99833 15.7138 5.00033 15.5318V9.10379L11.0003 11.8908V18.6088L5.30333 15.9638ZM11.7073 5.06379C11.7983 5.02079 11.8993 4.99979 12.0003 4.99979C12.1003 4.99979 12.2013 5.02079 12.2923 5.06379L17.6213 7.53779L12.0003 10.1498L6.37833 7.53779L11.7073 5.06379ZM20.6563 7.25879C20.6533 7.25079 20.6543 7.24179 20.6503 7.23379C20.6473 7.22579 20.6393 7.22079 20.6343 7.21279C20.5883 7.13679 20.5323 7.06979 20.4793 6.99979C20.4483 6.96579 20.4233 6.92779 20.3893 6.89879C20.1543 6.62279 19.8773 6.37979 19.5333 6.22079L13.1333 3.24779C13.1323 3.24779 13.1313 3.24779 13.1313 3.24679C12.4123 2.91479 11.5873 2.91579 10.8663 3.24779L4.46933 6.21979C4.12533 6.37879 3.84733 6.62079 3.61233 6.89679C3.57533 6.92779 3.54833 6.96979 3.51533 7.00679C3.46333 7.07379 3.41033 7.13879 3.36633 7.21079C3.36133 7.21979 3.35333 7.22579 3.34933 7.23379C3.34533 7.24279 3.34633 7.25179 3.34233 7.26079C3.13133 7.62279 3.00033 8.02979 3.00033 8.45779V15.5248C2.99233 16.4748 3.56433 17.3588 4.45833 17.7768L10.8573 20.7488C11.2193 20.9178 11.6073 21.0018 11.9963 21.0018C12.3843 21.0018 12.7723 20.9178 13.1333 20.7498L19.5303 17.7778C20.4223 17.3658 20.9993 16.4878 21.0003 15.5398V8.45679C20.9993 8.02879 20.8683 7.62179 20.6563 7.25879Z" fill="#202020" style="fill: var(--ui-icon-primary-color);"/>
</svg>
