<svg  viewBox="0 0 24 24" fill="none" xmlns="http://www.w3.org/2000/svg" id="__THIS_ID_NEEDS_FOR_UI_ICON_COMPONENT__">
<path fill-rule="evenodd" clip-rule="evenodd" d="M19.0016 4.02549C19.5516 4.02849 19.9966 4.47449 19.9966 5.02449L19.9996 9.99949C20.0006 10.5515 19.5526 11.0005 19.0006 11.0005H18.9996C18.4476 11.0005 18.0006 10.5525 17.9996 10.0015L17.9976 7.41649L14.7066 10.7075C14.5116 10.9025 14.2556 11.0005 13.9996 11.0005C13.7446 11.0005 13.4886 10.9025 13.2926 10.7075C12.9026 10.3165 12.9026 9.68349 13.2926 9.29349L16.5726 6.01349L13.9956 6.00049C13.4426 5.99749 12.9966 5.54649 12.9996 4.99549C13.0026 4.44449 13.4506 4.00049 13.9996 4.00049H14.0046L19.0016 4.02549ZM9.29302 13.2931C9.68401 12.9021 10.316 12.9021 10.707 13.2931C11.098 13.6841 11.098 14.3161 10.707 14.7071L7.41501 17.9991L10 18.0001C10.553 18.0001 11 18.4481 11 19.0011C10.999 19.5531 10.552 20.0001 10 20.0001H9.99901L5.02402 19.9971C4.47402 19.9971 4.02802 19.5521 4.02502 19.0021L4.00002 14.0051C3.99702 13.4531 4.44302 13.0031 4.99502 13.0001H5.00002C5.55001 13.0001 5.99701 13.4441 6.00002 13.9951L6.01302 16.5731L9.29302 13.2931Z" fill="#202020" style="fill: var(--ui-icon-primary-color);"/>
</svg>
