<svg  viewBox="0 0 24 24" fill="none" xmlns="http://www.w3.org/2000/svg" id="__THIS_ID_NEEDS_FOR_UI_ICON_COMPONENT__">
<path d="M21.7505 12.0005C21.7509 13.8116 21.5753 15.6184 21.2262 17.3955C21.1876 17.5906 21.0732 17.7623 20.908 17.873C20.7429 17.9837 20.5405 18.0243 20.3455 17.9858C20.1504 17.9474 19.9786 17.8331 19.8678 17.668C19.757 17.5029 19.7163 17.3006 19.7546 17.1055C20.0848 15.4239 20.2509 13.7142 20.2505 12.0005C20.2505 9.81245 19.3813 7.71403 17.8342 6.16686C16.287 4.61968 14.1886 3.75049 12.0005 3.75049C9.81248 3.75049 7.71407 4.61968 6.16689 6.16686C4.61972 7.71403 3.75052 9.81245 3.75052 12.0005C3.75181 13.1075 3.56412 14.2066 3.19553 15.2504C3.12892 15.4376 2.9908 15.5906 2.81148 15.676C2.63216 15.7614 2.42627 15.7722 2.239 15.7061C2.05173 15.6399 1.89836 15.5021 1.81254 15.323C1.72672 15.1438 1.71546 14.938 1.78123 14.7506C2.09302 13.8673 2.25174 12.9372 2.25052 12.0005C2.25052 9.41463 3.27775 6.93468 5.10623 5.1062C6.93471 3.27772 9.41466 2.25049 12.0005 2.25049C14.5864 2.25049 17.0663 3.27772 18.8948 5.1062C20.7233 6.93468 21.7505 9.41463 21.7505 12.0005V12.0005ZM8.71964 7.90177C8.87485 7.77735 8.97427 7.59637 8.99604 7.39865C9.01781 7.20092 8.96015 7.00265 8.83573 6.84744C8.77413 6.77059 8.69799 6.70663 8.61166 6.6592C8.52534 6.61178 8.43052 6.58182 8.33261 6.57104C8.13489 6.54927 7.93661 6.60694 7.78141 6.73136C6.99005 7.36242 6.35143 8.16406 5.91319 9.07645C5.47496 9.98884 5.24844 10.9884 5.25052 12.0006C5.25559 13.7362 4.85495 15.449 4.08057 17.0023C4.03654 17.0905 4.01032 17.1865 4.00343 17.2849C3.99654 17.3832 4.00911 17.482 4.04042 17.5755C4.07173 17.6689 4.12117 17.7553 4.1859 17.8297C4.25064 17.9041 4.32939 17.9649 4.41768 18.0088C4.50596 18.0527 4.60202 18.0788 4.70038 18.0855C4.79874 18.0922 4.89747 18.0795 4.9909 18.048C5.08434 18.0166 5.17065 17.967 5.24491 17.9021C5.31916 17.8373 5.3799 17.7584 5.42365 17.6701C6.30172 15.9095 6.7561 13.968 6.75052 12.0006C6.74895 11.2132 6.92522 10.4356 7.26618 9.72591C7.60714 9.01618 8.10399 8.39262 8.71964 7.90177ZM12.0005 11.2506C11.8016 11.2506 11.6109 11.3296 11.4702 11.4703C11.3296 11.6109 11.2505 11.8017 11.2505 12.0006C11.2512 14.9224 10.5102 17.7965 9.09693 20.3538C9.04909 20.4399 9.01869 20.5346 9.00746 20.6325C8.99624 20.7304 9.00442 20.8295 9.03153 20.9243C9.05864 21.019 9.10415 21.1075 9.16545 21.1846C9.22676 21.2617 9.30267 21.326 9.38884 21.3738C9.47501 21.4216 9.56975 21.4519 9.66764 21.4631C9.76554 21.4743 9.86468 21.466 9.95939 21.4388C10.0541 21.4117 10.1425 21.3661 10.2196 21.3048C10.2967 21.2434 10.361 21.1674 10.4087 21.0812C11.9452 18.3013 12.751 15.1769 12.7505 12.0006C12.7505 11.8017 12.6715 11.6109 12.5308 11.4703C12.3902 11.3296 12.1994 11.2506 12.0005 11.2506ZM12.0005 8.25058C11.0063 8.25172 10.0531 8.64717 9.35013 9.35019C8.64712 10.0532 8.25166 11.0064 8.25053 12.0006C8.25053 12.1995 8.32954 12.3903 8.4702 12.5309C8.61085 12.6716 8.80161 12.7506 9.00053 12.7506C9.19944 12.7506 9.3902 12.6716 9.53086 12.5309C9.67151 12.3903 9.75053 12.1995 9.75053 12.0006C9.75053 11.4038 9.98758 10.8315 10.4095 10.4096C10.8315 9.98763 11.4038 9.75058 12.0005 9.75058C12.5973 9.75058 13.1696 9.98763 13.5915 10.4096C14.0135 10.8315 14.2505 11.4038 14.2505 12.0006C14.2582 14.9826 13.6013 17.9288 12.3276 20.6251C12.2856 20.7142 12.2616 20.8107 12.2569 20.9091C12.2522 21.0075 12.2669 21.1058 12.3002 21.1985C12.3335 21.2912 12.3847 21.3764 12.451 21.4493C12.5172 21.5222 12.5972 21.5813 12.6863 21.6233C12.7753 21.6653 12.8718 21.6894 12.9702 21.6941C13.0686 21.6988 13.1669 21.6841 13.2596 21.6508C13.3523 21.6175 13.4375 21.5662 13.5104 21.5C13.5833 21.4337 13.6425 21.3538 13.6845 21.2647C15.0527 18.3685 15.7585 15.2038 15.7505 12.0006C15.7494 11.0064 15.3539 10.0532 14.6509 9.35019C13.9479 8.64717 12.9947 8.25172 12.0005 8.25058ZM8.84965 14.2655C8.65474 14.2262 8.45218 14.2658 8.28643 14.3756C8.12067 14.4854 8.00526 14.6565 7.96552 14.8513C7.66169 16.3491 7.11699 17.7877 6.35264 19.1111C6.30335 19.1964 6.27135 19.2906 6.25848 19.3883C6.2456 19.486 6.2521 19.5853 6.2776 19.6804C6.30311 19.7756 6.34711 19.8648 6.40711 19.943C6.4671 20.0212 6.54191 20.0867 6.62726 20.136C6.7126 20.1852 6.80682 20.2172 6.90451 20.23C7.00221 20.2428 7.10147 20.2362 7.19663 20.2107C7.29179 20.1851 7.38098 20.1411 7.45911 20.081C7.53723 20.021 7.60276 19.9461 7.65195 19.8608C8.49726 18.3971 9.09959 16.8061 9.43549 15.1496C9.47504 14.9547 9.43554 14.752 9.32567 14.5862C9.21581 14.4204 9.04457 14.3051 8.84965 14.2655ZM12.0005 5.25058C11.7187 5.25059 11.4372 5.26802 11.1576 5.30277C11.0599 5.31497 10.9655 5.3463 10.8799 5.39498C10.7942 5.44365 10.719 5.50872 10.6586 5.58646C10.5981 5.66419 10.5535 5.75308 10.5274 5.84805C10.5013 5.94301 10.4941 6.04219 10.5063 6.13992C10.5309 6.33731 10.633 6.51682 10.79 6.63896C10.8677 6.69944 10.9566 6.74401 11.0516 6.77014C11.1465 6.79627 11.2457 6.80343 11.3435 6.79123C11.5614 6.76412 11.7809 6.75055 12.0005 6.75058C13.3924 6.75214 14.7269 7.30577 15.7111 8.29C16.6953 9.27422 17.249 10.6087 17.2505 12.0006C17.2505 12.9724 17.1905 13.9433 17.0706 14.9077C17.046 15.105 17.1008 15.3041 17.223 15.4611C17.3451 15.6181 17.5246 15.7201 17.722 15.7447C17.9194 15.7693 18.1185 15.7146 18.2755 15.5924C18.4324 15.4702 18.5345 15.2907 18.5591 15.0933C18.6866 14.0673 18.7505 13.0345 18.7505 12.0006C18.7485 10.211 18.0367 8.49527 16.7713 7.22984C15.5058 5.9644 13.7901 5.2526 12.0005 5.25058ZM17.4314 17.2742C17.3361 17.2496 17.2368 17.244 17.1392 17.2578C17.0417 17.2716 16.9478 17.3045 16.863 17.3545C16.7782 17.4046 16.7041 17.471 16.6449 17.5497C16.5857 17.6285 16.5427 17.7181 16.5182 17.8135C16.3809 18.3468 16.2226 18.8814 16.0477 19.4024C16.0164 19.4958 16.0037 19.5944 16.0105 19.6927C16.0173 19.791 16.0433 19.8869 16.0872 19.9751C16.131 20.0633 16.1918 20.142 16.2661 20.2067C16.3404 20.2713 16.4267 20.3208 16.52 20.3521C16.6134 20.3835 16.712 20.3961 16.8103 20.3893C16.9085 20.3826 17.0045 20.3565 17.0927 20.3126C17.1809 20.2688 17.2596 20.208 17.3242 20.1337C17.3889 20.0595 17.4384 19.9732 17.4697 19.8798C17.656 19.3248 17.8247 18.7554 17.9708 18.1874C17.9953 18.0921 18.0009 17.9928 17.9871 17.8953C17.9732 17.7978 17.9403 17.7039 17.8903 17.6191C17.8402 17.5343 17.7739 17.4602 17.6952 17.401C17.6164 17.3418 17.5268 17.2987 17.4314 17.2742V17.2742Z" fill="#202020" style="fill: var(--ui-icon-primary-color);"/>
</svg>
