<svg  viewBox="0 0 24 24" fill="none" xmlns="http://www.w3.org/2000/svg" id="__THIS_ID_NEEDS_FOR_UI_ICON_COMPONENT__">
<path fill-rule="evenodd" clip-rule="evenodd" d="M7.49521 9.51671C5.46321 11.7157 5.50621 15.2017 7.62421 17.3607C8.65821 18.4177 10.0322 19.0007 11.4962 19.0017H11.5012C12.9682 19.0017 14.3472 18.4187 15.3862 17.3607C17.5422 15.1627 17.5382 11.5877 15.3772 9.39271L12.3912 6.34171C12.0892 8.82371 11.1582 11.0017 9.50021 11.0017C8.99221 11.0017 8.16421 10.7757 7.49521 9.51671ZM11.5012 21.0017H11.4942C9.48821 20.9997 7.60621 20.2047 6.19521 18.7597C3.28121 15.7897 3.27721 10.9567 6.18621 7.99171L7.16921 6.99771C7.42321 6.74372 7.79221 6.64571 8.14121 6.73671C8.48821 6.83071 8.75821 7.10371 8.84821 7.45171C9.07821 8.34071 9.35221 8.77772 9.50321 8.94372C9.85821 8.56972 10.5002 7.05871 10.5002 4.50171C10.5002 4.35471 10.5002 4.21571 10.4922 4.07671C10.4732 3.78171 10.5862 3.49271 10.8002 3.28871C11.1972 2.91171 11.8332 2.91171 12.2142 3.30371L16.8042 7.99271C19.7242 10.9567 19.7292 15.7897 16.8142 18.7607C15.3952 20.2067 13.5092 21.0017 11.5012 21.0017Z" fill="#202020" style="fill: var(--ui-icon-primary-color);"/>
</svg>
