<svg  viewBox="0 0 24 24" fill="none" xmlns="http://www.w3.org/2000/svg" id="__THIS_ID_NEEDS_FOR_UI_ICON_COMPONENT__">
<path fill-rule="evenodd" clip-rule="evenodd" d="M18 14.586C17.604 14.763 16.825 15 15.5 15C14.376 15 13.399 14.617 12.365 14.212C11.203 13.757 10.001 13.286 8.5 13.286C7.443 13.286 6.624 13.413 6 13.584V12V5.416C6.396 5.239 7.177 5 8.5 5C9.624 5 10.601 5.383 11.635 5.788C12.797 6.243 13.999 6.714 15.5 6.714C16.438 6.714 17.276 6.613 18 6.414V14.586ZM19.268 4.68C18.806 4.346 18.208 4.251 17.669 4.427C17.093 4.614 16.343 4.714 15.5 4.714C14.376 4.714 13.399 4.331 12.365 3.926C11.203 3.471 10.001 3 8.5 3C5.613 3 4.495 3.952 4.3 4.144C4.108 4.331 4 4.589 4 4.857V12V15.143V20C4 20.553 4.447 21 5 21C5.553 21 6 20.553 6 20V15.702C6.395 15.526 7.173 15.286 8.5 15.286C9.624 15.286 10.601 15.669 11.635 16.074C12.797 16.529 13.999 17 15.5 17C17.309 17 18.423 16.622 19.041 16.305C19.633 15.998 20 15.402 20 14.749V6.106C20 5.546 19.727 5.013 19.268 4.68Z" fill="#202020" style="fill: var(--ui-icon-primary-color);"/>
</svg>
