<svg  viewBox="0 0 24 24" fill="none" xmlns="http://www.w3.org/2000/svg" id="__THIS_ID_NEEDS_FOR_UI_ICON_COMPONENT__">
<path fill-rule="evenodd" clip-rule="evenodd" d="M16.2402 22.0001C15.6882 22.0001 15.2402 21.5531 15.2402 21.0001V18.4011C15.2872 17.7381 15.0882 17.1611 14.6972 16.7421C14.4382 16.4661 14.3582 16.0681 14.4882 15.7141C14.6182 15.3591 14.9362 15.1081 15.3122 15.0651C17.7462 14.7831 20.0002 13.9471 20.0002 9.77411C20.0002 8.97411 19.7682 8.20311 19.3292 7.54711C18.9282 6.94911 18.7822 6.22011 18.9162 5.49411C19.0042 5.02111 18.9992 4.54011 18.9042 4.07511C18.5002 4.19511 17.8082 4.48011 16.8112 5.17411C16.5662 5.34411 16.2552 5.39511 15.9692 5.31511C14.1652 4.80811 12.2582 4.80811 10.4532 5.31511C10.1662 5.39511 9.85716 5.34411 9.61216 5.17411C8.62516 4.48711 7.93716 4.20111 7.51716 4.08311C7.42316 4.54411 7.41916 5.02111 7.50616 5.49111C7.63916 6.21311 7.48816 6.95011 7.08016 7.56811C6.64616 8.22711 6.41916 8.99711 6.42316 9.79711C6.42316 13.6911 8.30216 14.7301 11.1232 15.0931C11.4952 15.1411 11.8092 15.3931 11.9372 15.7461C12.0642 16.0991 11.9832 16.4931 11.7272 16.7671C11.3402 17.1821 11.1412 17.7531 11.1802 18.3341L11.1812 19.1221C11.1832 19.1621 11.1832 19.2021 11.1812 19.2421L11.1822 21.0001C11.1822 21.5531 10.7352 22.0001 10.1822 22.0001C9.63016 22.0001 9.18216 21.5531 9.18216 21.0001V20.4291C6.49716 20.7791 4.96716 19.3401 3.90616 18.3401C3.46616 17.9271 3.05216 17.5361 2.74916 17.4571C2.21416 17.3181 1.89316 16.7721 2.03216 16.2381C2.17116 15.7041 2.71716 15.3781 3.25116 15.5211C4.05016 15.7291 4.64616 16.2901 5.27716 16.8841C6.29916 17.8471 7.26916 18.7591 9.18216 18.4041V18.4011C9.14516 17.8721 9.22416 17.3301 9.40716 16.8171C7.35316 16.3051 4.42316 14.8121 4.42316 9.80211C4.41716 8.61011 4.75916 7.45611 5.41016 6.46711C5.53216 6.28211 5.57816 6.06511 5.53916 5.85411C5.33916 4.77111 5.45416 3.65911 5.87416 2.64311C5.98816 2.36711 6.21916 2.15611 6.50416 2.06811C6.83516 1.96611 8.05516 1.77111 10.3662 3.27111C12.2372 2.82211 14.1862 2.82211 16.0562 3.27111C18.3682 1.77111 19.5872 1.96511 19.9182 2.06811C20.2032 2.15611 20.4342 2.36711 20.5482 2.64311C20.9692 3.66111 21.0842 4.77211 20.8832 5.85811C20.8442 6.06711 20.8832 6.27211 20.9912 6.43511C21.6512 7.42211 22.0002 8.57611 22.0002 9.77411C22.0002 14.8381 19.0772 16.3131 17.0202 16.8071C17.2042 17.3361 17.2812 17.9051 17.2372 18.4781L17.2402 21.0001C17.2402 21.5531 16.7922 22.0001 16.2402 22.0001Z" fill="#202020" style="fill: var(--ui-icon-primary-color);"/>
</svg>
