<svg  viewBox="0 0 24 24" fill="none" xmlns="http://www.w3.org/2000/svg" id="__THIS_ID_NEEDS_FOR_UI_ICON_COMPONENT__">
<path d="M16.2187 8.72118C16.9091 8.72118 17.4687 8.16154 17.4687 7.47119C17.4687 6.78083 16.9091 6.22119 16.2187 6.22119C15.5284 6.22119 14.9688 6.78083 14.9688 7.47119C14.9688 8.16154 15.5284 8.72118 16.2187 8.72118Z" fill="#202020" style="fill: var(--ui-icon-primary-color);"/>
<path d="M21.7842 8.48269C21.367 7.42043 20.602 5.88774 19.3266 4.61837C18.0557 3.35337 16.5393 2.61025 15.4909 2.20955C14.34 1.76967 13.0321 2.04693 12.1591 2.91588L9.09122 5.96938C8.18181 6.87449 7.9197 8.26722 8.43896 9.43499C8.59997 9.79718 8.77509 10.1514 8.9622 10.4937L2.22883 17.227C2.0823 17.3736 2 17.5723 2 17.7795V21.217C2 21.6485 2.34976 21.9982 2.78125 21.9982H6.21873C6.65022 21.9982 6.99998 21.6485 6.99998 21.217V19.8107L8.40622 19.8107C8.83771 19.8107 9.18747 19.4609 9.18747 19.0294V17.6232H10.5937C11.0252 17.6232 11.375 17.2735 11.375 16.842C11.375 16.4105 11.0252 16.0607 10.5937 16.0607H8.40622C7.97474 16.0607 7.62498 16.4105 7.62498 16.842V18.2482L6.21873 18.2482C5.78725 18.2482 5.43749 18.598 5.43749 19.0295V20.4357H3.56249V18.1031L10.4904 11.1752C10.7449 10.9207 10.7926 10.5253 10.6059 10.2175C10.3352 9.77128 10.0865 9.29441 9.86677 8.80015C9.60899 8.22043 9.74032 7.52789 10.1936 7.07676L13.2614 4.02329C13.6994 3.5874 14.3556 3.44837 14.9332 3.66908C15.8403 4.01579 17.1476 4.65399 18.2244 5.72579C19.3078 6.80406 19.9674 8.13074 20.3299 9.05378C20.5561 9.62987 20.4186 10.2844 19.9797 10.7212L16.8748 13.8116C16.4226 14.2616 15.7478 14.3931 15.1554 14.1468C14.6669 13.9436 14.1937 13.7022 13.7492 13.4293C13.3815 13.2036 12.9004 13.3188 12.6747 13.6865C12.449 14.0542 12.5641 14.5353 12.9318 14.761C13.4456 15.0763 13.9918 15.355 14.5553 15.5894C15.7328 16.0792 17.0758 15.816 17.977 14.9191L21.0819 11.8287C21.9626 10.9522 22.2382 9.63882 21.7842 8.48269Z" fill="#202020" style="fill: var(--ui-icon-primary-color);"/>
</svg>
