<svg  viewBox="0 0 24 24" fill="none" xmlns="http://www.w3.org/2000/svg" id="__THIS_ID_NEEDS_FOR_UI_ICON_COMPONENT__">
<path d="M21.1176 7.75787C21.1193 8.39832 20.9941 9.03276 20.749 9.62446C20.5039 10.2162 20.1439 10.7534 19.6898 11.205L17.0382 13.8568C16.1232 14.7696 14.8835 15.2822 13.591 15.2822C12.2985 15.2822 11.0588 14.7696 10.1438 13.8568C10.0033 13.7161 9.92443 13.5253 9.9245 13.3265C9.92458 13.1277 10.0036 12.937 10.1442 12.7964C10.2848 12.6558 10.4754 12.5768 10.6743 12.5767C10.8731 12.5767 11.0638 12.6555 11.2045 12.796C11.838 13.428 12.6962 13.783 13.591 13.783C14.4858 13.783 15.3441 13.428 15.9775 12.796L18.6291 10.1443C19.262 9.51136 19.6176 8.65293 19.6176 7.75784C19.6176 6.86275 19.262 6.00433 18.629 5.37141C18.3156 5.05802 17.9436 4.80943 17.5341 4.63983C17.1247 4.47023 16.6858 4.38294 16.2426 4.38294C15.3475 4.38295 14.4891 4.73853 13.8562 5.37146L12 7.2276C11.8594 7.36826 11.6686 7.44729 11.4697 7.44729C11.2707 7.44729 11.08 7.36826 10.9393 7.2276C10.7986 7.08694 10.7196 6.89616 10.7196 6.69724C10.7196 6.49831 10.7986 6.30753 10.9393 6.16687L12.7954 4.31073C13.4772 3.62893 14.3458 3.16461 15.2915 2.9765C16.2372 2.78838 17.2174 2.88492 18.1082 3.2539C18.999 3.62288 19.7604 4.24773 20.296 5.04943C20.8317 5.85114 21.1176 6.79368 21.1176 7.75787H21.1176ZM11.9999 16.7734L10.1438 18.6296C9.83041 18.943 9.45836 19.1916 9.0489 19.3612C8.63943 19.5308 8.20057 19.6181 7.75737 19.6181C7.31417 19.6181 6.8753 19.5308 6.46583 19.3612C6.05637 19.1916 5.68432 18.943 5.37092 18.6296C5.05753 18.3162 4.80893 17.9442 4.63932 17.5347C4.46971 17.1253 4.38241 16.6864 4.38241 16.2432C4.3824 15.8 4.46969 15.3611 4.63929 14.9517C4.8089 14.5422 5.05749 14.1701 5.37088 13.8568L8.02243 11.205C8.65583 10.5729 9.51411 10.218 10.4089 10.218C11.3038 10.218 12.162 10.5729 12.7954 11.205C12.8651 11.2748 12.9478 11.3301 13.0388 11.3678C13.1298 11.4056 13.2274 11.4251 13.3259 11.4251C13.4245 11.4251 13.522 11.4057 13.6131 11.368C13.7041 11.3304 13.7869 11.2751 13.8566 11.2054C13.9262 11.1357 13.9815 11.053 14.0192 10.9619C14.0569 10.8709 14.0763 10.7733 14.0762 10.6748C14.0762 10.5762 14.0568 10.4787 14.019 10.3876C13.9812 10.2966 13.9259 10.2139 13.8562 10.1443C12.9412 9.23146 11.7015 8.71881 10.409 8.71881C9.11651 8.71881 7.8768 9.23146 6.96179 10.1443L4.31015 12.796C3.39683 13.7105 2.88401 14.9502 2.88441 16.2426C2.88481 17.535 3.3984 18.7744 4.31229 19.6883C5.22618 20.6021 6.46556 21.1157 7.75798 21.1161C9.05041 21.1165 10.2901 20.6036 11.2045 19.6903L13.0607 17.8342C13.2012 17.6935 13.28 17.5027 13.28 17.3039C13.2799 17.1051 13.2009 16.9144 13.0603 16.7738C12.9197 16.6332 12.729 16.5542 12.5302 16.5541C12.3314 16.5541 12.1406 16.6329 11.9999 16.7734L11.9999 16.7734Z" fill="#202020" style="fill: var(--ui-icon-primary-color);"/>
</svg>
