<svg  viewBox="0 0 24 24" fill="none" xmlns="http://www.w3.org/2000/svg" id="__THIS_ID_NEEDS_FOR_UI_ICON_COMPONENT__">
<path fill-rule="evenodd" clip-rule="evenodd" d="M19 17.4541L17 16.5561V6.54608L19 7.44408V17.4541ZM13 7.44408L15 6.54608V16.5561L13 17.4541V7.44408ZM9 6.54608L11 7.44408V17.4541L9 16.5561V6.54608ZM5 7.44408L7 6.54608V16.5561L5 17.4541V7.44408ZM20.41 5.88608L16.41 4.08808C16.395 4.08108 16.379 4.08008 16.364 4.07408C16.323 4.05808 16.282 4.04708 16.24 4.03608C16.201 4.02608 16.162 4.01708 16.122 4.01308C16.083 4.00808 16.044 4.00708 16.004 4.00708C15.96 4.00708 15.917 4.00808 15.873 4.01308C15.836 4.01708 15.801 4.02608 15.765 4.03508C15.721 4.04608 15.678 4.05808 15.635 4.07408C15.621 4.08008 15.604 4.08108 15.59 4.08808L12 5.70108L8.41 4.08808C8.395 4.08108 8.379 4.08008 8.364 4.07408C8.323 4.05808 8.282 4.04708 8.24 4.03608C8.201 4.02608 8.162 4.01708 8.122 4.01308C8.083 4.00808 8.044 4.00708 8.004 4.00708C7.96 4.00708 7.917 4.00808 7.873 4.01308C7.836 4.01708 7.801 4.02608 7.765 4.03508C7.721 4.04608 7.678 4.05808 7.635 4.07408C7.621 4.08008 7.604 4.08108 7.59 4.08808L3.59 5.88608C3.231 6.04708 3 6.40408 3 6.79808V19.0001C3 19.3391 3.172 19.6551 3.457 19.8401C3.621 19.9461 3.81 20.0001 4 20.0001C4.139 20.0001 4.279 19.9711 4.41 19.9121L8 18.2991L11.59 19.9121C11.605 19.9191 11.621 19.9161 11.637 19.9221C11.754 19.9691 11.875 20.0001 12 20.0001C12.125 20.0001 12.246 19.9691 12.363 19.9221C12.378 19.9161 12.396 19.9191 12.41 19.9121L16 18.2991L19.59 19.9121C19.721 19.9711 19.861 20.0001 20 20.0001C20.19 20.0001 20.379 19.9461 20.543 19.8401C20.828 19.6551 21 19.3391 21 19.0001V6.79808C21 6.40408 20.769 6.04708 20.41 5.88608Z" fill="#202020" style="fill: var(--ui-icon-primary-color);"/>
</svg>
