<svg  viewBox="0 0 24 24" fill="none" xmlns="http://www.w3.org/2000/svg" id="__THIS_ID_NEEDS_FOR_UI_ICON_COMPONENT__">
<path fill-rule="evenodd" clip-rule="evenodd" d="M15.5077 17.0062C14.6847 17.0062 14.0157 16.3372 14.0157 15.5142C14.0157 14.6912 14.6847 14.0222 15.5077 14.0222C16.2287 14.0222 16.8297 14.5342 16.9697 15.2132V15.2142C16.9887 15.3112 16.9997 15.4112 16.9997 15.5142C16.9997 16.3372 16.3307 17.0062 15.5077 17.0062ZM6.5357 19.0002C5.7127 19.0002 5.0437 18.3302 5.0437 17.5072C5.0437 16.6852 5.7127 16.0152 6.5357 16.0152C7.2557 16.0152 7.8577 16.5272 7.9977 17.2062V17.2092C8.0177 17.3052 8.0287 17.4052 8.0287 17.5072C8.0287 18.3302 7.3597 19.0002 6.5357 19.0002ZM18.9467 14.9922V4.00021C18.9467 3.69621 18.8097 3.40921 18.5727 3.21921C18.3357 3.03021 18.0247 2.95821 17.7307 3.02421L8.7587 5.01721C8.3007 5.11921 7.9757 5.52521 7.9757 5.99321V14.3342C7.5347 14.1342 7.0507 14.0152 6.5357 14.0152C4.6107 14.0152 3.0437 15.5822 3.0437 17.5072C3.0437 19.4332 4.6107 21.0002 6.5357 21.0002C8.4617 21.0002 10.0287 19.4332 10.0287 17.5072C10.0287 17.3292 10.0017 17.1572 9.9757 16.9852V6.79621L16.9467 5.24621V12.3402C16.5067 12.1402 16.0227 12.0222 15.5077 12.0222C13.5817 12.0222 12.0157 13.5882 12.0157 15.5142C12.0157 17.4402 13.5817 19.0062 15.5077 19.0062C17.4337 19.0062 18.9997 17.4402 18.9997 15.5142C18.9997 15.3352 18.9737 15.1642 18.9467 14.9922Z" fill="#202020" style="fill: var(--ui-icon-primary-color);"/>
</svg>
