<svg  viewBox="0 0 24 24" fill="none" xmlns="http://www.w3.org/2000/svg" id="__THIS_ID_NEEDS_FOR_UI_ICON_COMPONENT__">
<path fill-rule="evenodd" clip-rule="evenodd" d="M19.7398 4.26076C19.3928 3.91276 18.8298 3.91276 18.4828 4.26076L4.26076 18.4828C4.08676 18.6568 3.99976 18.8838 3.99976 19.1118C3.99976 19.3388 4.08676 19.5668 4.26076 19.7398C4.60776 20.0868 5.16976 20.0868 5.51776 19.7398L19.7398 5.51776C20.0868 5.16976 20.0868 4.60776 19.7398 4.26076ZM16.0001 19.0001C15.1731 19.0001 14.5001 18.3271 14.5001 17.5001C14.5001 16.6731 15.1731 16.0001 16.0001 16.0001C16.8271 16.0001 17.5001 16.6731 17.5001 17.5001C17.5001 18.3271 16.8271 19.0001 16.0001 19.0001ZM16.0001 14.0001C14.0701 14.0001 12.5001 15.5701 12.5001 17.5001C12.5001 19.4301 14.0701 21.0001 16.0001 21.0001C17.9301 21.0001 19.5001 19.4301 19.5001 17.5001C19.5001 15.5701 17.9301 14.0001 16.0001 14.0001ZM8.00006 6.00006C8.82706 6.00006 9.50006 6.67306 9.50006 7.50006C9.50006 8.32706 8.82706 9.00006 8.00006 9.00006C7.17306 9.00006 6.50006 8.32706 6.50006 7.50006C6.50006 6.67306 7.17306 6.00006 8.00006 6.00006ZM8.00006 11.0001C9.93006 11.0001 11.5001 9.43006 11.5001 7.50006C11.5001 5.57006 9.93006 4.00006 8.00006 4.00006C6.07006 4.00006 4.50006 5.57006 4.50006 7.50006C4.50006 9.43006 6.07006 11.0001 8.00006 11.0001Z" fill="#202020" style="fill: var(--ui-icon-primary-color);"/>
</svg>
