<svg  viewBox="0 0 24 24" fill="none" xmlns="http://www.w3.org/2000/svg" id="__THIS_ID_NEEDS_FOR_UI_ICON_COMPONENT__">
<path d="M20.0842 15.0417C18.8999 15.0417 17.7398 14.8568 16.6393 14.493C16.1027 14.3081 15.4944 14.4505 15.1407 14.8103L12.961 16.4564C10.461 15.1226 8.8603 13.5229 7.5426 11.039L9.14427 8.91084C9.54747 8.50665 9.692 7.91748 9.5192 7.36474C9.15436 6.2592 8.96844 5.09811 8.96844 3.91579C8.96844 3.08007 8.28837 2.4 7.45265 2.4H3.91579C3.08007 2.4 2.4 3.08007 2.4 3.91579C2.4 13.6664 10.3336 21.6 20.0842 21.6C20.9199 21.6 21.6 20.9199 21.6 20.0842V16.5575C21.6 15.7218 20.9199 15.0417 20.0842 15.0417ZM20.5895 20.0842C20.5895 20.3631 20.3621 20.5895 20.0842 20.5895C10.8904 20.5895 3.41051 13.1096 3.41051 3.91579C3.41051 3.63689 3.63788 3.41051 3.91579 3.41051H7.45265C7.73056 3.41051 7.95793 3.63689 7.95793 3.91579C7.95793 5.20625 8.16005 6.47345 8.55615 7.67495C8.61474 7.8639 8.56728 8.05897 8.38235 8.25095L6.54318 10.6863C6.42698 10.8409 6.40879 11.0481 6.49671 11.2199C7.9953 14.1635 9.81529 15.9845 12.7802 17.5033C12.9509 17.5922 13.1601 17.5741 13.3147 17.4569L15.8027 15.5712C15.9381 15.4378 16.1371 15.3914 16.317 15.451C17.5256 15.8501 18.7928 16.0522 20.0843 16.0522C20.3622 16.0522 20.5896 16.2786 20.5896 16.5575L20.5895 20.0842Z" fill="#202020" style="fill: var(--ui-icon-primary-color);"/>
<path fill-rule="evenodd" clip-rule="evenodd" d="M9.5192 7.36474C9.692 7.91748 9.54747 8.50665 9.14427 8.91084L7.5426 11.039C8.8603 13.5229 10.461 15.1226 12.961 16.4564L15.1407 14.8103C15.4944 14.4505 16.1027 14.3081 16.6393 14.493C17.7398 14.8568 18.8999 15.0417 20.0842 15.0417C20.9199 15.0417 21.6 15.7218 21.6 16.5575V20.0842C21.6 20.9199 20.9199 21.6 20.0842 21.6C10.3336 21.6 2.4 13.6664 2.4 3.91579C2.4 3.08007 3.08007 2.4 3.91579 2.4H7.45265C8.28837 2.4 8.96844 3.08007 8.96844 3.91579C8.96844 5.09811 9.15436 6.2592 9.5192 7.36474ZM14.8779 14.5075L12.9255 15.982C10.6974 14.7511 9.23275 13.2871 8.01642 11.0746L9.44809 9.17235C9.94136 8.66278 10.1148 7.92938 9.90097 7.24538L9.89905 7.23938C9.54772 6.17477 9.36844 5.05601 9.36844 3.91579C9.36844 2.85915 8.50929 2 7.45265 2H3.91579C2.85916 2 2 2.85916 2 3.91579C2 13.8873 10.1127 22 20.0842 22C21.1408 22 22 21.1408 22 20.0842V16.5575C22 15.5008 21.1408 14.6417 20.0842 14.6417C18.9424 14.6417 17.8256 14.4636 16.7672 14.1139C16.1058 13.8871 15.3481 14.0483 14.8779 14.5075ZM8.38235 8.25095C8.56728 8.05897 8.61474 7.8639 8.55615 7.67495C8.16005 6.47345 7.95793 5.20625 7.95793 3.91579C7.95793 3.63689 7.73056 3.41051 7.45265 3.41051H3.91579C3.63788 3.41051 3.41051 3.63689 3.41051 3.91579C3.41051 13.1096 10.8904 20.5895 20.0842 20.5895C20.3621 20.5895 20.5895 20.3631 20.5895 20.0842L20.5896 16.5575C20.5896 16.2786 20.3622 16.0522 20.0843 16.0522C18.7928 16.0522 17.5256 15.8501 16.317 15.451C16.1371 15.3914 15.9381 15.4378 15.8027 15.5712L13.3147 17.4569C13.1601 17.5741 12.9509 17.5922 12.7802 17.5033C9.81529 15.9845 7.9953 14.1635 6.49671 11.2199C6.40879 11.0481 6.42698 10.8409 6.54318 10.6863L8.38235 8.25095ZM6.14024 11.4013C5.98269 11.0927 6.01597 10.722 6.22341 10.446L8.07761 7.99074L8.09426 7.97345C8.15204 7.91348 8.17023 7.87191 8.17609 7.85149C8.18085 7.83487 8.18164 7.819 8.17482 7.79583C7.76613 6.55454 7.55793 5.24652 7.55793 3.91579C7.55793 3.85831 7.51016 3.81051 7.45265 3.81051H3.91579C3.85828 3.81051 3.81051 3.85831 3.81051 3.91579C3.81051 12.8887 11.1113 20.1895 20.0842 20.1895C20.1417 20.1895 20.1895 20.1417 20.1895 20.0842L20.1896 16.5575C20.1896 16.5 20.1418 16.4522 20.0843 16.4522C18.7509 16.4522 17.4413 16.2435 16.1916 15.8308C16.1546 15.8185 16.1121 15.8279 16.0834 15.8562L16.0649 15.8744L13.5564 17.7756C13.2802 17.985 12.9058 18.019 12.5969 17.8589C9.55817 16.302 7.67719 14.4203 6.14024 11.4013Z" fill="#202020" style="fill: var(--ui-icon-primary-color);"/>
</svg>
