<svg  viewBox="0 0 24 24" fill="none" xmlns="http://www.w3.org/2000/svg" id="__THIS_ID_NEEDS_FOR_UI_ICON_COMPONENT__">
<path fill-rule="evenodd" clip-rule="evenodd" d="M20.3032 13.4258C19.7772 13.2588 19.2152 13.5498 19.0472 14.0758C18.1102 17.0218 15.3522 18.9998 12.1842 18.9998C8.22224 18.9998 5.00024 15.8598 5.00024 11.9998C5.00024 8.14076 8.22224 4.99976 12.1842 4.99976C13.9122 4.99976 15.5422 5.60176 16.8292 6.66976L14.6632 6.31276C14.1132 6.21276 13.6032 6.59176 13.5132 7.13576C13.4232 7.68076 13.7922 8.19576 14.3372 8.28476L18.5832 8.98676C18.6382 8.99576 18.6942 8.99976 18.7472 8.99976C18.8662 8.99976 18.9822 8.97876 19.0902 8.93876C19.1272 8.92476 19.1572 8.89876 19.1932 8.87976C19.2592 8.84576 19.3282 8.81576 19.3852 8.76776C19.4212 8.73876 19.4442 8.69676 19.4752 8.66276C19.5222 8.61376 19.5722 8.56676 19.6072 8.50676C19.6322 8.46376 19.6422 8.41276 19.6612 8.36476C19.6852 8.30576 19.7172 8.25076 19.7292 8.18576L20.4832 4.18576C20.5852 3.64276 20.2282 3.11876 19.6852 3.01776C19.1442 2.91976 18.6192 3.27276 18.5172 3.81476L18.2452 5.25576C16.5812 3.81476 14.4482 2.99976 12.1842 2.99976C7.12024 2.99976 3.00024 7.03676 3.00024 11.9998C3.00024 16.9628 7.12024 20.9998 12.1842 20.9998C16.2262 20.9998 19.7502 18.4608 20.9532 14.6818C21.1202 14.1558 20.8292 13.5938 20.3032 13.4258Z" fill="#202020" style="fill: var(--ui-icon-primary-color);"/>
</svg>
