<svg  viewBox="0 0 24 24" fill="none" xmlns="http://www.w3.org/2000/svg" id="__THIS_ID_NEEDS_FOR_UI_ICON_COMPONENT__">
<path d="M6.37499 18.75C6.37499 18.9725 6.30901 19.19 6.1854 19.375C6.06178 19.56 5.88608 19.7042 5.68051 19.7894C5.47494 19.8745 5.24875 19.8968 5.03052 19.8534C4.81229 19.81 4.61183 19.7028 4.4545 19.5455C4.29716 19.3882 4.19002 19.1877 4.14661 18.9695C4.1032 18.7512 4.12548 18.525 4.21063 18.3195C4.29578 18.1139 4.43997 17.9382 4.62498 17.8146C4.80998 17.691 5.02749 17.625 5.24999 17.625C5.54826 17.6253 5.83421 17.744 6.04512 17.9549C6.25603 18.1658 6.37466 18.4517 6.37499 18.75ZM5.24999 3.75C5.05108 3.75 4.86032 3.82902 4.71966 3.96967C4.57901 4.11032 4.49999 4.30109 4.49999 4.5C4.49999 4.69891 4.57901 4.88968 4.71966 5.03033C4.86032 5.17098 5.05108 5.25 5.24999 5.25C12.6939 5.25 18.75 11.306 18.75 18.75C18.75 18.9489 18.829 19.1397 18.9697 19.2803C19.1103 19.421 19.3011 19.5 19.5 19.5C19.6989 19.5 19.8897 19.421 20.0303 19.2803C20.171 19.1397 20.25 18.9489 20.25 18.75C20.25 10.4789 13.521 3.75 5.24999 3.75ZM5.24999 10.5C5.05108 10.5 4.86032 10.579 4.71966 10.7197C4.57901 10.8603 4.49999 11.0511 4.49999 11.25C4.49999 11.4489 4.57901 11.6397 4.71966 11.7803C4.86032 11.921 5.05108 12 5.24999 12C7.03959 12.002 8.7553 12.7138 10.0207 13.9793C11.2862 15.2447 11.998 16.9604 12 18.75C12 18.9489 12.079 19.1397 12.2197 19.2803C12.3603 19.421 12.5511 19.5 12.75 19.5C12.9489 19.5 13.1397 19.421 13.2803 19.2803C13.421 19.1397 13.5 18.9489 13.5 18.75C13.4975 16.5627 12.6275 14.4657 11.0809 12.9191C9.53426 11.3725 7.43727 10.5025 5.24999 10.5Z" fill="#202020" style="fill: var(--ui-icon-primary-color);"/>
</svg>
