<svg width="17" height="18" viewBox="0 0 17 18" fill="none" xmlns="http://www.w3.org/2000/svg">
<g opacity="0.75">
<g clip-path="url(#clip0)">
<path d="M16.3333 16.4449L10.7978 10.9093C11.7018 9.84173 12.25 8.46366 12.25 6.95832C12.25 3.58079 9.50251 0.833313 6.12501 0.833313C2.7475 0.833313 0 3.58079 0 6.95832C0 10.3359 2.74747 13.0833 6.12501 13.0833C7.63034 13.0833 9.00842 12.5351 10.076 11.6311L15.6116 17.1666L16.3333 16.4449ZM6.12501 12.0625C3.31074 12.0625 1.02084 9.77259 1.02084 6.95832C1.02084 4.14405 3.31074 1.85416 6.12501 1.85416C8.93928 1.85416 11.2292 4.14405 11.2292 6.95832C11.2292 9.77259 8.93928 12.0625 6.12501 12.0625Z" fill="white"/>
</g>
</g>
<defs>
<clipPath id="clip0">
<rect y="0.833313" width="16.3333" height="16.3333" fill="white"/>
</clipPath>
</defs>
</svg>
