<svg  viewBox="0 0 24 24" fill="none" xmlns="http://www.w3.org/2000/svg" id="__THIS_ID_NEEDS_FOR_UI_ICON_COMPONENT__">
<path d="M21.375 11.0005H20.75V7.78639C20.75 7.43156 20.47 7.14357 20.125 7.14357H19.5V5.21511C19.5 4.86027 19.22 4.57229 18.875 4.57229H16.7613L15.6837 2.35584C15.5287 2.037 15.1538 1.90972 14.845 2.06786L13.405 2.80967L13.1837 2.35584C13.0287 2.03829 12.6538 1.90972 12.345 2.06914L7.4775 4.57229H3.875C2.84125 4.57229 2 5.43753 2 6.50075V18.0715C2 19.1348 2.84125 20 3.875 20H20.125C20.47 20 20.75 19.712 20.75 19.3572V16.1431H21.375C21.72 16.1431 22 15.8551 22 15.5003V11.6433C22 11.2885 21.72 11.0005 21.375 11.0005ZM18.25 5.85793V7.14357H18.0113L17.3863 5.85793H18.25ZM14.845 3.50649L16.6137 7.14357H15.5113L13.9638 3.95904L14.845 3.50649ZM12.345 3.50649L14.1137 7.14357H5.2725L12.345 3.50649ZM3.875 5.85793H4.9775L3.3 6.7206C3.275 6.64989 3.25 6.57789 3.25 6.50075C3.25 6.14591 3.53 5.85793 3.875 5.85793ZM19.5 18.7144H3.875C3.53 18.7144 3.25 18.4264 3.25 18.0715V8.30579C3.455 8.38165 3.665 8.42922 3.875 8.42922H19.5V11.0005H17C15.6212 11.0005 14.5 12.1537 14.5 13.5718C14.5 14.9899 15.6212 16.1431 17 16.1431H19.5V18.7144ZM20.75 14.8574H17C16.3113 14.8574 15.75 14.2802 15.75 13.5718C15.75 12.8634 16.3113 12.2861 17 12.2861H20.75V14.8574Z" fill="#202020" style="fill: var(--ui-icon-primary-color);"/>
</svg>
