<svg xmlns="http://www.w3.org/2000/svg" width="256" height="256"><path fill-opacity=".016" d="M0 128.004v128.004l128.25-.254 128.25-.254.254-127.75L257.008 0H0v128.004m.485.496c0 70.4.119 99.053.265 63.672.146-35.38.146-92.98 0-128C.604 29.153.485 58.1.485 128.5" fill="#1976D2" fill-rule="evenodd"/><path fill-opacity=".179" d="M10.5 1.164C7.314 2.922 2.943 7.268 1.411 10.2.22 12.48.003 30.727.022 127.2c.021 108.77.111 114.494 1.859 118.3 2.185 4.758 4.415 6.89 9.373 8.962C14.494 255.815 28.515 256 128 256s113.506-.185 116.746-1.538c5.062-2.115 7.087-4.146 9.868-9.899l2.386-4.937V125.254c0-75.993-.336-114.165-1-113.754-.55.34-1 .157-1-.406 0-1.907-6.449-8.384-9.702-9.743C242.644.242 221.476.005 127.282.03 45.515.052 11.925.378 10.5 1.164M.483 127c0 63.525.12 89.513.267 57.75.146-31.762.146-83.737 0-115.5C.603 37.488.483 63.475.483 127M159 122.5V153h9V92h-9v30.5m22 0V153h9V92h-9v30.5m-99.624-12.414c-1.719.498-3.686 1.583-4.373 2.41C75.271 114.584 74 114.374 74 112c0-1.667-.667-2-4-2h-4v60h9v-10c0-5.5.214-10 .476-10s1.949.898 3.75 1.996c1.832 1.117 5.043 1.998 7.29 2 9.883.009 16.488-8.552 16.478-21.36-.003-3.925-.477-8.836-1.054-10.913-1.428-5.143-6.324-10.458-10.772-11.693-4.26-1.183-5.543-1.176-9.792.056m30.795 17.164c.384 19.757 1.293 22.793 7.617 25.435 4.805 2.007 12.429 1.27 16.276-1.574 2.904-2.147 2.936-2.149 2.936-.141 0 1.739.645 2.03 4.5 2.03h4.5v-43h-9v15.826c0 15.415-.062 15.884-2.402 18.082-3.436 3.228-9.452 3.84-12.613 1.283-2.44-1.973-2.491-2.313-2.802-18.6L120.865 110h-9.03l.336 17.25m-31.485-10.233C75.282 118.639 75 119.36 75 131.55c0 11.022.066 11.357 2.635 13.377 3.126 2.459 8.046 2.685 11.148.512 3.531-2.472 5.217-6.811 5.217-13.421 0-8.185-1.996-12.7-6.432-14.554-1.927-.805-3.631-1.425-3.786-1.378l-3.096.931" fill="#1976D2" fill-rule="evenodd"/><path fill-opacity=".617" d="M12.256 1.117C7.873 2.383 2.337 8.125 1.058 12.731.387 15.147.009 36.533.006 72.321L0 128.142l9.002-.321 9.003-.321-.003 50.8c-.002 43.454.217 51.223 1.515 53.733C22.767 238.317 16.999 238 128 238s105.233.317 108.483-5.967c1.298-2.509 1.517-10.28 1.516-53.733l-.002-50.8H256.5l.258-56.814c.15-32.847-.115-56.583-.628-56.266-.488.301-1.148-.762-1.469-2.363-.787-3.936-6.774-9.717-11.392-10.999C238.4-.294 16.947-.237 12.256 1.117M.468 71.5c0 31.35.127 44.03.282 28.179.154-15.852.154-41.502-.001-57C.594 27.18.468 40.15.468 71.5M159 122.555v31.555l4.75-.305 4.75-.305.264-31.25.264-31.25H159v31.555m21.236-.305.264 31.25 4.75.305 4.75.305V91h-10.028l.264 31.25M78.689 110.857c-3.16 1.65-3.904 1.746-4.357.566-.358-.932-2.062-1.423-4.939-1.423H65v29.833c0 16.409.193 30.027.429 30.263.237.236 2.487.266 5 .066l4.571-.363v-19.77l3.25 1.982c4.595 2.801 12.412 2.68 16.852-.262 5.459-3.618 8.377-10.67 8.377-20.249 0-6.533-.457-8.908-2.489-12.948-3.233-6.425-6.581-8.78-13.199-9.282-3.927-.299-6.273.111-9.102 1.587M112 126.532c0 18.204.74 21.541 5.629 25.396 2.476 1.951 3.79 2.212 9.548 1.889 4.495-.252 7.298-.936 8.578-2.096 2.474-2.238 3.245-2.172 3.245.279 0 1.704.667 2 4.5 2h4.5v-44h-10v16.443c0 15.859-.079 16.499-2.223 18-3.114 2.182-10.042 2.026-12.122-.272-1.396-1.543-1.655-4.356-1.655-18V110h-10v16.532m-34.365-7.459C75.09 121.074 75 121.502 75 131.534c0 9.233.231 10.603 2.08 12.326 4.425 4.122 11.863 3.086 14.504-2.022 2.153-4.163 2.828-11.61 1.5-16.534-2.053-7.612-9.749-10.715-15.449-6.231" fill="#1976D2" fill-rule="evenodd"/><path fill-opacity=".645" d="M23.763 19.565c-6.371 3.457-6.078-2.666-5.255 109.82l.746 102.023 2.796 2.796L24.846 237h206.308l2.796-2.796 2.796-2.796.746-102.023c.684-93.415.609-102.29-.89-105.187-3.389-6.555 2.849-6.202-108.802-6.158-87.651.035-101.669.24-104.037 1.525m134.69 72.696c-.266.693-.364 14.756-.218 31.25l.265 29.989 5.25.302 5.25.303V91h-5.031c-3.126 0-5.215.478-5.516 1.261M180 122.552v31.553l5.25-.303 5.25-.302.264-31.25.264-31.25H180v31.552m-97.791-13.568c-1.81.429-4.172 1.578-5.25 2.553-1.888 1.709-1.959 1.695-1.959-.382 0-1.919-.547-2.155-5-2.155h-5V171.105l5.25-.303 5.25-.302v-9.751c0-5.364.017-9.751.039-9.75.021 0 1.803.901 3.961 2.001 4.872 2.484 8.795 2.503 14.154.07 6.183-2.807 9.566-9.138 10.129-18.953.241-4.189-.087-9.555-.727-11.924-1.503-5.563-7.196-11.86-11.904-13.168-4.082-1.133-4.326-1.134-8.943-.041m29.157 1.506c-.315.819-.413 8.806-.219 17.75.398 18.342 1.354 21.379 7.853 24.965 4.082 2.251 12.604 1.94 16.485-.603 2.03-1.33 2.402-1.339 2.891-.064.39 1.016 2.103 1.462 5.612 1.462h5.05l-.269-22.25-.269-22.25-5.25-.302-5.25-.303v16.398c0 14.906-.175 16.555-1.922 18.137-2.681 2.426-9.068 3.104-11.578 1.229-1.84-1.374-2.025-2.861-2.316-18.576L121.868 109h-4.965c-3.476 0-5.137.447-5.537 1.49m-32.116 8.001c-1.787.777-3.278 1.997-3.312 2.711-.034.714-.021 5.798.03 11.298.081 8.838.334 10.203 2.173 11.75 2.32 1.951 6.982 2.29 9.914.72C91.286 143.242 93 138.571 93 131.5c0-7.541-1.656-11.566-5.472-13.305-3.28-1.495-4.237-1.46-8.278.296" fill="#1976D2" fill-rule="evenodd"/></svg>