<svg width="50" height="50" viewBox="0 0 50 50" fill="none" xmlns="http://www.w3.org/2000/svg">
<rect width="50" height="50" rx="16" fill="#202020"/>
<path d="M9.75781 25.9922V30H7.41406V18.625H11.8516C12.7057 18.625 13.4557 18.7812 14.1016 19.0938C14.7526 19.4062 15.2526 19.8516 15.6016 20.4297C15.9505 21.0026 16.125 21.6562 16.125 22.3906C16.125 23.5052 15.7422 24.3854 14.9766 25.0312C14.2161 25.6719 13.1615 25.9922 11.8125 25.9922H9.75781ZM9.75781 24.0938H11.8516C12.4714 24.0938 12.9427 23.9479 13.2656 23.6562C13.5938 23.3646 13.7578 22.9479 13.7578 22.4062C13.7578 21.849 13.5938 21.3984 13.2656 21.0547C12.9375 20.7109 12.4844 20.5339 11.9062 20.5234H9.75781V24.0938ZM26.3516 18.625V26.1172C26.3516 27.362 25.9609 28.3464 25.1797 29.0703C24.4036 29.7943 23.3411 30.1562 21.9922 30.1562C20.6641 30.1562 19.6094 29.8047 18.8281 29.1016C18.0469 28.3984 17.6484 27.4323 17.6328 26.2031V18.625H19.9766V26.1328C19.9766 26.8776 20.1536 27.4219 20.5078 27.7656C20.8672 28.1042 21.362 28.2734 21.9922 28.2734C23.3099 28.2734 23.9792 27.5807 24 26.1953V18.625H26.3516ZM30.6172 28.1172H35.5938V30H28.2734V18.625H30.6172V28.1172ZM39.2891 28.1172H44.2656V30H36.9453V18.625H39.2891V28.1172Z" fill="white"/>
</svg>
