<svg  viewBox="0 0 24 24" fill="none" xmlns="http://www.w3.org/2000/svg" id="__THIS_ID_NEEDS_FOR_UI_ICON_COMPONENT__">
<path fill-rule="evenodd" clip-rule="evenodd" d="M6.766 17.6441C7.121 17.2221 7.066 16.5911 6.644 16.2341C4.938 14.8001 4 12.9411 4 11.0001C4 9.05915 4.938 7.20015 6.644 5.76615C7.066 5.40915 7.121 4.77815 6.766 4.35615C6.409 3.93415 5.779 3.87915 5.356 4.23415C3.192 6.05615 2 8.45915 2 11.0001C2 13.5411 3.192 15.9441 5.356 17.7661C5.544 17.9231 5.772 18.0001 5.999 18.0001C6.284 18.0001 6.567 17.8791 6.766 17.6441ZM18.644 17.7661C20.808 15.9441 22 13.5411 22 11.0001C22 8.45915 20.808 6.05615 18.644 4.23415C18.22 3.88015 17.591 3.93515 17.234 4.35615C16.879 4.77815 16.934 5.40915 17.356 5.76615C19.062 7.20015 20 9.05915 20 11.0001C20 12.9411 19.062 14.8001 17.356 16.2341C16.934 16.5911 16.879 17.2221 17.234 17.6441C17.433 17.8791 17.716 18.0001 18.001 18.0001C18.228 18.0001 18.456 17.9231 18.644 17.7661ZM7.5 11.0001C7.5 9.80715 8.084 8.65715 9.144 7.76515C9.566 7.40915 9.621 6.77815 9.265 6.35615C8.91 5.93415 8.28 5.87715 7.856 6.23515C6.337 7.51415 5.5 9.20615 5.5 11.0001C5.5 12.7941 6.337 14.4861 7.856 15.7651C8.044 15.9231 8.272 16.0001 8.499 16.0001C8.784 16.0001 9.067 15.8791 9.265 15.6441C9.621 15.2221 9.566 14.5911 9.144 14.2351C8.084 13.3431 7.5 12.1931 7.5 11.0001ZM18.5 11.0001C18.5 12.7941 17.663 14.4861 16.144 15.7651C15.956 15.9231 15.728 16.0001 15.501 16.0001C15.216 16.0001 14.933 15.8791 14.735 15.6441C14.379 15.2221 14.434 14.5911 14.856 14.2351C15.916 13.3431 16.5 12.1931 16.5 11.0001C16.5 9.80715 15.916 8.65715 14.856 7.76515C14.434 7.40915 14.379 6.77815 14.735 6.35615C15.09 5.93515 15.721 5.87815 16.144 6.23515C17.663 7.51415 18.5 9.20615 18.5 11.0001ZM12 11.9999C11.448 11.9999 11 11.5519 11 10.9999C11 10.4479 11.448 9.99995 12 9.99995C12.552 9.99995 13 10.4479 13 10.9999C13 11.5519 12.552 11.9999 12 11.9999ZM12 7.99995C10.346 7.99995 9 9.34595 9 10.9999C9 12.3139 9.855 13.4219 11.035 13.8259C11.024 13.8849 11 13.9379 11 13.9999V19.9999C11 20.5529 11.447 20.9999 12 20.9999C12.553 20.9999 13 20.5529 13 19.9999V13.9999C13 13.9379 12.976 13.8849 12.965 13.8259C14.145 13.4219 15 12.3139 15 10.9999C15 9.34595 13.654 7.99995 12 7.99995Z" fill="#202020" style="fill: var(--ui-icon-primary-color);"/>
</svg>
