<svg  viewBox="0 0 24 24" fill="none" xmlns="http://www.w3.org/2000/svg" id="__THIS_ID_NEEDS_FOR_UI_ICON_COMPONENT__">
<path fill-rule="evenodd" clip-rule="evenodd" d="M19 16.4022L13 17.7502V7.59723L19 6.25023V16.4022ZM5 6.25023L11 7.59723V17.7502L5 16.4022V6.25023ZM20.625 4.21823C20.387 4.02923 20.077 3.95723 19.78 4.02423L12 5.77223L4.22 4.02423C3.922 3.95623 3.613 4.02923 3.375 4.21823C3.138 4.40923 3 4.69623 3 5.00023V17.2022C3 17.6702 3.324 18.0752 3.78 18.1772L11.78 19.9752C11.854 19.9922 11.927 20.0002 12 20.0002C12.073 20.0002 12.146 19.9922 12.22 19.9752L20.22 18.1772C20.676 18.0752 21 17.6702 21 17.2022V5.00023C21 4.69623 20.862 4.40923 20.625 4.21823Z" fill="#202020" style="fill: var(--ui-icon-primary-color);"/>
</svg>
