<svg  viewBox="0 0 24 24" fill="none" xmlns="http://www.w3.org/2000/svg" id="__THIS_ID_NEEDS_FOR_UI_ICON_COMPONENT__">
<path fill-rule="evenodd" clip-rule="evenodd" d="M4.40287 11.622C5.51887 12.005 6.40787 12.939 6.77987 14.123L6.81987 14.243C7.24587 15.499 7.07287 16.851 6.35887 17.865C6.22887 18.049 6.25787 18.269 6.39487 18.373L8.46687 19.947C8.53987 20.002 8.61087 20.002 8.65487 19.997C8.70487 19.989 8.77787 19.962 8.83687 19.878L9.06787 19.55C9.75687 18.573 10.8669 17.97 12.0389 17.936C13.3549 17.909 14.5369 18.512 15.2729 19.575L15.3909 19.746C15.4499 19.83 15.5219 19.858 15.5729 19.866C15.6169 19.875 15.6889 19.872 15.7609 19.816L17.8219 18.261C17.9659 18.153 17.9979 17.922 17.8909 17.767L17.6309 17.392C16.9609 16.424 16.7619 15.168 17.0989 14.033C17.4649 12.797 18.3959 11.819 19.5909 11.419L19.7919 11.351C19.9529 11.298 20.0399 11.098 19.9829 10.914L19.1959 8.393C19.1589 8.275 19.0829 8.222 19.0409 8.2C18.9809 8.169 18.9159 8.164 18.8539 8.185L18.5139 8.298C17.3509 8.685 16.0679 8.475 15.0829 7.734L14.9749 7.653C14.0389 6.949 13.4819 5.814 13.4859 4.618L13.4879 4.338C13.4879 4.205 13.4249 4.122 13.3869 4.084C13.3509 4.047 13.2899 4.003 13.2039 4.003L10.6569 4C10.5009 4 10.3739 4.149 10.3729 4.333L10.3719 4.575C10.3669 5.79 9.79787 6.946 8.84987 7.669L8.72087 7.767C7.67787 8.56 6.31787 8.784 5.08587 8.364C5.03887 8.348 4.99487 8.351 4.95287 8.373C4.92087 8.389 4.86287 8.43 4.83487 8.521L4.01787 11.117C3.95887 11.306 4.05587 11.503 4.23887 11.566L4.40287 11.622ZM8.61387 22C8.12787 22 7.65587 21.842 7.25787 21.539L5.18587 19.966C4.19587 19.216 3.97687 17.773 4.69687 16.75C5.07087 16.22 5.14787 15.539 4.92787 14.893L4.87287 14.725C4.68987 14.143 4.27187 13.691 3.75487 13.514H3.75387L3.59087 13.457C2.37287 13.04 1.72287 11.749 2.10987 10.517L2.92587 7.922C3.11087 7.335 3.50987 6.861 4.04987 6.588C4.57787 6.322 5.17487 6.281 5.73287 6.472C6.33187 6.676 6.99687 6.565 7.50987 6.175L7.63887 6.077C8.09487 5.729 8.36987 5.164 8.37187 4.567L8.37287 4.326C8.37787 3.042 9.40287 2 10.6559 2H10.6599L13.2069 2.003C13.8089 2.004 14.3769 2.242 14.8049 2.673C15.2479 3.118 15.4899 3.713 15.4879 4.348L15.4859 4.627C15.4839 5.193 15.7429 5.728 16.1799 6.056L16.2869 6.137C16.7459 6.482 17.3439 6.581 17.8809 6.401L18.2199 6.288C18.7969 6.096 19.4109 6.143 19.9519 6.42C20.5069 6.704 20.9169 7.193 21.1049 7.798L21.8919 10.319C22.2719 11.537 21.6139 12.851 20.4269 13.248L20.2259 13.315C19.6499 13.509 19.1969 13.989 19.0159 14.601C18.8499 15.162 18.9459 15.779 19.2749 16.253L19.5349 16.628C20.2489 17.66 20.0209 19.108 19.0269 19.857L16.9659 21.413C16.4709 21.787 15.8639 21.938 15.2549 21.841C14.6409 21.742 14.1049 21.402 13.7459 20.884L13.6279 20.712C13.2779 20.208 12.7179 19.902 12.1309 19.935C11.5429 19.951 11.0349 20.23 10.7029 20.702L10.4719 21.03C10.1099 21.543 9.57287 21.878 8.96187 21.974C8.84487 21.992 8.72887 22 8.61387 22ZM12.0001 10.4999C11.1731 10.4999 10.5001 11.1729 10.5001 11.9999C10.5001 12.8269 11.1731 13.4999 12.0001 13.4999C12.8271 13.4999 13.5001 12.8269 13.5001 11.9999C13.5001 11.1729 12.8271 10.4999 12.0001 10.4999ZM12.0001 15.4999C10.0701 15.4999 8.50007 13.9299 8.50007 11.9999C8.50007 10.0699 10.0701 8.4999 12.0001 8.4999C13.9301 8.4999 15.5001 10.0699 15.5001 11.9999C15.5001 13.9299 13.9301 15.4999 12.0001 15.4999Z" fill="#202020" style="fill: var(--ui-icon-primary-color);"/>
</svg>
