<svg  viewBox="0 0 24 24" fill="none" xmlns="http://www.w3.org/2000/svg" id="__THIS_ID_NEEDS_FOR_UI_ICON_COMPONENT__">
<path fill-rule="evenodd" clip-rule="evenodd" d="M19 19.5C19 20.329 18.328 21 17.5 21C16.672 21 16 20.329 16 19.5C16 18.671 16.672 18 17.5 18C18.328 18 19 18.671 19 19.5ZM9 19.5C9 20.329 8.328 21 7.5 21C6.672 21 6 20.329 6 19.5C6 18.671 6.672 18 7.5 18C8.328 18 9 18.671 9 19.5ZM16.382 14H8.764L7.127 8H19.382L16.382 14ZM21.083 6.948C20.716 6.354 20.08 6 19.382 6H6.582L5.965 3.737C5.846 3.302 5.451 3 5 3H3C2.447 3 2 3.448 2 4C2 4.552 2.447 5 3 5H4.236L7.035 15.263C7.154 15.698 7.549 16 8 16H17C17.379 16 17.725 15.786 17.895 15.447L21.171 8.894C21.483 8.269 21.45 7.542 21.083 6.948Z" fill="#202020" style="fill: var(--ui-icon-primary-color);"/>
</svg>
