<svg width="40" height="40" viewBox="0 0 40 40" fill="none" xmlns="http://www.w3.org/2000/svg">
<rect width="40" height="40" fill="#1D1D21"/>
<path d="M16.2041 20.6357C16.2041 21.6979 15.9629 22.5464 15.4805 23.1812C14.998 23.8117 14.3506 24.127 13.5381 24.127C12.7848 24.127 12.1818 23.8794 11.729 23.3843V26.6406H10.1865V17.1318H11.6084L11.6719 17.8301C12.1247 17.2799 12.7404 17.0049 13.519 17.0049C14.3569 17.0049 15.0129 17.318 15.4868 17.9443C15.965 18.5664 16.2041 19.4318 16.2041 20.5405V20.6357ZM14.668 20.5024C14.668 19.8169 14.5304 19.2731 14.2554 18.8711C13.9845 18.4691 13.5952 18.2681 13.0874 18.2681C12.4569 18.2681 12.0041 18.5283 11.729 19.0488V22.0957C12.0083 22.6289 12.4653 22.8955 13.1001 22.8955C13.591 22.8955 13.974 22.6987 14.249 22.3052C14.5283 21.9074 14.668 21.3065 14.668 20.5024ZM21.6758 23.3271C21.223 23.8604 20.5798 24.127 19.7461 24.127C19.0013 24.127 18.4364 23.909 18.0513 23.4731C17.6704 23.0373 17.48 22.4067 17.48 21.5815V17.1318H19.0225V21.5625C19.0225 22.4342 19.3843 22.8701 20.1079 22.8701C20.8569 22.8701 21.3626 22.6014 21.625 22.064V17.1318H23.1675V24H21.7139L21.6758 23.3271ZM26.3794 24H24.8369V14.25H26.3794V24ZM29.7056 24H28.1631V14.25H29.7056V24Z" fill="white"/>
</svg>
