<svg width="282" height="282" viewBox="0 0 282 282" fill="none" xmlns="http://www.w3.org/2000/svg">
<path d="M0 90.24C0 40.4018 40.4018 0 90.24 0H191.76C241.598 0 282 40.4018 282 90.24V191.76C282 241.598 241.598 282 191.76 282H90.24C40.4018 282 0 241.598 0 191.76V90.24Z" fill="#1D1F21"/>
<path d="M55.0342 146.596V169.2H41.8154V105.045H66.8429C71.6604 105.045 75.8904 105.926 79.5329 107.689C83.2048 109.451 86.0248 111.963 87.9929 115.224C89.9611 118.455 90.9451 122.141 90.9451 126.283C90.9451 132.57 88.7861 137.534 84.4679 141.176C80.1792 144.79 74.2307 146.596 66.6226 146.596H55.0342ZM55.0342 135.889H66.8429C70.3386 135.889 72.997 135.066 74.8182 133.421C76.6689 131.776 77.5942 129.426 77.5942 126.371C77.5942 123.228 76.6689 120.687 74.8182 118.749C72.9676 116.81 70.412 115.811 67.1514 115.752H55.0342V135.889Z" fill="white"/>
<path d="M148.623 105.045V147.301C148.623 154.322 146.42 159.874 142.014 163.957C137.637 168.04 131.644 170.081 124.036 170.081C116.545 170.081 110.597 168.099 106.191 164.133C101.784 160.167 99.5373 154.718 99.4492 147.786V105.045H112.668V147.389C112.668 151.59 113.667 154.66 115.664 156.598C117.691 158.508 120.482 159.462 124.036 159.462C131.468 159.462 135.243 155.556 135.36 147.742V105.045H148.623Z" fill="white"/>
<path d="M172.681 158.581H200.749V169.2H159.462V105.045H172.681V158.581Z" fill="white"/>
<path d="M221.59 158.581H249.658V169.2H208.372V105.045H221.59V158.581Z" fill="white"/>
</svg>
