<svg  viewBox="0 0 24 24" fill="none" xmlns="http://www.w3.org/2000/svg" id="__THIS_ID_NEEDS_FOR_UI_ICON_COMPONENT__">
<path fill-rule="evenodd" clip-rule="evenodd" d="M10 13C6.141 13 3 16.141 3 20C3 20.553 3.447 21 4 21C4.553 21 5 20.553 5 20C5 17.243 7.243 15 10 15C12.757 15 15 17.243 15 20C15 20.553 15.447 21 16 21C16.553 21 17 20.553 17 20C17 16.141 13.859 13 10 13ZM8 7C8 8.103 8.897 9 10 9C11.103 9 12 8.103 12 7C12 5.897 11.103 5 10 5C8.897 5 8 5.897 8 7ZM6 7C6 4.794 7.794 3 10 3C12.206 3 14 4.794 14 7C14 9.206 12.206 11 10 11C7.794 11 6 9.206 6 7ZM21.198 8.232C21.601 8.636 21.601 9.295 21.198 9.698C20.795 10.101 20.136 10.101 19.732 9.698L19 8.965L18.268 9.698C17.864 10.101 17.205 10.101 16.802 9.698C16.399 9.295 16.399 8.636 16.802 8.232L17.535 7.5L16.802 6.768C16.399 6.364 16.399 5.705 16.802 5.302C17.205 4.899 17.864 4.899 18.268 5.302L19 6.035L19.732 5.302C20.136 4.899 20.795 4.899 21.198 5.302C21.601 5.705 21.601 6.364 21.198 6.768L20.465 7.5L21.198 8.232Z" fill="#202020" style="fill: var(--ui-icon-primary-color);"/>
</svg>
