<svg  viewBox="0 0 24 24" fill="none" xmlns="http://www.w3.org/2000/svg" id="__THIS_ID_NEEDS_FOR_UI_ICON_COMPONENT__">
<path fill-rule="evenodd" clip-rule="evenodd" d="M10 13C6.141 13 3 16.14 3 20C3 20.552 3.447 21 4 21C4.553 21 5 20.552 5 20C5 17.243 7.243 15 10 15C12.757 15 15 17.243 15 20C15 20.552 15.447 21 16 21C16.553 21 17 20.552 17 20C17 16.14 13.859 13 10 13ZM8 7C8 8.103 8.897 9 10 9C11.103 9 12 8.103 12 7C12 5.897 11.103 5 10 5C8.897 5 8 5.897 8 7ZM6 7C6 4.794 7.794 3 10 3C12.206 3 14 4.794 14 7C14 9.206 12.206 11 10 11C7.794 11 6 9.206 6 7ZM21.755 5.656L19.145 8.656C18.956 8.873 18.684 8.998 18.396 9H18.39C18.105 9 17.834 8.879 17.645 8.667L16.255 7.114C15.887 6.702 15.922 6.07 16.333 5.702C16.746 5.333 17.378 5.368 17.745 5.78L18.379 6.489L20.245 4.344C20.608 3.926 21.239 3.883 21.656 4.246C22.073 4.608 22.117 5.24 21.755 5.656Z" fill="#202020" style="fill: var(--ui-icon-primary-color);"/>
</svg>
