<svg  viewBox="0 0 24 24" fill="none" xmlns="http://www.w3.org/2000/svg" id="__THIS_ID_NEEDS_FOR_UI_ICON_COMPONENT__">
<path fill-rule="evenodd" clip-rule="evenodd" d="M18.6245 8.21924L13.6245 4.21924C13.2595 3.92724 12.7405 3.92724 12.3755 4.21924L7.37551 8.21924C6.94351 8.56424 6.87451 9.19324 7.21951 9.62424C7.56351 10.0552 8.19351 10.1252 8.62451 9.78124L11.9995 7.08024V16.0002C11.9995 16.5512 11.5515 17.0002 10.9995 17.0002H5.99951C5.44751 17.0002 4.99951 17.4482 4.99951 18.0002C4.99951 18.5522 5.44751 19.0002 5.99951 19.0002H10.9995C12.6545 19.0002 13.9995 17.6542 13.9995 16.0002V7.08024L17.3755 9.78124C17.5595 9.92824 17.7805 10.0002 17.9995 10.0002C18.2925 10.0002 18.5835 9.87124 18.7805 9.62424C19.1255 9.19324 19.0565 8.56424 18.6245 8.21924Z" fill="#202020" style="fill: var(--ui-icon-primary-color);"/>
</svg>
