<svg  viewBox="0 0 24 24" fill="none" xmlns="http://www.w3.org/2000/svg" id="__THIS_ID_NEEDS_FOR_UI_ICON_COMPONENT__">
<path fill-rule="evenodd" clip-rule="evenodd" d="M19.7812 10.3756L15.7812 5.37557C15.4342 4.94457 14.8062 4.87357 14.3752 5.21957C13.9442 5.56357 13.8742 6.19357 14.2192 6.62457L16.9202 10.0006H8.00024C6.34524 10.0006 5.00024 11.3456 5.00024 13.0006V18.0006C5.00024 18.5526 5.44824 19.0006 6.00024 19.0006C6.55224 19.0006 7.00024 18.5526 7.00024 18.0006V13.0006C7.00024 12.4486 7.44824 12.0006 8.00024 12.0006H16.9202L14.2192 15.3756C13.8742 15.8066 13.9442 16.4366 14.3752 16.7806C14.5592 16.9286 14.7802 17.0006 14.9992 17.0006C15.2932 17.0006 15.5832 16.8716 15.7812 16.6246L19.7812 11.6246C20.0732 11.2596 20.0732 10.7406 19.7812 10.3756Z" fill="#202020" style="fill: var(--ui-icon-primary-color);"/>
</svg>
