<svg width="17" height="18" viewBox="0 0 17 18" fill="none" xmlns="http://www.w3.org/2000/svg">
<g opacity="0.75">
<g clip-path="url(#clip0)">
<path d="M14.9239 14.6098L13.7547 12.6621C13.2157 11.7631 12.9305 10.7341 12.9305 9.68531V7.97915C12.9305 5.3529 10.7929 3.21527 8.16666 3.21527C5.54041 3.21527 3.40278 5.3529 3.40278 7.97915V9.68531C3.40278 10.7341 3.11762 11.7631 2.57862 12.6621L1.40942 14.6098C1.34612 14.7146 1.34475 14.846 1.40466 14.9521C1.46524 15.059 1.57887 15.125 1.70137 15.125H14.6319C14.7544 15.125 14.8681 15.059 14.9286 14.9521C14.9885 14.8459 14.9872 14.7146 14.9239 14.6098ZM2.30233 14.4444L3.16187 13.0119C3.76483 12.0074 4.08333 10.8572 4.08333 9.68531V7.97915C4.08333 5.72719 5.9147 3.89582 8.16666 3.89582C10.4186 3.89582 12.25 5.72719 12.25 7.97915V9.68531C12.25 10.8572 12.5685 12.0074 13.1708 13.0119L14.031 14.4444H2.30233Z" fill="white"/>
<path d="M8.16667 0.833313C7.416 0.833313 6.80554 1.44377 6.80554 2.19443V3.55556C6.80554 3.74336 6.958 3.89581 7.14583 3.89581C7.33367 3.89581 7.48612 3.74336 7.48612 3.55552V2.19443C7.48612 1.81877 7.791 1.51389 8.16667 1.51389C8.54233 1.51389 8.84721 1.81877 8.84721 2.19443V3.55556C8.84721 3.74336 8.99967 3.89581 9.1875 3.89581C9.37534 3.89581 9.52779 3.74336 9.52779 3.55552V2.19443C9.52779 1.44377 8.91733 0.833313 8.16667 0.833313Z" fill="white"/>
<path d="M9.63936 14.6125C9.5434 14.4505 9.33582 14.3975 9.17319 14.4907C9.01052 14.586 8.9561 14.7949 9.05136 14.9569C9.13982 15.1073 9.18815 15.2876 9.18815 15.4652C9.18815 16.0281 8.73015 16.4861 8.16732 16.4861C7.60449 16.4861 7.14649 16.0281 7.14649 15.4652C7.14649 15.2876 7.19482 15.1073 7.28328 14.9569C7.37786 14.7942 7.32344 14.5859 7.16145 14.4907C6.99744 14.3974 6.79053 14.4505 6.69528 14.6125C6.54487 14.8698 6.46524 15.1644 6.46524 15.4653C6.46527 16.4037 7.22815 17.1666 8.16665 17.1666C9.10514 17.1666 9.86802 16.4037 9.8694 15.4653C9.8694 15.1644 9.78977 14.8698 9.63936 14.6125Z" fill="white"/>
</g>
</g>
<defs>
<clipPath id="clip0">
<rect y="0.833313" width="16.3333" height="16.3333" fill="white"/>
</clipPath>
</defs>
</svg>
