<svg width="17" height="18" viewBox="0 0 17 18" fill="none" xmlns="http://www.w3.org/2000/svg">
<g opacity="0.75">
<g clip-path="url(#clip0)">
<path d="M16.5106 7.20942L15.0093 8.38338C15.0291 8.56441 15.0447 8.77605 15.0447 8.99996C15.0447 9.22387 15.0284 9.4355 15.0093 9.61654L16.512 10.7912C16.791 11.0117 16.8679 11.403 16.6896 11.729L15.1284 14.4301C14.9576 14.7411 14.5744 14.8833 14.2253 14.7547L12.4538 14.0435C12.1149 14.2885 11.759 14.4954 11.3908 14.6608L11.1213 16.5398C11.0771 16.8971 10.7667 17.1666 10.3999 17.1666H7.26935C6.90252 17.1666 6.59218 16.8971 6.54864 16.5466L6.27847 14.6608C5.92185 14.4995 5.57138 14.296 5.2168 14.0428L3.44055 14.7561C3.10097 14.8888 2.71439 14.7486 2.54426 14.4369L0.981014 11.7317C0.796594 11.42 0.872136 11.0157 1.15797 10.7898L2.65926 9.61651C2.63543 9.38647 2.62389 9.18709 2.62389 8.99993C2.62389 8.81276 2.63547 8.61338 2.65792 8.38334L1.15526 7.20801C0.876889 6.98755 0.800646 6.59625 0.978271 6.27025L2.53948 3.56913C2.70893 3.25879 3.0914 3.11725 3.44256 3.2445L5.21406 3.95567C5.55298 3.71134 5.9096 3.50446 6.27777 3.33842L6.54727 1.46008C6.59151 1.10279 6.90185 0.833292 7.26865 0.833292H10.3992C10.766 0.833292 11.0764 1.10279 11.1199 1.45329L11.3901 3.33842C11.7467 3.49971 12.0972 3.70321 12.4517 3.95637L14.228 3.24316C14.5662 3.11182 14.9541 3.25066 15.1243 3.56233L16.6936 6.27708C16.8672 6.59555 16.791 6.98688 16.5106 7.20942ZM16.0989 6.61054L14.4778 3.87608L12.5294 4.65871C12.4191 4.70295 12.2939 4.68592 12.1986 4.61516C11.7766 4.29937 11.369 4.06187 10.9511 3.89104C10.8395 3.84545 10.7599 3.74404 10.7429 3.62425L10.3992 1.51384L7.22306 1.54992L6.92565 3.62358C6.90794 3.74337 6.82902 3.84475 6.7174 3.89037C6.28252 4.06866 5.86398 4.31162 5.47265 4.61245C5.41207 4.65941 5.33857 4.68324 5.26507 4.68324C5.22219 4.68324 5.17932 4.67574 5.13782 4.65874L3.13357 3.90265L1.57236 6.60378C1.55807 6.63032 1.56078 6.66094 1.57712 6.67386L3.22883 7.96487C3.32274 8.03837 3.37174 8.15678 3.35678 8.2752C3.3207 8.56036 3.30437 8.79107 3.30437 8.99999C3.30437 9.20891 3.32137 9.43895 3.35678 9.72478C3.37174 9.84387 3.32274 9.96162 3.22883 10.0351L1.56901 11.3887L3.1901 14.1232L5.13852 13.3405C5.24944 13.2956 5.37398 13.3126 5.46994 13.3841C5.89119 13.7005 6.29952 13.9374 6.7174 14.1082C6.82902 14.1545 6.90794 14.2559 6.92498 14.375L7.26935 16.4861L10.4462 16.4493L10.7429 14.375C10.7606 14.2552 10.8395 14.1538 10.9511 14.1082C11.3853 13.9306 11.8039 13.6876 12.1959 13.3861C12.2918 13.3126 12.4178 13.2949 12.5301 13.3405L14.5343 14.0966L16.0955 11.3955C16.1098 11.369 16.1071 11.339 16.0908 11.3261L14.439 10.0351C14.3451 9.96158 14.2961 9.84384 14.3111 9.72475C14.337 9.51787 14.3635 9.26946 14.3635 8.99996C14.3635 8.72979 14.337 8.48205 14.3111 8.27517C14.2961 8.15675 14.3451 8.03833 14.439 7.96483L16.0887 6.6745C16.1064 6.66021 16.1098 6.62958 16.0989 6.61054Z" fill="white"/>
<path d="M8.83394 12.4028C6.95765 12.4028 5.43115 10.8763 5.43115 8.99998C5.43115 7.12369 6.95765 5.59719 8.83394 5.59719C10.7102 5.59719 12.2367 7.12369 12.2367 8.99998C12.2367 10.8763 10.7102 12.4028 8.83394 12.4028ZM8.83394 6.27777C7.33265 6.27777 6.11173 7.49868 6.11173 8.99998C6.11173 10.5013 7.33265 11.7222 8.83394 11.7222C10.3352 11.7222 11.5562 10.5013 11.5562 8.99998C11.5562 7.49868 10.3352 6.27777 8.83394 6.27777Z" fill="white"/>
</g>
</g>
<defs>
<clipPath id="clip0">
<rect width="16.3333" height="16.3333" transform="matrix(1 0 0 -1 0.666656 17.1666)" fill="white"/>
</clipPath>
</defs>
</svg>
