<svg  viewBox="0 0 24 24" fill="none" xmlns="http://www.w3.org/2000/svg" id="__THIS_ID_NEEDS_FOR_UI_ICON_COMPONENT__">
<path fill-rule="evenodd" clip-rule="evenodd" d="M21.8675 12.4975C21.4525 13.2205 20.4765 14.7385 18.9545 16.1265L17.5435 14.7155C18.6035 13.7645 19.3705 12.7185 19.8265 12.0045C18.8945 10.5855 16.0715 6.8935 11.7805 7.0025C11.1805 7.0175 10.6175 7.1115 10.0815 7.2535L8.50151 5.6735C9.47351 5.2895 10.5445 5.0335 11.7295 5.0035C17.7045 4.8165 21.2295 10.3905 21.8675 11.5025C22.0435 11.8105 22.0435 12.1895 21.8675 12.4975ZM13.9175 16.7465L15.4975 18.3265C14.5265 18.7105 13.4545 18.9665 12.2705 18.9965C12.1885 18.9985 12.1065 18.9995 12.0245 18.9995C6.16151 18.9995 2.76151 13.5945 2.13251 12.4975C1.95551 12.1895 1.95551 11.8105 2.13251 11.5025C2.54651 10.7795 3.52251 9.2615 5.04451 7.8725L6.45551 9.2845C5.39551 10.2355 4.62951 11.2815 4.17251 11.9955C5.10451 13.4145 7.91451 17.0975 12.2195 16.9975C12.8195 16.9825 13.3825 16.8885 13.9175 16.7465ZM11.9995 13.4995C11.1725 13.4995 10.4995 12.8275 10.4995 11.9995C10.4995 11.9745 10.5105 11.9515 10.5115 11.9255L12.0745 13.4885C12.0485 13.4895 12.0255 13.4995 11.9995 13.4995ZM4.70651 3.2925C4.31651 2.9025 3.68351 2.9025 3.29251 3.2925C2.90251 3.6835 2.90251 4.3165 3.29251 4.7065L8.92351 10.3375C8.64651 10.8455 8.49951 11.4105 8.49951 11.9995C8.49951 13.9295 10.0705 15.4995 11.9995 15.4995C12.5895 15.4995 13.1545 15.3525 13.6625 15.0765L19.2925 20.7065C19.4885 20.9025 19.7435 20.9995 19.9995 20.9995C20.2555 20.9995 20.5115 20.9025 20.7065 20.7065C21.0975 20.3165 21.0975 19.6835 20.7065 19.2925L4.70651 3.2925Z" fill="#202020" style="fill: var(--ui-icon-primary-color);"/>
</svg>
