<svg  viewBox="0 0 24 24" fill="none" xmlns="http://www.w3.org/2000/svg" id="__THIS_ID_NEEDS_FOR_UI_ICON_COMPONENT__">
<path fill-rule="evenodd" clip-rule="evenodd" d="M6.10251 15.8735L9.07951 15.6025L14.6795 9.99746L11.9835 7.30046L6.36651 12.9175L6.10251 15.8735ZM13.3235 5.96146L16.0185 8.65646L17.9655 6.70646L15.2715 4.01246L13.3235 5.96146ZM4.29251 17.6855C4.08251 17.4755 3.97751 17.1835 4.00351 16.8875L4.38251 12.7175C4.42451 12.2605 4.62651 11.8295 4.95251 11.5035L13.9485 2.50746C14.6505 1.80246 15.9235 1.83746 16.6645 2.57646L19.4025 5.31446L19.4035 5.31546C20.1685 6.08146 20.1995 7.29946 19.4715 8.02946L10.4745 17.0265C10.1495 17.3515 9.71851 17.5535 9.26051 17.5955L5.09051 17.9745C5.06051 17.9765 5.03051 17.9775 4.99951 17.9775C4.73651 17.9775 4.48151 17.8735 4.29251 17.6855ZM19.9995 20.9775C19.9995 21.5275 19.5495 21.9775 18.9995 21.9775H4.99951C4.45051 21.9775 3.99951 21.5275 3.99951 20.9775C3.99951 20.4285 4.45051 19.9775 4.99951 19.9775H18.9995C19.5495 19.9775 19.9995 20.4285 19.9995 20.9775Z" fill="#202020" style="fill: var(--ui-icon-primary-color);"/>
</svg>
