<svg  viewBox="0 0 24 24" fill="none" xmlns="http://www.w3.org/2000/svg" id="__THIS_ID_NEEDS_FOR_UI_ICON_COMPONENT__">
<path fill-rule="evenodd" clip-rule="evenodd" d="M11.9966 5.42876L15.8806 9.38776C17.2526 10.7848 17.7446 12.7398 17.3716 14.5428L18.9796 16.1518C20.0266 13.4188 19.4706 10.1908 17.3086 7.98776L12.7096 3.29976C12.5216 3.10876 12.2646 2.99976 11.9966 2.99976H11.9956C11.7266 2.99976 11.4696 3.10876 11.2816 3.30076L8.73161 5.90376L10.1456 7.31876L11.9966 5.42876ZM12.0024 19.0001H12.0004C10.5354 19.0001 9.15641 18.4181 8.11841 17.3601C6.22741 15.4341 5.99641 12.4451 7.42541 10.2541L5.99341 8.82206C3.80741 11.8041 4.03441 16.0551 6.69141 18.7611C8.10841 20.2051 9.99341 21.0001 12.0004 21.0001H12.0024C13.6824 20.9991 15.2724 20.4361 16.5784 19.4061L15.1474 17.9761C14.2304 18.6351 13.1454 18.9991 12.0024 19.0001ZM4.70701 3.29306L20.707 19.2931C21.098 19.6841 21.098 20.3161 20.707 20.7071C20.512 20.9021 20.256 21.0001 20 21.0001C19.744 21.0001 19.488 20.9021 19.293 20.7071L3.29301 4.70706C2.90201 4.31606 2.90201 3.68406 3.29301 3.29306C3.68401 2.90206 4.31601 2.90206 4.70701 3.29306Z" fill="#202020" style="fill: var(--ui-icon-primary-color);"/>
</svg>
