<svg  viewBox="0 0 24 24" fill="none" xmlns="http://www.w3.org/2000/svg" id="__THIS_ID_NEEDS_FOR_UI_ICON_COMPONENT__">
<path fill-rule="evenodd" clip-rule="evenodd" d="M20.9923 6.963C20.9902 6.891 20.9692 6.823 20.9503 6.754C20.9353 6.696 20.9283 6.637 20.9033 6.584C20.8803 6.532 20.8413 6.49 20.8073 6.442C20.7653 6.381 20.7273 6.32 20.6733 6.27C20.6643 6.261 20.6603 6.249 20.6503 6.241C20.6143 6.21 20.5703 6.199 20.5313 6.174C20.4713 6.135 20.4123 6.095 20.3443 6.069C20.2773 6.045 20.2113 6.039 20.1423 6.029C20.0943 6.022 20.0513 6 20.0003 6H15.0003C14.4473 6 14.0003 6.448 14.0003 7C14.0003 7.552 14.4473 8 15.0003 8H17.8263L13.7903 12.708L9.51425 10.143C9.09125 9.887 8.54725 9.981 8.23125 10.36L3.23125 16.36C2.87825 16.784 2.93525 17.415 3.35925 17.768C3.54725 17.924 3.77325 18 3.99925 18C4.28625 18 4.57025 17.878 4.76825 17.64L9.22025 12.298L13.4853 14.858C13.9043 15.109 14.4423 15.021 14.7593 14.651L19.0003 9.703V12C19.0003 12.552 19.4473 13 20.0003 13C20.5533 13 21.0003 12.552 21.0003 12V7C21.0003 6.987 20.9932 6.976 20.9923 6.963Z" fill="#202020" style="fill: var(--ui-icon-primary-color);"/>
</svg>
