<svg  viewBox="0 0 24 24" fill="none" xmlns="http://www.w3.org/2000/svg" id="__THIS_ID_NEEDS_FOR_UI_ICON_COMPONENT__">
<path fill-rule="evenodd" clip-rule="evenodd" d="M16.8888 18.3185C16.7168 17.8855 16.4728 17.5075 16.2588 17.1845C16.1508 17.0225 16.0398 16.8575 15.9428 16.6875C15.5538 16.0115 15.6878 15.7375 16.3188 14.6805L16.4208 14.5075C16.9318 13.6465 16.9598 12.8205 16.9858 12.0925C16.9978 11.7345 17.0098 11.3975 17.0788 11.0805C17.2398 10.3485 18.7868 10.1535 19.7458 10.0385C19.9068 10.6675 19.9998 11.3225 19.9998 12.0005C19.9998 14.5695 18.7778 16.8535 16.8888 18.3185ZM4.96176 15.7995C5.59776 15.9615 6.28676 16.0735 6.98776 16.0735C8.06776 16.0735 9.17076 15.8095 10.1248 15.0625C11.8408 13.7205 11.8408 12.0045 11.8408 10.6245C11.8408 9.73249 11.8408 8.96349 12.2128 8.28049C12.4128 7.91449 12.8388 7.66049 13.3318 7.36549C13.6338 7.18449 13.9468 6.99849 14.2468 6.76249C14.8898 6.25949 15.3678 5.61249 15.6638 4.89649C17.0638 5.62149 18.2238 6.74449 18.9898 8.11949C17.5618 8.31749 15.5348 8.78549 15.1258 10.6525C15.0178 11.1465 15.0008 11.6115 14.9878 12.0225C14.9668 12.6055 14.9508 13.0665 14.7008 13.4885L14.6008 13.6565C13.9538 14.7395 13.2218 15.9675 14.2088 17.6845C14.3278 17.8925 14.4608 18.0925 14.5918 18.2915C14.9358 18.8075 15.1048 19.0925 15.1058 19.3725C14.1508 19.7765 13.1008 20.0005 11.9998 20.0005C8.96276 20.0005 6.31676 18.2985 4.96176 15.7995ZM11.9998 4.00049C12.6158 4.00049 13.2108 4.07649 13.7868 4.20849C13.6178 4.58049 13.3568 4.91949 13.0128 5.18849C12.7948 5.36049 12.5498 5.50349 12.3068 5.64849C11.6558 6.03649 10.9188 6.47649 10.4568 7.32249C9.84076 8.45249 9.84076 9.60649 9.84076 10.6245C9.84076 11.9795 9.79676 12.7805 8.89276 13.4875C7.52376 14.5605 5.42876 13.9615 4.13276 13.4165C4.05076 12.9555 3.99976 12.4835 3.99976 12.0005C3.99976 7.58949 7.58876 4.00049 11.9998 4.00049ZM11.9998 2.00049C6.48576 2.00049 1.99976 6.48649 1.99976 12.0005C1.99976 17.5135 6.48576 22.0005 11.9998 22.0005C17.5138 22.0005 21.9998 17.5135 21.9998 12.0005C21.9998 6.48649 17.5138 2.00049 11.9998 2.00049Z" fill="#202020" style="fill: var(--ui-icon-primary-color);"/>
</svg>
