<svg  viewBox="0 0 24 24" fill="none" xmlns="http://www.w3.org/2000/svg" id="__THIS_ID_NEEDS_FOR_UI_ICON_COMPONENT__">
<path fill-rule="evenodd" clip-rule="evenodd" d="M5.23191 10.64C5.58591 11.064 6.21591 11.122 6.63991 10.768L10.9999 7.135V19C10.9999 19.552 11.4479 20 11.9999 20C12.5519 20 12.9999 19.552 12.9999 19V7.135L17.3599 10.768C17.7849 11.122 18.4149 11.064 18.7679 10.64C19.1219 10.216 19.0649 9.585 18.6399 9.232L12.6399 4.232C12.5929 4.192 12.5369 4.173 12.4849 4.143C12.4439 4.119 12.4079 4.091 12.3629 4.073C12.2459 4.027 12.1239 4 11.9999 4C11.8759 4 11.7539 4.027 11.6369 4.073C11.5919 4.091 11.5559 4.119 11.5149 4.143C11.4629 4.173 11.4069 4.192 11.3599 4.232L5.35991 9.232C4.93591 9.585 4.87791 10.216 5.23191 10.64Z" fill="#202020" style="fill: var(--ui-icon-primary-color);"/>
</svg>
