<svg width="68" height="20" viewBox="0 0 68 20" fill="none" xmlns="http://www.w3.org/2000/svg">
<path d="M10.7324 9.79492C10.7324 11.4355 10.3613 12.7474 9.61914 13.7305C8.88346 14.707 7.88737 15.1953 6.63086 15.1953C5.66081 15.1953 4.86328 14.8405 4.23828 14.1309V19.0625H0.947266V4.43359H4.02344L4.12109 5.41016C4.7526 4.62891 5.58268 4.23828 6.61133 4.23828C7.91341 4.23828 8.92578 4.72005 9.64844 5.68359C10.3711 6.64062 10.7324 7.95898 10.7324 9.63867V9.79492ZM7.44141 9.58984C7.44141 7.71484 6.89453 6.77734 5.80078 6.77734C5.01953 6.77734 4.4987 7.05729 4.23828 7.61719V11.7773C4.52474 12.3633 5.05208 12.6562 5.82031 12.6562C6.86849 12.6562 7.40885 11.7513 7.44141 9.94141V9.58984ZM18.4863 13.8574C17.7897 14.7493 16.849 15.1953 15.6641 15.1953C14.5052 15.1953 13.6263 14.86 13.0273 14.1895C12.4349 13.5124 12.1387 12.5423 12.1387 11.2793V4.43359H15.4297V11.2988C15.4297 12.2038 15.8691 12.6562 16.748 12.6562C17.5033 12.6562 18.0404 12.3861 18.3594 11.8457V4.43359H21.6699V15H18.584L18.4863 13.8574ZM26.9531 15H23.6523V0H26.9531V15ZM32.4609 15H29.1602V0H32.4609V15ZM38.9648 12.6562C39.4271 12.6562 39.7852 12.5326 40.0391 12.2852C40.293 12.0312 40.4167 11.6797 40.4102 11.2305H43.4961C43.4961 12.3893 43.0794 13.3398 42.2461 14.082C41.4193 14.8242 40.3516 15.1953 39.043 15.1953C37.5065 15.1953 36.2956 14.7135 35.4102 13.75C34.5247 12.7865 34.082 11.4518 34.082 9.74609V9.60938C34.082 8.54167 34.2773 7.60091 34.668 6.78711C35.0651 5.9668 35.6348 5.33854 36.377 4.90234C37.1191 4.45964 37.998 4.23828 39.0137 4.23828C40.3874 4.23828 41.4779 4.61914 42.2852 5.38086C43.0924 6.14258 43.4961 7.17448 43.4961 8.47656H40.4102C40.4102 7.92969 40.2767 7.50977 40.0098 7.2168C39.7428 6.92383 39.3848 6.77734 38.9355 6.77734C38.0827 6.77734 37.5846 7.32096 37.4414 8.4082C37.3958 8.75326 37.373 9.22852 37.373 9.83398C37.373 10.8952 37.5 11.6309 37.7539 12.041C38.0078 12.4512 38.4115 12.6562 38.9648 12.6562ZM51.2793 7.41211L50.1953 7.33398C49.1602 7.33398 48.4961 7.65951 48.2031 8.31055V15H44.9121V4.43359H47.998L48.1055 5.79102C48.6589 4.75586 49.4303 4.23828 50.4199 4.23828C50.7715 4.23828 51.0775 4.27734 51.3379 4.35547L51.2793 7.41211ZM55.5762 4.43359L55.6836 5.67383C56.4323 4.7168 57.4382 4.23828 58.7012 4.23828C60.0358 4.23828 60.9375 4.76888 61.4062 5.83008C62.1224 4.76888 63.1576 4.23828 64.5117 4.23828C66.6536 4.23828 67.7539 5.53385 67.8125 8.125V15H64.5117V8.33008C64.5117 7.78971 64.4206 7.39583 64.2383 7.14844C64.056 6.90104 63.724 6.77734 63.2422 6.77734C62.5911 6.77734 62.1061 7.06706 61.7871 7.64648L61.7969 7.7832V15H58.4961V8.34961C58.4961 7.79622 58.4082 7.39583 58.2324 7.14844C58.0566 6.90104 57.7214 6.77734 57.2266 6.77734C56.5951 6.77734 56.1133 7.06706 55.7812 7.64648V15H52.4902V4.43359H55.5762Z" fill="#1F1F1F"/>
</svg>
