<svg  viewBox="0 0 24 24" fill="none" xmlns="http://www.w3.org/2000/svg" id="__THIS_ID_NEEDS_FOR_UI_ICON_COMPONENT__">
<path fill-rule="evenodd" clip-rule="evenodd" d="M11.9998 3C14.5808 3 16.8548 4.661 17.6748 7.045C20.1138 7.376 21.9998 9.472 21.9998 12C21.9998 13.221 21.5558 14.396 20.7498 15.309C20.5518 15.532 20.2768 15.647 19.9998 15.647C19.7648 15.647 19.5288 15.565 19.3378 15.397C18.9248 15.03 18.8848 14.399 19.2508 13.984C19.7338 13.438 19.9998 12.732 19.9998 12C19.9998 10.346 18.6538 9 16.9998 9H16.8998C16.4238 9 16.0138 8.664 15.9198 8.197C15.5458 6.345 13.8978 5 11.9998 5C10.1028 5 8.45376 6.345 8.08076 8.197C7.98676 8.664 7.57576 9 7.09976 9H6.99976C5.34576 9 3.99976 10.346 3.99976 12C3.99976 12.732 4.26576 13.438 4.74976 13.984C5.11476 14.399 5.07576 15.03 4.66176 15.397C4.24676 15.763 3.61576 15.722 3.25076 15.309C2.44376 14.396 1.99976 13.221 1.99976 12C1.99976 9.472 3.88576 7.376 6.32476 7.045C7.14576 4.661 9.41976 3 11.9998 3ZM13.0002 17.6439L14.3052 16.3839C14.7032 16.0009 15.3362 16.0119 15.7192 16.4089C16.1032 16.8069 16.0922 17.4399 15.6952 17.8229L12.6952 20.7199C12.5002 20.9059 12.2502 20.9999 12.0002 20.9999C11.7442 20.9999 11.4882 20.9029 11.2932 20.7069L8.29316 17.7069C7.90216 17.3169 7.90216 16.6839 8.29316 16.2929C8.68316 15.9029 9.31616 15.9029 9.70716 16.2929L11.0002 17.5859V11.9999C11.0002 11.4469 11.4482 10.9999 12.0002 10.9999C12.5522 10.9999 13.0002 11.4469 13.0002 11.9999V17.6439Z" fill="#202020" style="fill: var(--ui-icon-primary-color);"/>
</svg>
