<svg  viewBox="0 0 24 24" fill="none" xmlns="http://www.w3.org/2000/svg" id="__THIS_ID_NEEDS_FOR_UI_ICON_COMPONENT__">
<path fill-rule="evenodd" clip-rule="evenodd" d="M11.9998 3C14.5808 3 16.8548 4.661 17.6748 7.045C20.1138 7.376 21.9998 9.472 21.9998 12C21.9998 13.221 21.5558 14.396 20.7498 15.309C20.5518 15.532 20.2768 15.647 19.9998 15.647C19.7648 15.647 19.5288 15.565 19.3378 15.397C18.9248 15.03 18.8848 14.399 19.2508 13.984C19.7338 13.438 19.9998 12.732 19.9998 12C19.9998 10.346 18.6538 9 16.9998 9H16.8998C16.4238 9 16.0138 8.664 15.9198 8.197C15.5458 6.345 13.8978 5 11.9998 5C10.1028 5 8.45376 6.345 8.08076 8.197C7.98676 8.664 7.57576 9 7.09976 9H6.99976C5.34576 9 3.99976 10.346 3.99976 12C3.99976 12.732 4.26576 13.438 4.74976 13.984C5.11476 14.399 5.07576 15.03 4.66176 15.397C4.24776 15.763 3.61576 15.722 3.25076 15.309C2.44376 14.396 1.99976 13.221 1.99976 12C1.99976 9.472 3.88576 7.376 6.32476 7.045C7.14576 4.661 9.41976 3 11.9998 3ZM11.305 11.2801C11.699 10.9041 12.322 10.9071 12.707 11.2931L15.707 14.2931C16.098 14.6841 16.098 15.3161 15.707 15.7071C15.512 15.9021 15.256 16.0001 15 16.0001C14.744 16.0001 14.488 15.9021 14.293 15.7071L13 14.4141V20.0001C13 20.5531 12.552 21.0001 12 21.0001C11.448 21.0001 11 20.5531 11 20.0001V14.3561L9.69496 15.6161C9.29796 16.0011 8.66496 15.9881 8.28096 15.5911C7.89696 15.1931 7.90796 14.5611 8.30496 14.1771L11.305 11.2801Z" fill="#202020" style="fill: var(--ui-icon-primary-color);"/>
</svg>
